{
.appVersion = "3234";
.formatVersion = 3;
axes = (
{
name = Weight;
tag = wght;
}
);
customParameters = (
{
name = panose;
value = (
0,
0,
0,
0,
0,
0,
0,
0,
0,
0
);
},
{
name = unicodeRanges;
value = (
0,
1,
2,
5,
31,
35,
38,
60
);
},
{
name = codePageRanges;
value = (
"1252"
);
},
{
name = blueShift;
value = 18;
},
{
name = fsType;
value = (
3
);
},
{
name = "Use Typo Metrics";
value = 1;
}
);
date = "2024-01-12 23:31:14 +0000";
familyName = Teachers;
featurePrefixes = (
{
automatic = 1;
code = "languagesystem DFLT dflt;

languagesystem latn dflt;
languagesystem latn AZE;
languagesystem latn CRT;
languagesystem latn KAZ;
languagesystem latn TAT;
languagesystem latn TRK;
languagesystem latn ROM;
languagesystem latn MOL;
languagesystem latn CAT;
";
name = Languagesystems;
}
);
features = (
{
automatic = 1;
code = "feature locl;
feature ordn;
feature case;
";
tag = aalt;
},
{
automatic = 1;
code = "lookup ccmp_Other_1 {
	@CombiningTopAccents = [acutecomb brevecomb caroncomb circumflexcomb commaturnedabovecomb dieresiscomb dotaccentcomb gravecomb hungarumlautcomb macroncomb ringcomb tildecomb];
	lookupflag UseMarkFilteringSet @CombiningTopAccents;
	sub j' @CombiningTopAccents by jdotless;
} ccmp_Other_1;
";
tag = ccmp;
},
{
automatic = 1;
code = "script latn;
language AZE;
lookup locl_latn_0 {
	sub i by idotaccent;
} locl_latn_0;
language CRT;
lookup locl_latn_0;
language KAZ;
lookup locl_latn_0;
language TAT;
lookup locl_latn_0;
language TRK;
lookup locl_latn_0;

script latn;
language ROM;
lookup locl_latn_1 {
	sub Scedilla by Scommaaccent;
	sub scedilla by scommaaccent;
} locl_latn_1;
language MOL;
lookup locl_latn_1;

script latn;
language CAT;
lookup locl_latn_2 {
	sub l periodcentered' l by periodcentered.loclCAT;
	sub L periodcentered' L by periodcentered.loclCAT.case;
} locl_latn_2;
";
tag = locl;
},
{
automatic = 1;
code = "sub [zero one two three four five six seven eight nine] [A a]' by ordfeminine;

glyphs = (
{
color = 6;
glyphname = A;
kernLeft = A;
kernRight = A;
lastChange = "2024-02-02 14:53:56 +0000";
layers = (
{
anchors = (
{
name = bottom;
pos = (300,0);
},
{
name = ogonek;
pos = (581,-1);
},
{
name = top;
pos = (308,680);
}
);
background = {
anchors = (
{
name = bottom;
pos = (300,0);
},
{
name = ogonek;
pos = (581,-1);
},
{
name = top;
pos = (308,680);
}
);
shapes = (
{
closed = 1;
nodes = (
(86,0,l),
(159.28,185,l),
(458.05,185,l),
(531,0,l),
(607,0,l),
(328,680,l),
(290,680,l),
(10,0,l)
);
},
{
closed = 1;
nodes = (
(309,563,l),
(432.42,250,l),
(185.02,250,l)
);
}
);
};
hints = (
{
horizontal = 1;
origin = (0,7);
target = up;
type = BottomGhost;
},
{
horizontal = 1;
origin = (0,1);
target = (1,2);
type = Stem;
},
{
horizontal = 1;
origin = (0,6);
target = down;
type = TopGhost;
}
);
layerId = m01;
shapes = (
{
closed = 1;
nodes = (
(86,0,l),
(159.28,185,l),
(458.05,185,l),
(531,0,l),
(607,0,l),
(328,680,l),
(290,680,l),
(10,0,l)
);
},
{
closed = 1;
nodes = (
(309,563,l),
(432.42,250,l),
(185.02,250,l)
);
}
);
width = 617;
},
{
anchors = (
{
name = bottom;
pos = (343,0);
},
{
name = ogonek;
pos = (617,0);
},
{
name = top;
pos = (339,679);
}
);
background = {
anchors = (
{
name = bottom;
pos = (343,0);
},
{
name = ogonek;
pos = (617,0);
},
{
name = top;
pos = (339,679);
}
);
shapes = (
{
closed = 1;
nodes = (
(166,0,l),
(215,137,l),
(474,137,l),
(523,0,l),
(684,0,l),
(408,680,l),
(281,680,l),
(5,0,l)
);
},
{
closed = 1;
nodes = (
(344,502,l),
(430,260,l),
(258,260,l)
);
}
);
};
hints = (
{
horizontal = 1;
origin = (0,7);
target = up;
type = BottomGhost;
},
{
horizontal = 1;
origin = (0,1);
target = (1,2);
type = Stem;
},
{
horizontal = 1;
origin = (0,6);
target = down;
type = TopGhost;
}
);
layerId = "B86D9C3C-D3FC-40C7-BC9B-EF4509240B31";
shapes = (
{
closed = 1;
nodes = (
(166,0,l),
(215,137,l),
(474,137,l),
(523,0,l),
(684,0,l),
(408,680,l),
(281,680,l),
(5,0,l)
);
},
{
closed = 1;
nodes = (
(344,502,l),
(430,260,l),
(258,260,l)
);
}
);
width = 689;
},
{
anchors = (
{
name = bottom;
pos = (357,0);
},
{
name = ogonek;
pos = (629,0);
},
{
name = top;
pos = (349,679);
}
);
background = {
anchors = (
{
name = bottom;
pos = (357,0);
},
{
name = ogonek;
pos = (629,0);
},
{
name = top;
pos = (349,679);
}
);
shapes = (
{
closed = 1;
nodes = (
(193,0,l),
(234,121,l),
(479,121,l),
(520,0,l),
(710,0,l),
(435,680,l),
(278,680,l),
(3,0,l)
);
},
{
closed = 1;
nodes = (
(356,482,l),
(429,263,l),
(282,263,l)
);
}
);
};
hints = (
{
horizontal = 1;
origin = (0,7);
target = up;
type = BottomGhost;
},
{
horizontal = 1;
origin = (0,1);
target = (1,2);
type = Stem;
},
{
horizontal = 1;
origin = (0,6);
target = down;
type = TopGhost;
}
);
layerId = "20FD933E-5CCA-4ADC-839D-1BAE82A4B007";
shapes = (
{
closed = 1;
nodes = (
(193,0,l),
(234,121,l),
(479,121,l),
(520,0,l),
(710,0,l),
(435,680,l),
(278,680,l),
(3,0,l)
);
},
{
closed = 1;
nodes = (
(356,482,l),
(429,263,l),
(282,263,l)
);
}
);
width = 713;
}
);
note = A;
unicode = 65;
},
{
color = 10;
glyphname = Aacute;
kernLeft = A;
kernRight = A;
lastChange = "2024-02-02 14:59:17 +0000";
layers = (
{
background = {
anchors = (
{
name = bottom;
pos = (300,0);
},
{
name = ogonek;
pos = (581,-1);
},
{
name = top;
pos = (308,680);
}
);
hints = (
{
horizontal = 1;
origin = (0,7);
target = up;
type = BottomGhost;
},
{
horizontal = 1;
origin = (0,1);
target = (1,2);
type = Stem;
},
{
horizontal = 1;
origin = (0,6);
target = down;
type = TopGhost;
},
{
horizontal = 1;
origin = (2,3);
target = (2,2);
type = Stem;
},
{
origin = (2,3);
target = (2,1);
type = Stem;
}
);
shapes = (
{
closed = 1;
nodes = (
(86,0,l),
(159.28,185,l),
(458.05,185,l),
(531,0,l),
(607,0,l),
(328,680,l),
(290,680,l),
(10,0,l)
);
},
{
closed = 1;
nodes = (
(309,563,l),
(432.42,250,l),
(185.02,250,l)
);
},
{
closed = 1;
nodes = (
(333,726,l),
(433,860,l),
(357,860,l),
(277,726,l)
);
}
);
};
layerId = m01;
shapes = (
{
ref = A;
},
{
pos = (257,-24);
ref = acutecomb;
}
);
width = 617;
},
{
associatedMasterId = m01;
layerId = "FC018DF5-730F-4627-90E7-3D8C748C00D3";
name = Bold;
shapes = (
{
ref = A;
},
{
pos = (257,-24);
ref = acutecomb;
}
);
width = 617;
},
{
background = {
anchors = (
{
name = bottom;
pos = (343,0);
},
{
name = ogonek;
pos = (617,0);
},
{
name = top;
pos = (339,679);
}
);
hints = (
{
horizontal = 1;
origin = (0,7);
target = up;
type = BottomGhost;
},
{
horizontal = 1;
origin = (0,1);
target = (1,2);
type = Stem;
},
{
horizontal = 1;
origin = (0,6);
target = down;
type = TopGhost;
},
{
horizontal = 1;
origin = (2,3);
target = (2,2);
type = Stem;
},
{
origin = (2,3);
target = (2,1);
type = Stem;
}
);
shapes = (
{
closed = 1;
nodes = (
(166,0,l),
(215,137,l),
(474,137,l),
(523,0,l),
(684,0,l),
(408,680,l),
(281,680,l),
(5,0,l)
);
},
{
closed = 1;
nodes = (
(344,502,l),
(430,260,l),
(258,260,l)
);
},
{
closed = 1;
nodes = (
(396,722,l),
(530,901,l),
(402,901,l),
(284,722,l)
);
}
);
};
layerId = "B86D9C3C-D3FC-40C7-BC9B-EF4509240B31";
shapes = (
{
ref = A;
},
{
pos = (241,-28);
ref = acutecomb;
}
);
width = 689;
},
{
background = {
anchors = (
{
name = bottom;
pos = (357,0);
},
{
name = ogonek;
pos = (629,0);
},
{
name = top;
pos = (349,679);
}
);
hints = (
{
horizontal = 1;
origin = (0,7);
target = up;
type = BottomGhost;
},
{
horizontal = 1;
origin = (0,1);
target = (1,2);
type = Stem;
},
{
horizontal = 1;
origin = (0,6);
target = down;
type = TopGhost;
},
{
horizontal = 1;
origin = (2,3);
target = (2,2);
type = Stem;
},
{
origin = (2,3);
target = (2,1);
type = Stem;
}
);
shapes = (
{
closed = 1;
nodes = (
(193,0,l),
(234,121,l),
(479,121,l),
(520,0,l),
(710,0,l),
(435,680,l),
(278,680,l),
(3,0,l)
);
},
{
closed = 1;
nodes = (
(356,482,l),
(429,263,l),
(282,263,l)
);
},
{
closed = 1;
nodes = (
(417,721,l),
(563,915,l),
(417,915,l),
(287,721,l)
);
}
);
};
layerId = "20FD933E-5CCA-4ADC-839D-1BAE82A4B007";
shapes = (
{
ref = A;
},
{
pos = (235,-29);
ref = acutecomb;
}
);
width = 713;
}
);
unicode = 193;
},
{
color = 10;
glyphname = Abreve;
lastChange = "2024-02-02 14:59:17 +0000";
layers = (
{
background = {
anchors = (
{
name = bottom;
pos = (300,0);
},
{
name = ogonek;
pos = (581,-1);
},
{
name = top;
pos = (308,680);
}
);
hints = (
{
horizontal = 1;
origin = (0,7);
target = up;
type = BottomGhost;
},
{
horizontal = 1;
origin = (0,1);
target = (1,2);
type = Stem;
},
{
horizontal = 1;
origin = (0,6);
target = down;
type = TopGhost;
},
{
horizontal = 1;
origin = (2,10);
target = (2,3);
type = Stem;
},
{
origin = (2,7);
target = (2,6);
type = Stem;
},
{
origin = (2,0);
target = (2,13);
type = Stem;
}
);
shapes = (
{
closed = 1;
nodes = (
(86,0,l),
(159.28,185,l),
(458.05,185,l),
(531,0,l),
(607,0,l),
(328,680,l),
(290,680,l),
(10,0,l)
);
},
{
closed = 1;
nodes = (
(309,563,l),
(432.42,250,l),
(185.02,250,l)
);
},
{
closed = 1;
nodes = (
(376,860,l),
(376,824,o),
(346,790,o),
(309,790,cs),
(270,790,o),
(239,824,o),
(239,860,c),
(166,860,l),
(166,791,o),
(233,730,o),
(306,730,cs),
(384,730,o),
(446,794,o),
(446,860,c)
);
}
);
};
layerId = m01;
shapes = (
{
ref = A;
},
{
pos = (133,-22);
ref = brevecomb;
}
);
width = 617;
},
{
background = {
anchors = (
{
name = bottom;
pos = (343,0);
},
{
name = ogonek;
pos = (617,0);
},
{
name = top;
pos = (339,679);
}
);
hints = (
{
horizontal = 1;
origin = (0,7);
target = up;
type = BottomGhost;
},
{
horizontal = 1;
origin = (0,1);
target = (1,2);
type = Stem;
},
{
horizontal = 1;
origin = (0,6);
target = down;
type = TopGhost;
},
{
horizontal = 1;
origin = (2,10);
target = (2,7);
type = Stem;
},
{
horizontal = 1;
origin = (2,10);
target = (2,3);
type = Stem;
},
{
origin = (2,7);
target = (2,6);
type = Stem;
},
{
origin = (2,0);
target = (2,13);
type = Stem;
}
);
shapes = (
{
closed = 1;
nodes = (
(166,0,l),
(215,137,l),
(474,137,l),
(523,0,l),
(684,0,l),
(408,680,l),
(281,680,l),
(5,0,l)
);
},
{
closed = 1;
nodes = (
(344,502,l),
(430,260,l),
(258,260,l)
);
},
{
closed = 1;
nodes = (
(399,924,l),
(399,882,o),
(381,838,o),
(338,838,cs),
(295,838,o),
(276,882,o),
(276,924,c),
(179,924,l),
(179,808,o),
(249,746,o),
(338,746,cs),
(426,746,o),
(496,808,o),
(496,924,c)
);
}
);
};
layerId = "B86D9C3C-D3FC-40C7-BC9B-EF4509240B31";
shapes = (
{
ref = A;
},
{
pos = (113,-2);
ref = brevecomb;
}
);
width = 689;
},
{
background = {
anchors = (
{
name = bottom;
pos = (357,0);
},
{
name = ogonek;
pos = (629,0);
},
{
name = top;
pos = (349,679);
}
);
hints = (
{
horizontal = 1;
origin = (0,7);
target = up;
type = BottomGhost;
},
{
horizontal = 1;
origin = (0,1);
target = (1,2);
type = Stem;
},
{
horizontal = 1;
origin = (0,6);
target = down;
type = TopGhost;
},
{
horizontal = 1;
origin = (2,10);
target = (2,7);
type = Stem;
},
{
horizontal = 1;
origin = (2,10);
target = (2,3);
type = Stem;
},
{
origin = (2,7);
target = (2,6);
type = Stem;
},
{
origin = (2,0);
target = (2,13);
type = Stem;
}
);
shapes = (
{
closed = 1;
nodes = (
(193,0,l),
(234,121,l),
(479,121,l),
(520,0,l),
(710,0,l),
(435,680,l),
(278,680,l),
(3,0,l)
);
},
{
closed = 1;
nodes = (
(356,482,l),
(429,263,l),
(282,263,l)
);
},
{
closed = 1;
nodes = (
(406,946,l),
(406,902,o),
(392,854,o),
(347,854,cs),
(303,854,o),
(288,902,o),
(288,946,c),
(183,946,l),
(183,814,o),
(254,752,o),
(348,752,cs),
(440,752,o),
(512,813,o),
(512,946,c)
);
}
);
};
layerId = "20FD933E-5CCA-4ADC-839D-1BAE82A4B007";
shapes = (
{
ref = A;
},
{
pos = (106,5);
ref = brevecomb;
}
);
width = 713;
}
);
unicode = 258;
},
{
color = 10;
glyphname = Acircumflex;
kernLeft = A;
kernRight = A;
lastChange = "2024-02-02 14:59:17 +0000";
layers = (
{
background = {
anchors = (
{
name = bottom;
pos = (300,0);
},
{
name = ogonek;
pos = (581,-1);
},
{
name = top;
pos = (308,680);
}
);
hints = (
{
horizontal = 1;
origin = (0,7);
target = up;
type = BottomGhost;
},
{
horizontal = 1;
origin = (0,1);
target = (1,2);
type = Stem;
},
{
horizontal = 1;
origin = (0,6);
target = down;
type = TopGhost;
},
{
horizontal = 1;
origin = (2,7);
target = (2,6);
type = Stem;
},
{
horizontal = 1;
place = (817,45);
type = Stem;
}
);
shapes = (
{
closed = 1;
nodes = (
(86,0,l),
(159.28,185,l),
(458.05,185,l),
(531,0,l),
(607,0,l),
(328,680,l),
(290,680,l),
(10,0,l)
);
},
{
closed = 1;
nodes = (
(309,563,l),
(432.42,250,l),
(185.02,250,l)
);
},
{
closed = 1;
nodes = (
(236,729,l),
(317,828,l),
(299,828,l),
(380,729,l),
(451,729,l),
(341,862,l),
(275,862,l),
(165,729,l)
);
}
);
};
layerId = m01;
shapes = (
{
ref = A;
},
{
pos = (155,-21);
ref = circumflexcomb;
}
);
width = 617;
},
{
associatedMasterId = m01;
layerId = "FC018DF5-730F-4627-90E7-3D8C748C00D3";
name = Bold;
shapes = (
{
ref = A;
},
{
pos = (155,-21);
ref = circumflexcomb;
}
);
width = 617;
},
{
background = {
anchors = (
{
name = bottom;
pos = (343,0);
},
{
name = ogonek;
pos = (617,0);
},
{
name = top;
pos = (339,679);
}
);
hints = (
{
horizontal = 1;
origin = (0,7);
target = up;
type = BottomGhost;
},
{
horizontal = 1;
origin = (0,1);
target = (1,2);
type = Stem;
},
{
horizontal = 1;
origin = (0,6);
target = down;
type = TopGhost;
},
{
horizontal = 1;
origin = (2,7);
target = (2,6);
type = Stem;
},
{
horizontal = 1;
place = (830,78);
type = Stem;
},
{
origin = (2,7);
target = (2,4);
type = Stem;
}
);
shapes = (
{
closed = 1;
nodes = (
(166,0,l),
(215,137,l),
(474,137,l),
(523,0,l),
(684,0,l),
(408,680,l),
(281,680,l),
(5,0,l)
);
},
{
closed = 1;
nodes = (
(344,502,l),
(430,260,l),
(258,260,l)
);
},
{
closed = 1;
nodes = (
(264,719,l),
(359,860,l),
(319,860,l),
(414,719,l),
(526,719,l),
(398,908,l),
(280,908,l),
(152,719,l)
);
}
);
};
layerId = "B86D9C3C-D3FC-40C7-BC9B-EF4509240B31";
shapes = (
{
ref = A;
},
{
pos = (134,-1);
ref = circumflexcomb;
}
);
width = 689;
},
{
background = {
anchors = (
{
name = bottom;
pos = (357,0);
},
{
name = ogonek;
pos = (629,0);
},
{
name = top;
pos = (349,679);
}
);
hints = (
{
horizontal = 1;
origin = (0,7);
target = up;
type = BottomGhost;
},
{
horizontal = 1;
origin = (0,1);
target = (1,2);
type = Stem;
},
{
horizontal = 1;
origin = (0,6);
target = down;
type = TopGhost;
},
{
horizontal = 1;
origin = (2,7);
target = (2,6);
type = Stem;
},
{
horizontal = 1;
place = (834,90);
type = Stem;
},
{
origin = (2,7);
target = (2,4);
type = Stem;
}
);
shapes = (
{
closed = 1;
nodes = (
(193,0,l),
(234,121,l),
(479,121,l),
(520,0,l),
(710,0,l),
(435,680,l),
(278,680,l),
(3,0,l)
);
},
{
closed = 1;
nodes = (
(356,482,l),
(429,263,l),
(282,263,l)
);
},
{
closed = 1;
nodes = (
(273,716,l),
(373,871,l),
(326,871,l),
(425,716,l),
(551,716,l),
(417,924,l),
(282,924,l),
(148,716,l)
);
}
);
};
layerId = "20FD933E-5CCA-4ADC-839D-1BAE82A4B007";
shapes = (
{
ref = A;
},
{
pos = (127,6);
ref = circumflexcomb;
}
);
width = 713;
}
);
unicode = 194;
},
{
color = 10;
glyphname = Adieresis;
kernLeft = A;
kernRight = A;
lastChange = "2024-02-02 14:59:17 +0000";
layers = (
{
background = {
anchors = (
{
name = bottom;
pos = (300,0);
},
{
name = ogonek;
pos = (581,-1);
},
{
name = top;
pos = (308,680);
}
);
hints = (
{
horizontal = 1;
origin = (0,7);
target = up;
type = BottomGhost;
},
{
horizontal = 1;
origin = (0,1);
target = (1,2);
type = Stem;
},
{
horizontal = 1;
origin = (0,6);
target = down;
type = TopGhost;
},
{
horizontal = 1;
origin = (3,11);
target = (3,5);
type = Stem;
},
{
origin = (3,8);
target = (3,2);
type = Stem;
},
{
origin = (2,8);
target = (2,2);
type = Stem;
}
);
shapes = (
{
closed = 1;
nodes = (
(86,0,l),
(159.28,185,l),
(458.05,185,l),
(531,0,l),
(607,0,l),
(328,680,l),
(290,680,l),
(10,0,l)
);
},
{
closed = 1;
nodes = (
(309,563,l),
(432.42,250,l),
(185.02,250,l)
);
},
{
closed = 1;
nodes = (
(410,733,o),
(430,752,o),
(430,778,cs),
(430,803,o),
(410,822,o),
(385,822,cs),
(360,822,o),
(341,803,o),
(341,778,cs),
(341,752,o),
(360,733,o),
(385,733,cs)
);
},
{
closed = 1;
nodes = (
(248,733,o),
(268,752,o),
(268,778,cs),
(268,803,o),
(248,822,o),
(223,822,cs),
(198,822,o),
(179,803,o),
(179,778,cs),
(179,752,o),
(198,733,o),
(223,733,cs)
);
}
);
};
layerId = m01;
shapes = (
{
ref = A;
},
{
pos = (73,-17);
ref = dieresiscomb;
}
);
width = 617;
},
{
associatedMasterId = m01;
layerId = "FC018DF5-730F-4627-90E7-3D8C748C00D3";
name = Bold;
shapes = (
{
ref = A;
},
{
pos = (73,-17);
ref = dieresiscomb;
}
);
width = 617;
},
{
background = {
anchors = (
{
name = bottom;
pos = (343,0);
},
{
name = ogonek;
pos = (617,0);
},
{
name = top;
pos = (339,679);
}
);
hints = (
{
horizontal = 1;
origin = (0,7);
target = up;
type = BottomGhost;
},
{
horizontal = 1;
origin = (0,1);
target = (1,2);
type = Stem;
},
{
horizontal = 1;
origin = (0,6);
target = down;
type = TopGhost;
},
{
horizontal = 1;
origin = (3,11);
target = (3,5);
type = Stem;
},
{
origin = (3,8);
target = (3,2);
type = Stem;
},
{
origin = (2,8);
target = (2,2);
type = Stem;
}
);
shapes = (
{
closed = 1;
nodes = (
(166,0,l),
(215,137,l),
(474,137,l),
(523,0,l),
(684,0,l),
(408,680,l),
(281,680,l),
(5,0,l)
);
},
{
closed = 1;
nodes = (
(344,502,l),
(430,260,l),
(258,260,l)
);
},
{
closed = 1;
nodes = (
(494,733,o),
(530,769,o),
(530,812,cs),
(530,856,o),
(494,891,o),
(451,891,cs),
(407,891,o),
(372,856,o),
(372,812,cs),
(372,769,o),
(407,733,o),
(451,733,cs)
);
},
{
closed = 1;
nodes = (
(252,733,o),
(288,769,o),
(288,812,cs),
(288,856,o),
(252,891,o),
(209,891,cs),
(165,891,o),
(130,856,o),
(130,812,cs),
(130,769,o),
(165,733,o),
(209,733,cs)
);
}
);
};
layerId = "B86D9C3C-D3FC-40C7-BC9B-EF4509240B31";
shapes = (
{
ref = A;
},
{
pos = (59,-36);
ref = dieresiscomb;
}
);
width = 689;
},
{
background = {
anchors = (
{
name = bottom;
pos = (357,0);
},
{
name = ogonek;
pos = (629,0);
},
{
name = top;
pos = (349,679);
}
);
hints = (
{
horizontal = 1;
origin = (0,7);
target = up;
type = BottomGhost;
},
{
horizontal = 1;
origin = (0,1);
target = (1,2);
type = Stem;
},
{
horizontal = 1;
origin = (0,6);
target = down;
type = TopGhost;
},
{
horizontal = 1;
origin = (3,11);
target = (3,5);
type = Stem;
},
{
origin = (3,8);
target = (3,2);
type = Stem;
},
{
origin = (2,8);
target = (2,2);
type = Stem;
}
);
shapes = (
{
closed = 1;
nodes = (
(193,0,l),
(234,121,l),
(479,121,l),
(520,0,l),
(710,0,l),
(435,680,l),
(278,680,l),
(3,0,l)
);
},
{
closed = 1;
nodes = (
(356,482,l),
(429,263,l),
(282,263,l)
);
},
{
closed = 1;
nodes = (
(522,733,o),
(563,775,o),
(563,824,cs),
(563,874,o),
(522,914,o),
(473,914,cs),
(422,914,o),
(382,874,o),
(382,824,cs),
(382,775,o),
(422,733,o),
(473,733,cs)
);
},
{
closed = 1;
nodes = (
(253,733,o),
(294,775,o),
(294,824,cs),
(294,874,o),
(253,914,o),
(204,914,cs),
(154,914,o),
(113,874,o),
(113,824,cs),
(113,775,o),
(154,733,o),
(204,733,cs)
);
}
);
};
layerId = "20FD933E-5CCA-4ADC-839D-1BAE82A4B007";
shapes = (
{
ref = A;
},
{
pos = (54,-42);
ref = dieresiscomb;
}
);
width = 713;
}
);
unicode = 196;
},
{
color = 10;
glyphname = Agrave;
kernLeft = A;
kernRight = A;
lastChange = "2024-02-02 14:59:17 +0000";
layers = (
{
background = {
anchors = (
{
name = bottom;
pos = (300,0);
},
{
name = ogonek;
pos = (581,-1);
},
{
name = top;
pos = (308,680);
}
);
hints = (
{
horizontal = 1;
origin = (0,7);
target = up;
type = BottomGhost;
},
{
horizontal = 1;
origin = (0,1);
target = (1,2);
type = Stem;
},
{
horizontal = 1;
origin = (0,6);
target = down;
type = TopGhost;
},
{
horizontal = 1;
origin = (2,3);
target = (2,2);
type = Stem;
},
{
origin = (2,2);
target = (2,0);
type = Stem;
}
);
shapes = (
{
closed = 1;
nodes = (
(86,0,l),
(159.28,185,l),
(458.05,185,l),
(531,0,l),
(607,0,l),
(328,680,l),
(290,680,l),
(10,0,l)
);
},
{
closed = 1;
nodes = (
(309,563,l),
(432.42,250,l),
(185.02,250,l)
);
},
{
closed = 1;
nodes = (
(329,722,l),
(239,865,l),
(163,865,l),
(273,722,l)
);
}
);
};
layerId = m01;
shapes = (
{
ref = A;
},
{
pos = (163,-28);
ref = gravecomb;
}
);
width = 617;
},
{
associatedMasterId = m01;
layerId = "FC018DF5-730F-4627-90E7-3D8C748C00D3";
name = Bold;
shapes = (
{
ref = A;
},
{
pos = (163,-28);
ref = gravecomb;
}
);
width = 617;
},
{
background = {
anchors = (
{
name = bottom;
pos = (343,0);
},
{
name = ogonek;
pos = (617,0);
},
{
name = top;
pos = (339,679);
}
);
hints = (
{
horizontal = 1;
origin = (0,7);
target = up;
type = BottomGhost;
},
{
horizontal = 1;
origin = (0,1);
target = (1,2);
type = Stem;
},
{
horizontal = 1;
origin = (0,6);
target = down;
type = TopGhost;
},
{
horizontal = 1;
origin = (2,3);
target = (2,2);
type = Stem;
},
{
origin = (2,2);
target = (2,0);
type = Stem;
}
);
shapes = (
{
closed = 1;
nodes = (
(166,0,l),
(215,137,l),
(474,137,l),
(523,0,l),
(684,0,l),
(408,680,l),
(281,680,l),
(5,0,l)
);
},
{
closed = 1;
nodes = (
(344,502,l),
(430,260,l),
(258,260,l)
);
},
{
closed = 1;
nodes = (
(386,718,l),
(268,897,l),
(140,897,l),
(274,718,l)
);
}
);
};
layerId = "B86D9C3C-D3FC-40C7-BC9B-EF4509240B31";
shapes = (
{
ref = A;
},
{
pos = (97,-32);
ref = gravecomb;
}
);
width = 689;
},
{
background = {
anchors = (
{
name = bottom;
pos = (357,0);
},
{
name = ogonek;
pos = (629,0);
},
{
name = top;
pos = (349,679);
}
);
hints = (
{
horizontal = 1;
origin = (0,7);
target = up;
type = BottomGhost;
},
{
horizontal = 1;
origin = (0,1);
target = (1,2);
type = Stem;
},
{
horizontal = 1;
origin = (0,6);
target = down;
type = TopGhost;
},
{
horizontal = 1;
origin = (2,3);
target = (2,2);
type = Stem;
},
{
origin = (2,2);
target = (2,0);
type = Stem;
}
);
shapes = (
{
closed = 1;
nodes = (
(193,0,l),
(234,121,l),
(479,121,l),
(520,0,l),
(710,0,l),
(435,680,l),
(278,680,l),
(3,0,l)
);
},
{
closed = 1;
nodes = (
(356,482,l),
(429,263,l),
(282,263,l)
);
},
{
closed = 1;
nodes = (
(405,717,l),
(278,908,l),
(132,908,l),
(274,717,l)
);
}
);
};
layerId = "20FD933E-5CCA-4ADC-839D-1BAE82A4B007";
shapes = (
{
ref = A;
},
{
pos = (75,-33);
ref = gravecomb;
}
);
width = 713;
}
);
unicode = 192;
},
{
color = 10;
glyphname = Amacron;
lastChange = "2024-02-02 14:59:17 +0000";
layers = (
{
background = {
anchors = (
{
name = bottom;
pos = (300,0);
},
{
name = ogonek;
pos = (581,-1);
},
{
name = top;
pos = (308,680);
}
);
hints = (
{
horizontal = 1;
origin = (0,7);
target = up;
type = BottomGhost;
},
{
horizontal = 1;
origin = (0,1);
target = (1,2);
type = Stem;
},
{
horizontal = 1;
origin = (0,6);
target = down;
type = TopGhost;
},
{
horizontal = 1;
origin = (2,3);
target = (2,2);
type = Stem;
}
);
shapes = (
{
closed = 1;
nodes = (
(86,0,l),
(159.28,185,l),
(458.05,185,l),
(531,0,l),
(607,0,l),
(328,680,l),
(290,680,l),
(10,0,l)
);
},
{
closed = 1;
nodes = (
(309,563,l),
(432.42,250,l),
(185.02,250,l)
);
},
{
closed = 1;
nodes = (
(499,758,l),
(499,815,l),
(116,815,l),
(116,758,l)
);
}
);
};
layerId = m01;
shapes = (
{
ref = A;
},
{
pos = (32,8);
ref = macroncomb;
}
);
width = 617;
},
{
background = {
anchors = (
{
name = bottom;
pos = (343,0);
},
{
name = ogonek;
pos = (617,0);
},
{
name = top;
pos = (339,679);
}
);
hints = (
{
horizontal = 1;
origin = (0,7);
target = up;
type = BottomGhost;
},
{
horizontal = 1;
origin = (0,1);
target = (1,2);
type = Stem;
},
{
horizontal = 1;
origin = (0,6);
target = down;
type = TopGhost;
},
{
horizontal = 1;
origin = (2,3);
target = (2,2);
type = Stem;
},
{
origin = (2,3);
target = (2,0);
type = Stem;
}
);
shapes = (
{
closed = 1;
nodes = (
(166,0,l),
(215,137,l),
(474,137,l),
(523,0,l),
(684,0,l),
(408,680,l),
(281,680,l),
(5,0,l)
);
},
{
closed = 1;
nodes = (
(344,502,l),
(430,260,l),
(258,260,l)
);
},
{
closed = 1;
nodes = (
(542,748,l),
(542,847,l),
(131,847,l),
(131,748,l)
);
}
);
};
layerId = "B86D9C3C-D3FC-40C7-BC9B-EF4509240B31";
shapes = (
{
ref = A;
},
{
pos = (64,-2);
ref = macroncomb;
}
);
width = 689;
},
{
background = {
anchors = (
{
name = bottom;
pos = (357,0);
},
{
name = ogonek;
pos = (629,0);
},
{
name = top;
pos = (349,679);
}
);
hints = (
{
horizontal = 1;
origin = (0,7);
target = up;
type = BottomGhost;
},
{
horizontal = 1;
origin = (0,1);
target = (1,2);
type = Stem;
},
{
horizontal = 1;
origin = (0,6);
target = down;
type = TopGhost;
},
{
horizontal = 1;
origin = (2,3);
target = (2,2);
type = Stem;
},
{
origin = (2,3);
target = (2,0);
type = Stem;
}
);
shapes = (
{
closed = 1;
nodes = (
(193,0,l),
(234,121,l),
(479,121,l),
(520,0,l),
(710,0,l),
(435,680,l),
(278,680,l),
(3,0,l)
);
},
{
closed = 1;
nodes = (
(356,482,l),
(429,263,l),
(282,263,l)
);
},
{
closed = 1;
nodes = (
(557,745,l),
(557,858,l),
(136,858,l),
(136,745,l)
);
}
);
};
layerId = "20FD933E-5CCA-4ADC-839D-1BAE82A4B007";
shapes = (
{
ref = A;
},
{
pos = (74,-5);
ref = macroncomb;
}
);
width = 713;
}
);
unicode = 256;
},
{
color = 10;
glyphname = Aogonek;
lastChange = "2024-02-02 14:59:17 +0000";
layers = (
{
background = {
anchors = (
{
name = bottom;
pos = (300,0);
},
{
name = ogonek;
pos = (581,-1);
},
{
name = top;
pos = (308,680);
}
);
hints = (
{
horizontal = 1;
origin = (0,7);
target = up;
type = BottomGhost;
},
{
horizontal = 1;
origin = (0,1);
target = (1,2);
type = Stem;
},
{
horizontal = 1;
origin = (0,6);
target = down;
type = TopGhost;
},
{
horizontal = 1;
origin = (2,19);
target = (2,13);
type = Stem;
},
{
horizontal = 1;
origin = (2,19);
target = (2,6);
type = Stem;
},
{
origin = (2,16);
target = (2,9);
type = Stem;
}
);
shapes = (
{
closed = 1;
nodes = (
(86,0,l),
(159.28,185,l),
(458.05,185,l),
(531,0,l),
(607,0,l),
(328,680,l),
(290,680,l),
(10,0,l)
);
},
{
closed = 1;
nodes = (
(309,563,l),
(432.42,250,l),
(185.02,250,l)
);
},
{
closed = 1;
nodes = (
(576,-141,o),
(597,-136,o),
(610,-125,c),
(609,-70,l),
(597,-80,o),
(577,-88,o),
(569,-88,cs),
(559,-88,o),
(544,-83,o),
(544,-65,c),
(544,-47,o),
(563,-18,o),
(589,1,c),
(531,1,l),
(505,-19,o),
(487,-51,o),
(487,-83,cs),
(487,-114,o),
(519,-141,o),
(555,-141,c)
);
}
);
};
layerId = m01;
shapes = (
{
ref = A;
},
{
pos = (172,-1);
ref = ogonekcomb;
}
);
width = 617;
},
{
background = {
anchors = (
{
name = bottom;
pos = (343,0);
},
{
name = ogonek;
pos = (617,0);
},
{
name = top;
pos = (339,679);
}
);
hints = (
{
horizontal = 1;
origin = (0,7);
target = up;
type = BottomGhost;
},
{
horizontal = 1;
origin = (0,1);
target = (1,2);
type = Stem;
},
{
horizontal = 1;
origin = (0,6);
target = down;
type = TopGhost;
},
{
horizontal = 1;
origin = (2,19);
target = (2,6);
type = Stem;
},
{
horizontal = 1;
origin = (2,19);
target = (2,13);
type = Stem;
},
{
origin = (2,16);
target = (2,9);
type = Stem;
}
);
shapes = (
{
closed = 1;
nodes = (
(166,0,l),
(215,137,l),
(474,137,l),
(523,0,l),
(684,0,l),
(408,680,l),
(281,680,l),
(5,0,l)
);
},
{
closed = 1;
nodes = (
(344,502,l),
(430,260,l),
(258,260,l)
);
},
{
closed = 1;
nodes = (
(607,-247,o),
(642,-235,o),
(667,-214,c),
(666,-102,l),
(640,-127,o),
(609,-137,o),
(588,-137,cs),
(571,-137,o),
(561,-125,o),
(561,-104,cs),
(561,-81,o),
(587,-34,o),
(628,4,c),
(528,4,l),
(485,-35,o),
(461,-93,o),
(461,-138,cs),
(461,-195,o),
(500,-247,o),
(569,-247,cs)
);
}
);
};
layerId = "B86D9C3C-D3FC-40C7-BC9B-EF4509240B31";
shapes = (
{
ref = A;
},
{
pos = (181,0);
ref = ogonekcomb;
}
);
width = 689;
},
{
background = {
anchors = (
{
name = bottom;
pos = (357,0);
},
{
name = ogonek;
pos = (629,0);
},
{
name = top;
pos = (349,679);
}
);
hints = (
{
horizontal = 1;
origin = (0,7);
target = up;
type = BottomGhost;
},
{
horizontal = 1;
origin = (0,1);
target = (1,2);
type = Stem;
},
{
horizontal = 1;
origin = (0,6);
target = down;
type = TopGhost;
},
{
horizontal = 1;
origin = (2,19);
target = (2,6);
type = Stem;
},
{
horizontal = 1;
origin = (2,19);
target = (2,13);
type = Stem;
},
{
origin = (2,16);
target = (2,9);
type = Stem;
}
);
shapes = (
{
closed = 1;
nodes = (
(193,0,l),
(234,121,l),
(479,121,l),
(520,0,l),
(710,0,l),
(435,680,l),
(278,680,l),
(3,0,l)
);
},
{
closed = 1;
nodes = (
(356,482,l),
(429,263,l),
(282,263,l)
);
},
{
closed = 1;
nodes = (
(617,-283,o),
(657,-268,o),
(686,-244,c),
(685,-113,l),
(654,-143,o),
(620,-154,o),
(594,-154,cs),
(575,-154,o),
(567,-139,o),
(567,-117,c),
(567,-93,o),
(595,-40,o),
(641,5,c),
(527,5,l),
(478,-41,o),
(452,-107,o),
(452,-157,cs),
(452,-222,o),
(494,-283,o),
(574,-283,c)
);
}
);
};
layerId = "20FD933E-5CCA-4ADC-839D-1BAE82A4B007";
shapes = (
{
ref = A;
},
{
pos = (184,0);
ref = ogonekcomb;
}
);
width = 713;
}
);
unicode = 260;
},
{
color = 10;
glyphname = Aring;
kernLeft = A;
kernRight = A;
lastChange = "2024-02-02 14:59:17 +0000";
layers = (
{
background = {
anchors = (
{
name = bottom;
pos = (300,0);
},
{
name = ogonek;
pos = (581,-1);
},
{
name = top;
pos = (308,680);
}
);
hints = (
{
horizontal = 1;
origin = (0,7);
target = up;
type = BottomGhost;
},
{
horizontal = 1;
origin = (0,1);
target = (1,2);
type = Stem;
},
{
horizontal = 1;
origin = (0,6);
target = down;
type = TopGhost;
}
);
shapes = (
{
closed = 1;
nodes = (
(86,0,l),
(159.28,185,l),
(458.05,185,l),
(531,0,l),
(607,0,l),
(328,680,l),
(290,680,l),
(10,0,l)
);
},
{
closed = 1;
nodes = (
(309,563,l),
(432.42,250,l),
(185.02,250,l)
);
}
);
};
layerId = m01;
shapes = (
{
ref = A;
},
{
pos = (160,30);
ref = ringcomb;
}
);
width = 617;
},
{
associatedMasterId = m01;
layerId = "FC018DF5-730F-4627-90E7-3D8C748C00D3";
name = Bold;
shapes = (
{
ref = A;
}
);
width = 617;
},
{
background = {
anchors = (
{
name = bottom;
pos = (343,0);
},
{
name = ogonek;
pos = (617,0);
},
{
name = top;
pos = (339,679);
}
);
hints = (
{
horizontal = 1;
origin = (0,7);
target = up;
type = BottomGhost;
},
{
horizontal = 1;
origin = (0,1);
target = (1,2);
type = Stem;
},
{
horizontal = 1;
origin = (0,6);
target = down;
type = TopGhost;
}
);
shapes = (
{
closed = 1;
nodes = (
(166,0,l),
(215,137,l),
(474,137,l),
(523,0,l),
(684,0,l),
(408,680,l),
(281,680,l),
(5,0,l)
);
},
{
closed = 1;
nodes = (
(344,502,l),
(430,260,l),
(258,260,l)
);
}
);
};
layerId = "B86D9C3C-D3FC-40C7-BC9B-EF4509240B31";
shapes = (
{
ref = A;
},
{
pos = (172,210);
ref = ringcomb;
}
);
width = 689;
},
{
background = {
anchors = (
{
name = bottom;
pos = (357,0);
},
{
name = ogonek;
pos = (629,0);
},
{
name = top;
pos = (349,679);
}
);
hints = (
{
horizontal = 1;
origin = (0,7);
target = up;
type = BottomGhost;
},
{
horizontal = 1;
origin = (0,1);
target = (1,2);
type = Stem;
},
{
horizontal = 1;
origin = (0,6);
target = down;
type = TopGhost;
}
);
shapes = (
{
closed = 1;
nodes = (
(193,0,l),
(234,121,l),
(479,121,l),
(520,0,l),
(710,0,l),
(435,680,l),
(278,680,l),
(3,0,l)
);
},
{
closed = 1;
nodes = (
(356,482,l),
(429,263,l),
(282,263,l)
);
}
);
};
layerId = "20FD933E-5CCA-4ADC-839D-1BAE82A4B007";
shapes = (
{
ref = A;
},
{
pos = (163,269);
ref = ringcomb;
}
);
width = 713;
}
);
unicode = 197;
},
{
color = 10;
glyphname = Atilde;
kernLeft = A;
kernRight = A;
lastChange = "2024-02-02 14:59:17 +0000";
layers = (
{
background = {
anchors = (
{
name = bottom;
pos = (300,0);
},
{
name = ogonek;
pos = (581,-1);
},
{
name = top;
pos = (308,680);
}
);
hints = (
{
horizontal = 1;
origin = (0,7);
target = up;
type = BottomGhost;
},
{
horizontal = 1;
origin = (0,1);
target = (1,2);
type = Stem;
},
{
horizontal = 1;
origin = (0,6);
target = down;
type = TopGhost;
},
{
horizontal = 1;
origin = (2,19);
target = (2,6);
type = Stem;
},
{
horizontal = 1;
origin = (2,16);
target = (2,9);
type = Stem;
},
{
origin = (2,12);
target = (2,13);
type = Stem;
},
{
origin = (2,3);
target = (2,2);
type = Stem;
}
);
shapes = (
{
closed = 1;
nodes = (
(86,0,l),
(159.28,185,l),
(458.05,185,l),
(531,0,l),
(607,0,l),
(328,680,l),
(290,680,l),
(10,0,l)
);
},
{
closed = 1;
nodes = (
(309,563,l),
(432.42,250,l),
(185.02,250,l)
);
},
{
closed = 1;
nodes = (
(447,719,o),
(474,780,o),
(467,844,c),
(418,844,l),
(418,799,o),
(412,775,o),
(377,775,cs),
(352,775,o),
(302,855,o),
(234,855,cs),
(170,855,o),
(137,802,o),
(139,731,c),
(188,731,l),
(185,759,o),
(195,800,o),
(227,800,cs),
(260,800,o),
(311,719,o),
(375,719,cs)
);
}
);
};
layerId = m01;
shapes = (
{
ref = A;
},
{
pos = (74,1);
ref = tildecomb;
}
);
width = 617;
},
{
associatedMasterId = m01;
layerId = "FC018DF5-730F-4627-90E7-3D8C748C00D3";
name = Bold;
shapes = (
{
ref = A;
},
{
pos = (74,1);
ref = tildecomb;
}
);
width = 617;
},
{
background = {
anchors = (
{
name = bottom;
pos = (343,0);
},
{
name = ogonek;
pos = (617,0);
},
{
name = top;
pos = (339,679);
}
);
hints = (
{
horizontal = 1;
origin = (0,7);
target = up;
type = BottomGhost;
},
{
horizontal = 1;
origin = (0,1);
target = (1,2);
type = Stem;
},
{
horizontal = 1;
origin = (0,6);
target = down;
type = TopGhost;
},
{
horizontal = 1;
origin = (2,19);
target = (2,6);
type = Stem;
},
{
horizontal = 1;
origin = (2,19);
target = (2,3);
type = Stem;
},
{
horizontal = 1;
origin = (2,16);
target = (2,9);
type = Stem;
},
{
horizontal = 1;
origin = (2,12);
target = (2,9);
type = Stem;
},
{
origin = (2,12);
target = (2,13);
type = Stem;
},
{
origin = (2,3);
target = (2,2);
type = Stem;
}
);
shapes = (
{
closed = 1;
nodes = (
(166,0,l),
(215,137,l),
(474,137,l),
(523,0,l),
(684,0,l),
(408,680,l),
(281,680,l),
(5,0,l)
);
},
{
closed = 1;
nodes = (
(344,502,l),
(430,260,l),
(258,260,l)
);
},
{
closed = 1;
nodes = (
(485,722,o),
(529,780,o),
(529,865,c),
(439,865,l),
(439,824,o),
(414,822,o),
(398,822,cs),
(364,822,o),
(329,872,o),
(262,872,cs),
(182,872,o),
(141,796,o),
(141,728,c),
(226,728,l),
(226,744,o),
(237,776,o),
(268,776,cs),
(323,776,o),
(340,722,o),
(409,722,cs)
);
}
);
};
layerId = "B86D9C3C-D3FC-40C7-BC9B-EF4509240B31";
shapes = (
{
ref = A;
},
{
pos = (121,104);
ref = tildecomb;
}
);
width = 689;
},
{
background = {
anchors = (
{
name = bottom;
pos = (357,0);
},
{
name = ogonek;
pos = (629,0);
},
{
name = top;
pos = (349,679);
}
);
hints = (
{
horizontal = 1;
origin = (0,7);
target = up;
type = BottomGhost;
},
{
horizontal = 1;
origin = (0,1);
target = (1,2);
type = Stem;
},
{
horizontal = 1;
origin = (0,6);
target = down;
type = TopGhost;
},
{
horizontal = 1;
origin = (2,19);
target = (2,3);
type = Stem;
},
{
horizontal = 1;
origin = (2,19);
target = (2,6);
type = Stem;
},
{
horizontal = 1;
origin = (2,16);
target = (2,9);
type = Stem;
},
{
horizontal = 1;
origin = (2,12);
target = (2,9);
type = Stem;
},
{
origin = (2,3);
target = (2,2);
type = Stem;
}
);
shapes = (
{
closed = 1;
nodes = (
(193,0,l),
(234,121,l),
(479,121,l),
(520,0,l),
(710,0,l),
(435,680,l),
(278,680,l),
(3,0,l)
);
},
{
closed = 1;
nodes = (
(356,482,l),
(429,263,l),
(282,263,l)
);
},
{
closed = 1;
nodes = (
(498,723,o),
(548,780,o),
(550,872,c),
(446,872,l),
(446,832,o),
(415,837,o),
(405,837,cs),
(368,837,o),
(338,877,o),
(272,877,cs),
(186,877,o),
(143,794,o),
(142,727,c),
(239,727,l),
(240,739,o),
(251,768,o),
(282,768,cs),
(344,768,o),
(350,723,o),
(421,723,cs)
);
}
);
};
layerId = "20FD933E-5CCA-4ADC-839D-1BAE82A4B007";
shapes = (
{
ref = A;
},
{
pos = (136,139);
ref = tildecomb;
}
);
width = 713;
}
);
unicode = 195;
},
{
color = 6;
glyphname = AE;
kernLeft = A;
lastChange = "2024-02-02 14:53:56 +0000";
layers = (
{
background = {
shapes = (
{
closed = 1;
nodes = (
(90,0,l),
(183,175,l),
(381,175,l),
(381,0,l),
(766,0,l),
(766,67,l),
(451,65,l),
(451,306,l),
(756,308,l),
(756,373,l),
(451,371,l),
(451,614,l),
(766,616,l),
(766,680,l),
(369,680,l),
(10,0,l)
);
},
{
closed = 1;
nodes = (
(374,541,l),
(381,582,l),
(381,240,l),
(217,240,l)
);
}
);
};
hints = (
{
horizontal = 1;
place = (0,66);
type = Stem;
},
{
horizontal = 1;
origin = (0,1);
target = (1,3);
type = Stem;
},
{
horizontal = 1;
place = (307,65);
type = Stem;
},
{
horizontal = 1;
place = (615,65);
type = Stem;
},
{
origin = (0,3);
target = (0,6);
type = Stem;
}
);
layerId = m01;
shapes = (
{
closed = 1;
nodes = (
(90,0,l),
(183,175,l),
(381,175,l),
(381,0,l),
(766,0,l),
(766,67,l),
(451,65,l),
(451,306,l),
(756,308,l),
(756,373,l),
(451,371,l),
(451,614,l),
(766,616,l),
(766,680,l),
(369,680,l),
(10,0,l)
);
},
{
closed = 1;
nodes = (
(374,541,l),
(381,582,l),
(381,240,l),
(217,240,l)
);
}
);
width = 826;
},
{
background = {
shapes = (
{
closed = 1;
nodes = (
(166,0,l),
(215,137,l),
(364,137,l),
(364,0,l),
(803,0,l),
(803,136,l),
(514,136,l),
(514,273,l),
(793,273,l),
(793,409,l),
(514,409,l),
(514,544,l),
(803,544,l),
(803,680,l),
(281,680,l),
(5,0,l)
);
},
{
closed = 1;
nodes = (
(349,495,l),
(364,546,l),
(364,260,l),
(258,260,l)
);
}
);
};
hints = (
{
horizontal = 1;
origin = (0,15);
target = (0,6);
type = Stem;
},
{
horizontal = 1;
origin = (0,7);
target = (0,10);
type = Stem;
},
{
horizontal = 1;
origin = (0,14);
target = (0,11);
type = Stem;
},
{
horizontal = 1;
origin = (0,1);
target = (1,3);
type = Stem;
},
{
origin = (0,3);
target = (0,6);
type = Stem;
}
);
layerId = "B86D9C3C-D3FC-40C7-BC9B-EF4509240B31";
shapes = (
{
closed = 1;
nodes = (
(166,0,l),
(215,137,l),
(364,137,l),
(364,0,l),
(803,0,l),
(803,136,l),
(514,136,l),
(514,273,l),
(793,273,l),
(793,409,l),
(514,409,l),
(514,544,l),
(803,544,l),
(803,680,l),
(281,680,l),
(5,0,l)
);
},
{
closed = 1;
nodes = (
(349,495,l),
(364,546,l),
(364,260,l),
(258,260,l)
);
}
);
width = 838;
},
{
background = {
shapes = (
{
closed = 1;
nodes = (
(191,0,l),
(226,124,l),
(358,124,l),
(358,0,l),
(815,0,l),
(815,159,l),
(535,160,l),
(535,262,l),
(805,261,l),
(805,421,l),
(535,422,l),
(535,521,l),
(815,520,l),
(815,680,l),
(252,680,l),
(3,0,l)
);
},
{
closed = 1;
nodes = (
(341,480,l),
(358,534,l),
(358,267,l),
(272,267,l)
);
}
);
};
hints = (
{
horizontal = 1;
place = (261.5,160);
type = Stem;
},
{
horizontal = 1;
place = (520.5,159.5);
type = Stem;
},
{
horizontal = 1;
origin = (0,1);
target = (1,3);
type = Stem;
},
{
horizontal = 1;
origin = (0,14);
target = (1,1);
type = Stem;
},
{
origin = (0,3);
target = (0,6);
type = Stem;
}
);
layerId = "20FD933E-5CCA-4ADC-839D-1BAE82A4B007";
shapes = (
{
closed = 1;
nodes = (
(191,0,l),
(226,124,l),
(358,124,l),
(358,0,l),
(815,0,l),
(815,159,l),
(535,160,l),
(535,262,l),
(805,261,l),
(805,421,l),
(535,422,l),
(535,521,l),
(815,520,l),
(815,680,l),
(252,680,l),
(3,0,l)
);
},
{
closed = 1;
nodes = (
(341,480,l),
(358,534,l),
(358,267,l),
(272,267,l)
);
}
);
width = 842;
}
);
note = AE;
unicode = 198;
},
{
color = 6;
glyphname = B;
lastChange = "2024-02-02 14:53:56 +0000";
layers = (
{
background = {
shapes = (
{
closed = 1;
nodes = (
(283,0,ls),
(423,0,o),
(519,76,o),
(519,189.5,cs),
(519,280,o),
(474,352,o),
(389,375,c),
(448,401,o),
(469,461,o),
(469,521,cs),
(469,618,o),
(388,680,o),
(259,680,cs),
(75,680,l),
(75,0,l)
);
},
{
closed = 1;
nodes = (
(145,331,l),
(314,331,ls),
(387,331,o),
(449,276,o),
(449,203,cs),
(449,122,o),
(390,67,o),
(303,67,cs),
(145,67,l)
);
},
{
closed = 1;
nodes = (
(145,613,l),
(259,613,ls),
(352.33,613,o),
(399,578.67,o),
(399,510,cs),
(399,432,o),
(347,401,o),
(279,401,cs),
(145,401,l)
);
}
);
};
hints = (
{
horizontal = 1;
origin = (0,14);
target = (1,8);
type = Stem;
},
{
horizontal = 1;
origin = (1,0);
target = (2,8);
type = Stem;
},
{
horizontal = 1;
origin = (0,13);
target = (2,0);
type = Stem;
},
{
origin = (0,14);
target = (1,8);
type = Stem;
},
{
origin = (1,4);
target = (0,3);
type = Stem;
},
{
origin = (2,4);
target = (0,9);
type = Stem;
}
);
layerId = m01;
shapes = (
{
closed = 1;
nodes = (
(283,0,ls),
(423,0,o),
(519,76,o),
(519,189.5,cs),
(519,280,o),
(474,352,o),
(389,375,c),
(448,401,o),
(469,461,o),
(469,521,cs),
(469,618,o),
(388,680,o),
(259,680,cs),
(75,680,l),
(75,0,l)
);
},
{
closed = 1;
nodes = (
(145,331,l),
(314,331,ls),
(387,331,o),
(449,276,o),
(449,203,cs),
(449,122,o),
(390,67,o),
(303,67,cs),
(145,67,l)
);
},
{
closed = 1;
nodes = (
(145,613,l),
(259,613,ls),
(352.33,613,o),
(399,578.67,o),
(399,510,cs),
(399,432,o),
(347,401,o),
(279,401,cs),
(145,401,l)
);
}
);
width = 539;
},
{
background = {
shapes = (
{
closed = 1;
nodes = (
(355,0,ls),
(485,0,o),
(561,78,o),
(561,195,cs),
(561,287,o),
(499,348,o),
(423,366,c),
(474,389,o),
(504,441,o),
(504,510,cs),
(504,603,o),
(430,680,o),
(314,680,cs),
(60,680,l),
(60,0,l)
);
},
{
closed = 1;
nodes = (
(210,281,l),
(325,281,ls),
(370,281,o),
(408,243,o),
(408,199,cs),
(408,154,o),
(370,117,o),
(325,117,cs),
(210,117,l)
);
},
{
closed = 1;
nodes = (
(210,562,l),
(282,562,ls),
(325,562,o),
(361,527,o),
(361,483,cs),
(361,440,o),
(325,404,o),
(282,404,cs),
(210,404,l)
);
}
);
};
hints = (
{
horizontal = 1;
origin = (0,14);
target = (1,8);
type = Stem;
},
{
horizontal = 1;
origin = (1,0);
target = (2,8);
type = Stem;
},
{
horizontal = 1;
origin = (0,13);
target = (2,0);
type = Stem;
},
{
origin = (0,14);
target = (1,8);
type = Stem;
},
{
origin = (1,4);
target = (0,3);
type = Stem;
},
{
origin = (2,4);
target = (0,9);
type = Stem;
}
);
layerId = "B86D9C3C-D3FC-40C7-BC9B-EF4509240B31";
shapes = (
{
closed = 1;
nodes = (
(355,0,ls),
(485,0,o),
(561,78,o),
(561,195,cs),
(561,287,o),
(499,348,o),
(423,366,c),
(474,389,o),
(504,441,o),
(504,510,cs),
(504,603,o),
(430,680,o),
(314,680,cs),
(60,680,l),
(60,0,l)
);
},
{
closed = 1;
nodes = (
(210,281,l),
(325,281,ls),
(370,281,o),
(408,243,o),
(408,199,cs),
(408,154,o),
(370,117,o),
(325,117,cs),
(210,117,l)
);
},
{
closed = 1;
nodes = (
(210,562,l),
(282,562,ls),
(325,562,o),
(361,527,o),
(361,483,cs),
(361,440,o),
(325,404,o),
(282,404,cs),
(210,404,l)
);
}
);
width = 581;
},
{
background = {
shapes = (
{
closed = 1;
nodes = (
(379,0,ls),
(506,0,o),
(575,79,o),
(575,197,cs),
(575,289,o),
(507,347,o),
(434,363,c),
(483,385,o),
(516,434,o),
(516,506,cs),
(516,598,o),
(444,680,o),
(332,680,cs),
(55,680,l),
(55,0,l)
);
},
{
closed = 1;
nodes = (
(232,264,l),
(329,264,ls),
(364,264,o),
(394,232,o),
(394,198,cs),
(394,165,o),
(363,134,o),
(332,134,cs),
(232,134,l)
);
},
{
closed = 1;
nodes = (
(232,545,l),
(290,545,ls),
(316,545,o),
(348,510,o),
(348,474,cs),
(348,443,o),
(318,405,o),
(283,405,cs),
(232,405,l)
);
}
);
};
hints = (
{
horizontal = 1;
origin = (0,14);
target = (1,8);
type = Stem;
},
{
horizontal = 1;
origin = (1,0);
target = (2,8);
type = Stem;
},
{
horizontal = 1;
origin = (0,13);
target = (2,0);
type = Stem;
},
{
origin = (0,14);
target = (1,8);
type = Stem;
},
{
origin = (1,4);
target = (0,3);
type = Stem;
},
{
origin = (2,4);
target = (0,9);
type = Stem;
}
);
layerId = "20FD933E-5CCA-4ADC-839D-1BAE82A4B007";
shapes = (
{
closed = 1;
nodes = (
(379,0,ls),
(506,0,o),
(575,79,o),
(575,197,cs),
(575,289,o),
(507,347,o),
(434,363,c),
(483,385,o),
(516,434,o),
(516,506,cs),
(516,598,o),
(444,680,o),
(332,680,cs),
(55,680,l),
(55,0,l)
);
},
{
closed = 1;
nodes = (
(232,264,l),
(329,264,ls),
(364,264,o),
(394,232,o),
(394,198,cs),
(394,165,o),
(363,134,o),
(332,134,cs),
(232,134,l)
);
},
{
closed = 1;
nodes = (
(232,545,l),
(290,545,ls),
(316,545,o),
(348,510,o),
(348,474,cs),
(348,443,o),
(318,405,o),
(283,405,cs),
(232,405,l)
);
}
);
width = 595;
}
);
note = B;
unicode = 66;
},
{
color = 6;
glyphname = C;
kernLeft = COG;
kernRight = DOC;
lastChange = "2024-02-02 15:08:05 +0000";
layers = (
{
anchors = (
{
name = bottom;
pos = (390,-20);
},
{
name = top;
pos = (370,680);
}
);
background = {
anchors = (
{
name = top;
pos = (382,687);
}
);
shapes = (
{
closed = 1;
nodes = (
(524,-10,o),
(649,78,o),
(699,208,c),
(622,208,l),
(577,122,o),
(488,62,o),
(384,62,cs),
(235,62,o),
(115,186,o),
(115,339,cs),
(115,515,o),
(262,617,o),
(374,617,cs),
(477,617,o),
(568,571,o),
(621,473,c),
(698,473,l),
(647,602,o),
(525,689,o),
(384,689,cs),
(188,689,o),
(45,525,o),
(45,339,cs),
(45,149,o),
(194,-10,o),
(384,-10,cs)
);
}
);
};
hints = (
{
horizontal = 1;
origin = (0,25);
target = (0,6);
type = Stem;
},
{
horizontal = 1;
origin = (0,19);
target = (0,12);
type = Stem;
},
{
origin = (0,22);
target = (0,9);
type = Stem;
}
);
layerId = m01;
shapes = (
{
closed = 1;
nodes = (
(524,-10,o),
(649,78,o),
(699,208,c),
(622,208,l),
(577,122,o),
(488,62,o),
(384,62,cs),
(235,62,o),
(115,186,o),
(115,339,cs),
(115,515,o),
(262,617,o),
(374,617,cs),
(477,617,o),
(568,571,o),
(621,473,c),
(698,473,l),
(647,602,o),
(525,689,o),
(384,689,cs),
(188,689,o),
(45,525,o),
(45,339,cs),
(45,149,o),
(194,-10,o),
(384,-10,cs)
);
}
);
width = 739;
},
{
anchors = (
{
name = bottom;
pos = (397,14);
},
{
name = top;
pos = (377,680);
}
);
background = {
anchors = (
{
name = top;
pos = (386,689);
}
);
shapes = (
{
closed = 1;
nodes = (
(540,-10,o),
(672,91,o),
(718,231,c),
(551,231,l),
(523,171,o),
(455,130,o),
(385,130,cs),
(275,130,o),
(187,224,o),
(187,340,cs),
(187,455,o),
(275,550,o),
(385,550,cs),
(454,550,o),
(522,512,o),
(550,451,c),
(717,451,l),
(671,590,o),
(540,690,o),
(385,690,cs),
(192,690,o),
(35,533,o),
(35,340,cs),
(35,147,o),
(192,-10,o),
(385,-10,cs)
);
}
);
};
hints = (
{
horizontal = 1;
origin = (0,25);
target = (0,6);
type = Stem;
},
{
horizontal = 1;
origin = (0,19);
target = (0,12);
type = Stem;
},
{
origin = (0,22);
target = (0,9);
type = Stem;
}
);
layerId = "B86D9C3C-D3FC-40C7-BC9B-EF4509240B31";
shapes = (
{
closed = 1;
nodes = (
(540,-10,o),
(672,91,o),
(718,231,c),
(551,231,l),
(523,171,o),
(455,130,o),
(385,130,cs),
(275,130,o),
(187,224,o),
(187,340,cs),
(187,455,o),
(275,550,o),
(385,550,cs),
(454,550,o),
(522,512,o),
(550,451,c),
(717,451,l),
(671,590,o),
(540,690,o),
(385,690,cs),
(192,690,o),
(35,533,o),
(35,340,cs),
(35,147,o),
(192,-10,o),
(385,-10,cs)
);
}
);
width = 753;
},
{
anchors = (
{
name = bottom;
pos = (399,25);
},
{
name = top;
pos = (379,680);
}
);
background = {
anchors = (
{
name = top;
pos = (387,690);
}
);
shapes = (
{
closed = 1;
nodes = (
(545,-10,o),
(680,95,o),
(724,239,c),
(527,239,l),
(505,187,o),
(444,153,o),
(385,153,cs),
(288,153,o),
(211,237,o),
(211,340,cs),
(211,435,o),
(279,528,o),
(389,528,cs),
(446,528,o),
(507,492,o),
(526,444,c),
(723,444,l),
(679,586,o),
(545,690,o),
(385,690,cs),
(193,690,o),
(32,536,o),
(32,340,cs),
(32,146,o),
(191,-10,o),
(385,-10,cs)
);
}
);
};
hints = (
{
horizontal = 1;
origin = (0,25);
target = (0,6);
type = Stem;
},
{
horizontal = 1;
origin = (0,12);
target = (0,19);
type = Stem;
},
{
origin = (0,22);
target = (0,9);
type = Stem;
}
);
layerId = "20FD933E-5CCA-4ADC-839D-1BAE82A4B007";
shapes = (
{
closed = 1;
nodes = (
(545,-10,o),
(680,95,o),
(724,239,c),
(527,239,l),
(505,187,o),
(444,153,o),
(385,153,cs),
(288,153,o),
(211,237,o),
(211,340,cs),
(211,435,o),
(279,528,o),
(389,528,cs),
(446,528,o),
(507,492,o),
(526,444,c),
(723,444,l),
(679,586,o),
(545,690,o),
(385,690,cs),
(193,690,o),
(32,536,o),
(32,340,cs),
(32,146,o),
(191,-10,o),
(385,-10,cs)
);
}
);
width = 758;
}
);
note = C;
unicode = 67;
},
{
color = 10;
glyphname = Cacute;
lastChange = "2024-02-02 15:08:01 +0000";
layers = (
{
background = {
anchors = (
{
name = top;
pos = (382,687);
}
);
hints = (
{
horizontal = 1;
origin = (0,25);
target = (0,6);
type = Stem;
},
{
horizontal = 1;
origin = (0,19);
target = (0,12);
type = Stem;
},
{
origin = (0,22);
target = (0,9);
type = Stem;
},
{
horizontal = 1;
origin = (1,3);
target = (1,2);
type = Stem;
},
{
origin = (1,3);
target = (1,1);
type = Stem;
}
);
shapes = (
{
closed = 1;
nodes = (
(524,-10,o),
(649,78,o),
(699,208,c),
(622,208,l),
(577,122,o),
(488,62,o),
(384,62,cs),
(235,62,o),
(115,186,o),
(115,339,cs),
(115,515,o),
(262,617,o),
(374,617,cs),
(477,617,o),
(568,571,o),
(621,473,c),
(698,473,l),
(647,602,o),
(525,689,o),
(384,689,cs),
(188,689,o),
(45,525,o),
(45,339,cs),
(45,149,o),
(194,-10,o),
(384,-10,cs)
);
},
{
closed = 1;
nodes = (
(407,733,l),
(507,867,l),
(431,867,l),
(351,733,l)
);
}
);
};
layerId = m01;
shapes = (
{
ref = C;
},
{
pos = (319,-24);
ref = acutecomb;
}
);
width = 739;
},
{
background = {
anchors = (
{
name = top;
pos = (386,689);
}
);
hints = (
{
horizontal = 1;
origin = (0,25);
target = (0,6);
type = Stem;
},
{
horizontal = 1;
origin = (0,19);
target = (0,12);
type = Stem;
},
{
origin = (0,22);
target = (0,9);
type = Stem;
},
{
horizontal = 1;
origin = (1,3);
target = (1,2);
type = Stem;
},
{
origin = (1,3);
target = (1,1);
type = Stem;
}
);
shapes = (
{
closed = 1;
nodes = (
(540,-10,o),
(672,91,o),
(718,231,c),
(551,231,l),
(523,171,o),
(455,130,o),
(385,130,cs),
(275,130,o),
(187,224,o),
(187,340,cs),
(187,455,o),
(275,550,o),
(385,550,cs),
(454,550,o),
(522,512,o),
(550,451,c),
(717,451,l),
(671,590,o),
(540,690,o),
(385,690,cs),
(192,690,o),
(35,533,o),
(35,340,cs),
(35,147,o),
(192,-10,o),
(385,-10,cs)
);
},
{
closed = 1;
nodes = (
(443,732,l),
(577,911,l),
(449,911,l),
(331,732,l)
);
}
);
};
layerId = "B86D9C3C-D3FC-40C7-BC9B-EF4509240B31";
shapes = (
{
ref = C;
},
{
pos = (279,-27);
ref = acutecomb;
}
);
width = 753;
},
{
background = {
anchors = (
{
name = top;
pos = (387,690);
}
);
hints = (
{
horizontal = 1;
origin = (0,25);
target = (0,6);
type = Stem;
},
{
horizontal = 1;
origin = (0,12);
target = (0,19);
type = Stem;
},
{
origin = (0,22);
target = (0,9);
type = Stem;
},
{
horizontal = 1;
origin = (1,3);
target = (1,2);
type = Stem;
},
{
origin = (1,3);
target = (1,1);
type = Stem;
}
);
shapes = (
{
closed = 1;
nodes = (
(545,-10,o),
(680,95,o),
(724,239,c),
(527,239,l),
(505,187,o),
(444,153,o),
(385,153,cs),
(288,153,o),
(211,237,o),
(211,340,cs),
(211,435,o),
(279,528,o),
(389,528,cs),
(446,528,o),
(507,492,o),
(526,444,c),
(723,444,l),
(679,586,o),
(545,690,o),
(385,690,cs),
(193,690,o),
(32,536,o),
(32,340,cs),
(32,146,o),
(191,-10,o),
(385,-10,cs)
);
},
{
closed = 1;
nodes = (
(455,732,l),
(601,926,l),
(455,926,l),
(325,732,l)
);
}
);
};
layerId = "20FD933E-5CCA-4ADC-839D-1BAE82A4B007";
shapes = (
{
ref = C;
},
{
pos = (265,-28);
ref = acutecomb;
}
);
width = 758;
}
);
unicode = 262;
},
{
color = 10;
glyphname = Ccaron;
lastChange = "2024-02-02 15:08:01 +0000";
layers = (
{
background = {
anchors = (
{
name = top;
pos = (382,687);
}
);
hints = (
{
horizontal = 1;
origin = (0,25);
target = (0,6);
type = Stem;
},
{
horizontal = 1;
origin = (0,19);
target = (0,12);
type = Stem;
},
{
origin = (0,22);
target = (0,9);
type = Stem;
},
{
horizontal = 1;
origin = (1,7);
target = (1,6);
type = Stem;
}
);
shapes = (
{
closed = 1;
nodes = (
(524,-10,o),
(649,78,o),
(699,208,c),
(622,208,l),
(577,122,o),
(488,62,o),
(384,62,cs),
(235,62,o),
(115,186,o),
(115,339,cs),
(115,515,o),
(262,617,o),
(374,617,cs),
(477,617,o),
(568,571,o),
(621,473,c),
(698,473,l),
(647,602,o),
(525,689,o),
(384,689,cs),
(188,689,o),
(45,525,o),
(45,339,cs),
(45,149,o),
(194,-10,o),
(384,-10,cs)
);
},
{
closed = 1;
nodes = (
(412,736,l),
(522,869,l),
(451,869,l),
(370,760,l),
(388,760,l),
(307,869,l),
(236,869,l),
(346,736,l)
);
}
);
};
layerId = m01;
shapes = (
{
ref = C;
},
{
pos = (194,-22);
ref = caroncomb;
}
);
width = 739;
},
{
background = {
anchors = (
{
name = top;
pos = (386,689);
}
);
hints = (
{
horizontal = 1;
origin = (0,25);
target = (0,6);
type = Stem;
},
{
horizontal = 1;
origin = (0,19);
target = (0,12);
type = Stem;
},
{
origin = (0,22);
target = (0,9);
type = Stem;
},
{
horizontal = 1;
origin = (1,7);
target = (1,6);
type = Stem;
},
{
origin = (1,6);
target = (1,1);
type = Stem;
}
);
shapes = (
{
closed = 1;
nodes = (
(540,-10,o),
(672,91,o),
(718,231,c),
(551,231,l),
(523,171,o),
(455,130,o),
(385,130,cs),
(275,130,o),
(187,224,o),
(187,340,cs),
(187,455,o),
(275,550,o),
(385,550,cs),
(454,550,o),
(522,512,o),
(550,451,c),
(717,451,l),
(671,590,o),
(540,690,o),
(385,690,cs),
(192,690,o),
(35,533,o),
(35,340,cs),
(35,147,o),
(192,-10,o),
(385,-10,cs)
);
},
{
closed = 1;
nodes = (
(441,734,l),
(569,913,l),
(457,913,l),
(359,752,l),
(405,752,l),
(307,913,l),
(195,913,l),
(323,734,l)
);
}
);
};
layerId = "B86D9C3C-D3FC-40C7-BC9B-EF4509240B31";
shapes = (
{
ref = C;
},
{
pos = (146,-26);
ref = caroncomb;
}
);
width = 753;
},
{
background = {
anchors = (
{
name = top;
pos = (387,690);
}
);
hints = (
{
horizontal = 1;
origin = (0,25);
target = (0,6);
type = Stem;
},
{
horizontal = 1;
origin = (0,12);
target = (0,19);
type = Stem;
},
{
origin = (0,22);
target = (0,9);
type = Stem;
},
{
horizontal = 1;
origin = (1,7);
target = (1,6);
type = Stem;
},
{
origin = (1,6);
target = (1,1);
type = Stem;
}
);
shapes = (
{
closed = 1;
nodes = (
(545,-10,o),
(680,95,o),
(724,239,c),
(527,239,l),
(505,187,o),
(444,153,o),
(385,153,cs),
(288,153,o),
(211,237,o),
(211,340,cs),
(211,435,o),
(279,528,o),
(389,528,cs),
(446,528,o),
(507,492,o),
(526,444,c),
(723,444,l),
(679,586,o),
(545,690,o),
(385,690,cs),
(193,690,o),
(32,536,o),
(32,340,cs),
(32,146,o),
(191,-10,o),
(385,-10,cs)
);
},
{
closed = 1;
nodes = (
(451,733,l),
(585,927,l),
(459,927,l),
(355,749,l),
(411,749,l),
(307,927,l),
(181,927,l),
(315,733,l)
);
}
);
};
layerId = "20FD933E-5CCA-4ADC-839D-1BAE82A4B007";
shapes = (
{
ref = C;
},
{
pos = (130,-27);
ref = caroncomb;
}
);
width = 758;
}
);
unicode = 268;
},
{
color = 10;
glyphname = Ccedilla;
kernLeft = COG;
kernRight = DOC;
lastChange = "2024-02-02 15:08:05 +0000";
layers = (
{
background = {
anchors = (
{
name = top;
pos = (382,687);
}
);
hints = (
{
horizontal = 1;
origin = (0,25);
target = (0,6);
type = Stem;
},
{
horizontal = 1;
origin = (0,19);
target = (0,12);
type = Stem;
},
{
origin = (0,22);
target = (0,9);
type = Stem;
},
{
horizontal = 1;
origin = (1,2);
target = (1,23);
type = Stem;
},
{
horizontal = 1;
origin = (1,17);
target = (1,8);
type = Stem;
},
{
origin = (1,20);
target = (1,5);
type = Stem;
}
);
shapes = (
{
closed = 1;
nodes = (
(524,-10,o),
(649,78,o),
(699,208,c),
(622,208,l),
(577,122,o),
(488,62,o),
(384,62,cs),
(235,62,o),
(115,186,o),
(115,339,cs),
(115,515,o),
(262,617,o),
(374,617,cs),
(477,617,o),
(568,571,o),
(621,473,c),
(698,473,l),
(647,602,o),
(525,689,o),
(384,689,cs),
(188,689,o),
(45,525,o),
(45,339,cs),
(45,149,o),
(194,-10,o),
(384,-10,cs)
);
},
{
closed = 1;
nodes = (
(297,-265,o),
(337,-272,o),
(372,-272,cs),
(437,-272,o),
(508,-241,o),
(508,-163,cs),
(508,-101,o),
(464,-65,o),
(422,-65,cs),
(406,-65,o),
(397,-65,o),
(396,-66,c),
(439,24,l),
(383,23,l),
(317,-123,l),
(338,-120,o),
(363,-114,o),
(386,-114,cs),
(422,-114,o),
(452,-131,o),
(452,-162,cs),
(452,-203,o),
(416,-215,o),
(372,-215,cs),
(345,-215,o),
(316,-209,o),
(287,-199,c),
(262,-251,l)
);
}
);
};
layerId = m01;
shapes = (
{
ref = C;
},
{
pos = (130,-21);
ref = cedillacomb;
}
);
width = 739;
},
{
background = {
anchors = (
{
name = top;
pos = (386,689);
}
);
hints = (
{
horizontal = 1;
origin = (0,25);
target = (0,6);
type = Stem;
},
{
horizontal = 1;
origin = (0,19);
target = (0,12);
type = Stem;
},
{
origin = (0,22);
target = (0,9);
type = Stem;
},
{
horizontal = 1;
origin = (1,2);
target = (1,23);
type = Stem;
},
{
horizontal = 1;
origin = (1,17);
target = (1,8);
type = Stem;
},
{
horizontal = 1;
origin = (1,17);
target = (1,13);
type = Stem;
},
{
origin = (1,20);
target = (1,5);
type = Stem;
}
);
shapes = (
{
closed = 1;
nodes = (
(540,-10,o),
(672,91,o),
(718,231,c),
(551,231,l),
(523,171,o),
(455,130,o),
(385,130,cs),
(275,130,o),
(187,224,o),
(187,340,cs),
(187,455,o),
(275,550,o),
(385,550,cs),
(454,550,o),
(522,512,o),
(550,451,c),
(717,451,l),
(671,590,o),
(540,690,o),
(385,690,cs),
(192,690,o),
(35,533,o),
(35,340,cs),
(35,147,o),
(192,-10,o),
(385,-10,cs)
);
},
{
closed = 1;
nodes = (
(323,-217,o),
(355,-223,o),
(386,-223,cs),
(463,-223,o),
(506,-181,o),
(506,-122,cs),
(506,-74,o),
(478,-43,o),
(438,-43,cs),
(432,-43,o),
(426,-44,o),
(418,-46,c),
(461,46,l),
(397,46,l),
(330,-105,l),
(362,-100,o),
(382,-95,o),
(400,-95,cs),
(425,-95,o),
(437,-107,o),
(437,-122,cs),
(437,-140,o),
(418,-160,o),
(381,-160,cs),
(365,-160,o),
(340,-156,o),
(315,-146,c),
(288,-203,l)
);
}
);
};
layerId = "B86D9C3C-D3FC-40C7-BC9B-EF4509240B31";
shapes = (
{
ref = C;
},
{
pos = (125,16);
ref = cedillacomb;
}
);
width = 753;
},
{
background = {
anchors = (
{
name = top;
pos = (387,690);
}
);
hints = (
{
horizontal = 1;
origin = (0,25);
target = (0,6);
type = Stem;
},
{
horizontal = 1;
origin = (0,12);
target = (0,19);
type = Stem;
},
{
origin = (0,22);
target = (0,9);
type = Stem;
},
{
horizontal = 1;
origin = (1,2);
target = (1,23);
type = Stem;
},
{
horizontal = 1;
origin = (1,17);
target = (1,8);
type = Stem;
},
{
origin = (1,20);
target = (1,5);
type = Stem;
}
);
shapes = (
{
closed = 1;
nodes = (
(545,-10,o),
(680,95,o),
(724,239,c),
(527,239,l),
(505,187,o),
(444,153,o),
(385,153,cs),
(288,153,o),
(211,237,o),
(211,340,cs),
(211,435,o),
(279,528,o),
(389,528,cs),
(446,528,o),
(507,492,o),
(526,444,c),
(723,444,l),
(679,586,o),
(545,690,o),
(385,690,cs),
(193,690,o),
(32,536,o),
(32,340,cs),
(32,146,o),
(191,-10,o),
(385,-10,cs)
);
},
{
closed = 1;
nodes = (
(332,-201,o),
(361,-207,o),
(391,-207,cs),
(472,-207,o),
(505,-161,o),
(505,-108,cs),
(505,-65,o),
(483,-36,o),
(443,-36,cs),
(441,-36,o),
(436,-37,o),
(425,-39,c),
(468,53,l),
(402,54,l),
(334,-99,l),
(370,-93,o),
(388,-89,o),
(405,-89,cs),
(426,-89,o),
(432,-99,o),
(432,-109,cs),
(432,-119,o),
(419,-142,o),
(384,-142,cs),
(372,-142,o),
(348,-138,o),
(324,-128,c),
(297,-187,l)
);
}
);
};
layerId = "20FD933E-5CCA-4ADC-839D-1BAE82A4B007";
shapes = (
{
ref = C;
},
{
pos = (123,28);
ref = cedillacomb;
}
);
width = 758;
}
);
note = Ccedilla;
unicode = 199;
},
{
color = 10;
glyphname = Cdotaccent;
lastChange = "2024-02-02 15:08:01 +0000";
layers = (
{
background = {
anchors = (
{
name = top;
pos = (382,687);
}
);
hints = (
{
horizontal = 1;
origin = (0,25);
target = (0,6);
type = Stem;
},
{
horizontal = 1;
origin = (0,19);
target = (0,12);
type = Stem;
},
{
origin = (0,22);
target = (0,9);
type = Stem;
},
{
horizontal = 1;
origin = (1,11);
target = (1,5);
type = Stem;
},
{
origin = (1,8);
target = (1,2);
type = Stem;
}
);
shapes = (
{
closed = 1;
nodes = (
(524,-10,o),
(649,78,o),
(699,208,c),
(622,208,l),
(577,122,o),
(488,62,o),
(384,62,cs),
(235,62,o),
(115,186,o),
(115,339,cs),
(115,515,o),
(262,617,o),
(374,617,cs),
(477,617,o),
(568,571,o),
(621,473,c),
(698,473,l),
(647,602,o),
(525,689,o),
(384,689,cs),
(188,689,o),
(45,525,o),
(45,339,cs),
(45,149,o),
(194,-10,o),
(384,-10,cs)
);
},
{
closed = 1;
nodes = (
(407,748,o),
(427,768,o),
(427,793,cs),
(427,817,o),
(407,837,o),
(383,837,cs),
(358,837,o),
(338,817,o),
(338,793,cs),
(338,768,o),
(358,748,o),
(383,748,cs)
);
}
);
};
layerId = m01;
shapes = (
{
ref = C;
},
{
pos = (256,225);
ref = dotaccentcomb;
}
);
width = 739;
},
{
background = {
anchors = (
{
name = top;
pos = (386,689);
}
);
hints = (
{
horizontal = 1;
origin = (0,25);
target = (0,6);
type = Stem;
},
{
horizontal = 1;
origin = (0,19);
target = (0,12);
type = Stem;
},
{
origin = (0,22);
target = (0,9);
type = Stem;
},
{
horizontal = 1;
origin = (1,11);
target = (1,5);
type = Stem;
},
{
origin = (1,8);
target = (1,2);
type = Stem;
}
);
shapes = (
{
closed = 1;
nodes = (
(540,-10,o),
(672,91,o),
(718,231,c),
(551,231,l),
(523,171,o),
(455,130,o),
(385,130,cs),
(275,130,o),
(187,224,o),
(187,340,cs),
(187,455,o),
(275,550,o),
(385,550,cs),
(454,550,o),
(522,512,o),
(550,451,c),
(717,451,l),
(671,590,o),
(540,690,o),
(385,690,cs),
(192,690,o),
(35,533,o),
(35,340,cs),
(35,147,o),
(192,-10,o),
(385,-10,cs)
);
},
{
closed = 1;
nodes = (
(429,752,o),
(465,788,o),
(465,831,cs),
(465,875,o),
(429,910,o),
(386,910,cs),
(342,910,o),
(307,875,o),
(307,831,cs),
(307,788,o),
(342,752,o),
(386,752,cs)
);
}
);
};
layerId = "B86D9C3C-D3FC-40C7-BC9B-EF4509240B31";
shapes = (
{
ref = C;
},
{
pos = (237,230);
ref = dotaccentcomb;
}
);
width = 753;
},
{
background = {
anchors = (
{
name = top;
pos = (387,690);
}
);
hints = (
{
horizontal = 1;
origin = (0,25);
target = (0,6);
type = Stem;
},
{
horizontal = 1;
origin = (0,12);
target = (0,19);
type = Stem;
},
{
origin = (0,22);
target = (0,9);
type = Stem;
},
{
horizontal = 1;
origin = (1,11);
target = (1,5);
type = Stem;
},
{
origin = (1,8);
target = (1,2);
type = Stem;
}
);
shapes = (
{
closed = 1;
nodes = (
(545,-10,o),
(680,95,o),
(724,239,c),
(527,239,l),
(505,187,o),
(444,153,o),
(385,153,cs),
(288,153,o),
(211,237,o),
(211,340,cs),
(211,435,o),
(279,528,o),
(389,528,cs),
(446,528,o),
(507,492,o),
(526,444,c),
(723,444,l),
(679,586,o),
(545,690,o),
(385,690,cs),
(193,690,o),
(32,536,o),
(32,340,cs),
(32,146,o),
(191,-10,o),
(385,-10,cs)
);
},
{
closed = 1;
nodes = (
(437,753,o),
(478,794,o),
(478,844,cs),
(478,894,o),
(437,934,o),
(388,934,cs),
(337,934,o),
(297,894,o),
(297,844,cs),
(297,794,o),
(337,753,o),
(388,753,cs)
);
}
);
};
layerId = "20FD933E-5CCA-4ADC-839D-1BAE82A4B007";
shapes = (
{
ref = C;
},
{
pos = (230,232);
ref = dotaccentcomb;
}
);
width = 758;
}
);
unicode = 266;
},
{
color = 6;
glyphname = D;
kernRight = DOC;
lastChange = "2024-02-02 14:53:56 +0000";
layers = (
{
anchors = (
{
name = top;
pos = (273,680);
}
);
background = {
anchors = (
{
name = top;
pos = (273,680);
}
);
shapes = (
{
closed = 1;
nodes = (
(253,0,ls),
(449,0,o),
(603,144,o),
(603,340,cs),
(603,547,o),
(439,680,o),
(253,680,cs),
(75,680,l),
(75,0,l)
);
},
{
closed = 1;
nodes = (
(145,610,l),
(255,610,ls),
(412,610,o),
(535,497,o),
(535,340,cs),
(535,183,o),
(412,70,o),
(255,70,cs),
(145,70,l)
);
}
);
};
hints = (
{
horizontal = 1;
origin = (0,8);
target = (1,8);
type = Stem;
},
{
horizontal = 1;
origin = (0,7);
target = (1,0);
type = Stem;
},
{
origin = (0,8);
target = (1,8);
type = Stem;
},
{
origin = (1,4);
target = (0,3);
type = Stem;
}
);
layerId = m01;
shapes = (
{
closed = 1;
nodes = (
(253,0,ls),
(449,0,o),
(603,144,o),
(603,340,cs),
(603,547,o),
(439,680,o),
(253,680,cs),
(75,680,l),
(75,0,l)
);
},
{
closed = 1;
nodes = (
(145,610,l),
(255,610,ls),
(412,610,o),
(535,497,o),
(535,340,cs),
(535,183,o),
(412,70,o),
(255,70,cs),
(145,70,l)
);
}
);
width = 648;
},
{
anchors = (
{
name = top;
pos = (293,678);
}
);
background = {
anchors = (
{
name = top;
pos = (293,678);
}
);
shapes = (
{
closed = 1;
nodes = (
(292,0,ls),
(485,0,o),
(630,148,o),
(630,340,cs),
(630,532,o),
(484,680,o),
(292,680,cs),
(60,680,l),
(60,0,l)
);
},
{
closed = 1;
nodes = (
(208,541,l),
(283,541,ls),
(399,541,o),
(477,453,o),
(477,340,cs),
(477,227,o),
(398,138,o),
(283,138,cs),
(208,138,l)
);
}
);
};
hints = (
{
horizontal = 1;
origin = (0,8);
target = (1,8);
type = Stem;
},
{
horizontal = 1;
origin = (0,7);
target = (1,0);
type = Stem;
},
{
origin = (0,8);
target = (1,8);
type = Stem;
},
{
origin = (1,4);
target = (0,3);
type = Stem;
}
);
layerId = "B86D9C3C-D3FC-40C7-BC9B-EF4509240B31";
shapes = (
{
closed = 1;
nodes = (
(292,0,ls),
(485,0,o),
(630,148,o),
(630,340,cs),
(630,532,o),
(484,680,o),
(292,680,cs),
(60,680,l),
(60,0,l)
);
},
{
closed = 1;
nodes = (
(208,541,l),
(283,541,ls),
(399,541,o),
(477,453,o),
(477,340,cs),
(477,227,o),
(398,138,o),
(283,138,cs),
(208,138,l)
);
}
);
width = 665;
},
{
anchors = (
{
name = top;
pos = (300,677);
}
);
background = {
anchors = (
{
name = top;
pos = (300,677);
}
);
shapes = (
{
closed = 1;
nodes = (
(305,0,ls),
(497,0,o),
(639,149,o),
(639,340,cs),
(639,527,o),
(499,680,o),
(305,680,cs),
(55,680,l),
(55,0,l)
);
},
{
closed = 1;
nodes = (
(229,518,l),
(292,518,ls),
(395,518,o),
(458,438,o),
(458,340,cs),
(458,242,o),
(393,161,o),
(292,161,cs),
(229,161,l)
);
}
);
};
hints = (
{
horizontal = 1;
origin = (0,8);
target = (1,8);
type = Stem;
},
{
horizontal = 1;
origin = (0,7);
target = (1,0);
type = Stem;
},
{
origin = (0,8);
target = (1,8);
type = Stem;
},
{
origin = (1,4);
target = (0,3);
type = Stem;
}
);
layerId = "20FD933E-5CCA-4ADC-839D-1BAE82A4B007";
shapes = (
{
closed = 1;
nodes = (
(305,0,ls),
(497,0,o),
(639,149,o),
(639,340,cs),
(639,527,o),
(499,680,o),
(305,680,cs),
(55,680,l),
(55,0,l)
);
},
{
closed = 1;
nodes = (
(229,518,l),
(292,518,ls),
(395,518,o),
(458,438,o),
(458,340,cs),
(458,242,o),
(393,161,o),
(292,161,cs),
(229,161,l)
);
}
);
width = 671;
}
);
note = D;
unicode = 68;
},
{
color = 10;
glyphname = Dcaron;
lastChange = "2024-02-02 14:59:17 +0000";
layers = (
{
background = {
anchors = (
{
name = top;
pos = (273,680);
}
);
hints = (
{
horizontal = 1;
origin = (0,8);
target = (1,8);
type = Stem;
},
{
horizontal = 1;
origin = (0,7);
target = (1,0);
type = Stem;
},
{
origin = (0,8);
target = (1,8);
type = Stem;
},
{
origin = (1,4);
target = (0,3);
type = Stem;
},
{
horizontal = 1;
origin = (2,7);
target = (2,6);
type = Stem;
}
);
shapes = (
{
closed = 1;
nodes = (
(253,0,ls),
(449,0,o),
(603,144,o),
(603,340,cs),
(603,547,o),
(439,680,o),
(253,680,cs),
(75,680,l),
(75,0,l)
);
},
{
closed = 1;
nodes = (
(145,610,l),
(255,610,ls),
(412,610,o),
(535,497,o),
(535,340,cs),
(535,183,o),
(412,70,o),
(255,70,cs),
(145,70,l)
);
},
{
closed = 1;
nodes = (
(303,729,l),
(413,862,l),
(342,862,l),
(261,753,l),
(279,753,l),
(198,862,l),
(127,862,l),
(237,729,l)
);
}
);
};
layerId = m01;
shapes = (
{
ref = D;
},
{
pos = (97,-22);
ref = caroncomb;
}
);
width = 648;
},
{
background = {
anchors = (
{
name = top;
pos = (293,678);
}
);
hints = (
{
horizontal = 1;
origin = (0,8);
target = (1,8);
type = Stem;
},
{
horizontal = 1;
origin = (0,7);
target = (1,0);
type = Stem;
},
{
origin = (0,8);
target = (1,8);
type = Stem;
},
{
origin = (1,4);
target = (0,3);
type = Stem;
},
{
horizontal = 1;
origin = (2,7);
target = (2,6);
type = Stem;
},
{
origin = (2,6);
target = (2,1);
type = Stem;
}
);
shapes = (
{
closed = 1;
nodes = (
(292,0,ls),
(485,0,o),
(630,148,o),
(630,340,cs),
(630,532,o),
(484,680,o),
(292,680,cs),
(60,680,l),
(60,0,l)
);
},
{
closed = 1;
nodes = (
(208,541,l),
(283,541,ls),
(399,541,o),
(477,453,o),
(477,340,cs),
(477,227,o),
(398,138,o),
(283,138,cs),
(208,138,l)
);
},
{
closed = 1;
nodes = (
(348,723,l),
(476,902,l),
(364,902,l),
(266,741,l),
(312,741,l),
(214,902,l),
(102,902,l),
(230,723,l)
);
}
);
};
layerId = "B86D9C3C-D3FC-40C7-BC9B-EF4509240B31";
shapes = (
{
ref = D;
},
{
pos = (62,-28);
ref = caroncomb;
}
);
width = 665;
},
{
background = {
anchors = (
{
name = top;
pos = (300,677);
}
);
hints = (
{
horizontal = 1;
origin = (0,8);
target = (1,8);
type = Stem;
},
{
horizontal = 1;
origin = (0,7);
target = (1,0);
type = Stem;
},
{
origin = (0,8);
target = (1,8);
type = Stem;
},
{
origin = (1,4);
target = (0,3);
type = Stem;
},
{
horizontal = 1;
origin = (2,7);
target = (2,6);
type = Stem;
},
{
origin = (2,6);
target = (2,1);
type = Stem;
}
);
shapes = (
{
closed = 1;
nodes = (
(305,0,ls),
(497,0,o),
(639,149,o),
(639,340,cs),
(639,527,o),
(499,680,o),
(305,680,cs),
(55,680,l),
(55,0,l)
);
},
{
closed = 1;
nodes = (
(229,518,l),
(292,518,ls),
(395,518,o),
(458,438,o),
(458,340,cs),
(458,242,o),
(393,161,o),
(292,161,cs),
(229,161,l)
);
},
{
closed = 1;
nodes = (
(363,721,l),
(497,915,l),
(371,915,l),
(267,737,l),
(323,737,l),
(219,915,l),
(93,915,l),
(227,721,l)
);
}
);
};
layerId = "20FD933E-5CCA-4ADC-839D-1BAE82A4B007";
shapes = (
{
ref = D;
},
{
pos = (51,-30);
ref = caroncomb;
}
);
width = 671;
}
);
unicode = 270;
},
{
color = 6;
glyphname = Dcroat;
lastChange = "2024-02-02 14:59:17 +0000";
layers = (
{
background = {
shapes = (
{
closed = 1;
nodes = (
(253,0,ls),
(449,0,o),
(603,144,o),
(603,340,cs),
(603,540,o),
(445,680,o),
(253,680,cs),
(75,680,l),
(75,352,l),
(8,352,l),
(8,295,l),
(75,295,l),
(75,0,l)
);
},
{
closed = 1;
nodes = (
(145,295,l),
(323,295,l),
(323,352,l),
(145,352,l),
(145,610,l),
(255,610,ls),
(412,610,o),
(535,497,o),
(535,340,cs),
(535,183,o),
(412,70,o),
(255,70,cs),
(145,70,l)
);
}
);
};
hints = (
{
horizontal = 1;
place = (0,70);
type = Stem;
},
{
horizontal = 1;
place = (295,57);
type = Stem;
},
{
horizontal = 1;
place = (680,70);
type = Stem;
},
{
place = (75,70);
type = Stem;
},
{
place = (535,68);
type = Stem;
}
);
layerId = m01;
shapes = (
{
ref = Eth;
}
);
width = 648;
},
{
background = {
shapes = (
{
closed = 1;
nodes = (
(292,0,ls),
(485,0,o),
(630,148,o),
(630,340,cs),
(630,532,o),
(484,680,o),
(292,680,cs),
(60,680,l),
(60,376,l),
(0,376,l),
(0,293,l),
(60,293,l),
(60,0,l)
);
},
{
closed = 1;
nodes = (
(208,293,l),
(350,293,l),
(350,376,l),
(208,376,l),
(208,541,l),
(283,541,ls),
(399,541,o),
(477,453,o),
(477,340,cs),
(477,227,o),
(398,138,o),
(283,138,cs),
(208,138,l)
);
}
);
};
hints = (
{
horizontal = 1;
place = (0,138);
type = Stem;
},
{
horizontal = 1;
place = (293,83);
type = Stem;
},
{
horizontal = 1;
place = (680,139);
type = Stem;
},
{
place = (60,148);
type = Stem;
},
{
place = (477,153);
type = Stem;
}
);
layerId = "B86D9C3C-D3FC-40C7-BC9B-EF4509240B31";
shapes = (
{
ref = Eth;
}
);
width = 665;
},
{
background = {
shapes = (
{
closed = 1;
nodes = (
(305,0,ls),
(497,0,o),
(639,149,o),
(639,340,cs),
(639,529,o),
(497,680,o),
(305,680,cs),
(55,680,l),
(55,384,l),
(-3,384,l),
(-3,292,l),
(55,292,l),
(55,0,l)
);
},
{
closed = 1;
nodes = (
(229,292,l),
(359,292,l),
(359,384,l),
(229,384,l),
(229,518,l),
(292,518,ls),
(395,518,o),
(458,438,o),
(458,340,cs),
(458,242,o),
(393,161,o),
(292,161,cs),
(229,161,l)
);
}
);
};
hints = (
{
horizontal = 1;
place = (0,161);
type = Stem;
},
{
horizontal = 1;
place = (292,92);
type = Stem;
},
{
horizontal = 1;
place = (680,162);
type = Stem;
},
{
place = (55,174);
type = Stem;
},
{
place = (458,181);
type = Stem;
}
);
layerId = "20FD933E-5CCA-4ADC-839D-1BAE82A4B007";
shapes = (
{
ref = Eth;
}
);
width = 671;
}
);
unicode = 272;
},
{
color = 6;
glyphname = Eth;
kernRight = COD;
lastChange = "2024-02-02 14:53:56 +0000";
layers = (
{
background = {
shapes = (
{
closed = 1;
nodes = (
(253,0,ls),
(449,0,o),
(603,144,o),
(603,340,cs),
(603,540,o),
(445,680,o),
(253,680,cs),
(75,680,l),
(75,352,l),
(8,352,l),
(8,295,l),
(75,295,l),
(75,0,l)
);
},
{
closed = 1;
nodes = (
(145,295,l),
(323,295,l),
(323,352,l),
(145,352,l),
(145,610,l),
(255,610,ls),
(412,610,o),
(535,497,o),
(535,340,cs),
(535,183,o),
(412,70,o),
(255,70,cs),
(145,70,l)
);
}
);
};
hints = (
{
horizontal = 1;
origin = (0,12);
target = (1,12);
type = Stem;
},
{
horizontal = 1;
origin = (0,10);
target = (0,9);
type = Stem;
},
{
horizontal = 1;
origin = (0,7);
target = (1,4);
type = Stem;
},
{
origin = (0,12);
target = (1,12);
type = Stem;
},
{
origin = (1,8);
target = (0,3);
type = Stem;
}
);
layerId = m01;
shapes = (
{
closed = 1;
nodes = (
(253,0,ls),
(449,0,o),
(603,144,o),
(603,340,cs),
(603,540,o),
(445,680,o),
(253,680,cs),
(75,680,l),
(75,352,l),
(8,352,l),
(8,295,l),
(75,295,l),
(75,0,l)
);
},
{
closed = 1;
nodes = (
(145,295,l),
(323,295,l),
(323,352,l),
(145,352,l),
(145,610,l),
(255,610,ls),
(412,610,o),
(535,497,o),
(535,340,cs),
(535,183,o),
(412,70,o),
(255,70,cs),
(145,70,l)
);
}
);
width = 648;
},
{
background = {
shapes = (
{
closed = 1;
nodes = (
(292,0,ls),
(485,0,o),
(630,148,o),
(630,340,cs),
(630,532,o),
(484,680,o),
(292,680,cs),
(60,680,l),
(60,376,l),
(0,376,l),
(0,293,l),
(60,293,l),
(60,0,l)
);
},
{
closed = 1;
nodes = (
(208,293,l),
(350,293,l),
(350,376,l),
(208,376,l),
(208,541,l),
(283,541,ls),
(399,541,o),
(477,453,o),
(477,340,cs),
(477,227,o),
(398,138,o),
(283,138,cs),
(208,138,l)
);
}
);
};
hints = (
{
horizontal = 1;
origin = (0,12);
target = (1,12);
type = Stem;
},
{
horizontal = 1;
origin = (0,10);
target = (0,9);
type = Stem;
},
{
horizontal = 1;
origin = (0,7);
target = (1,4);
type = Stem;
},
{
origin = (0,12);
target = (1,12);
type = Stem;
},
{
origin = (1,8);
target = (0,3);
type = Stem;
}
);
layerId = "B86D9C3C-D3FC-40C7-BC9B-EF4509240B31";
shapes = (
{
closed = 1;
nodes = (
(292,0,ls),
(485,0,o),
(630,148,o),
(630,340,cs),
(630,532,o),
(484,680,o),
(292,680,cs),
(60,680,l),
(60,376,l),
(0,376,l),
(0,293,l),
(60,293,l),
(60,0,l)
);
},
{
closed = 1;
nodes = (
(208,293,l),
(350,293,l),
(350,376,l),
(208,376,l),
(208,541,l),
(283,541,ls),
(399,541,o),
(477,453,o),
(477,340,cs),
(477,227,o),
(398,138,o),
(283,138,cs),
(208,138,l)
);
}
);
width = 665;
},
{
background = {
shapes = (
{
closed = 1;
nodes = (
(305,0,ls),
(497,0,o),
(639,149,o),
(639,340,cs),
(639,529,o),
(497,680,o),
(305,680,cs),
(55,680,l),
(55,384,l),
(-3,384,l),
(-3,292,l),
(55,292,l),
(55,0,l)
);
},
{
closed = 1;
nodes = (
(229,292,l),
(359,292,l),
(359,384,l),
(229,384,l),
(229,518,l),
(292,518,ls),
(395,518,o),
(458,438,o),
(458,340,cs),
(458,242,o),
(393,161,o),
(292,161,cs),
(229,161,l)
);
}
);
};
hints = (
{
horizontal = 1;
origin = (0,12);
target = (1,12);
type = Stem;
},
{
horizontal = 1;
origin = (0,10);
target = (0,9);
type = Stem;
},
{
horizontal = 1;
origin = (0,7);
target = (1,4);
type = Stem;
},
{
origin = (0,12);
target = (1,12);
type = Stem;
},
{
origin = (1,8);
target = (0,3);
type = Stem;
}
);
layerId = "20FD933E-5CCA-4ADC-839D-1BAE82A4B007";
shapes = (
{
closed = 1;
nodes = (
(305,0,ls),
(497,0,o),
(639,149,o),
(639,340,cs),
(639,529,o),
(497,680,o),
(305,680,cs),
(55,680,l),
(55,384,l),
(-3,384,l),
(-3,292,l),
(55,292,l),
(55,0,l)
);
},
{
closed = 1;
nodes = (
(229,292,l),
(359,292,l),
(359,384,l),
(229,384,l),
(229,518,l),
(292,518,ls),
(395,518,o),
(458,438,o),
(458,340,cs),
(458,242,o),
(393,161,o),
(292,161,cs),
(229,161,l)
);
}
);
width = 671;
}
);
note = Eth;
unicode = 208;
},
{
color = 6;
glyphname = E;
lastChange = "2024-02-02 14:53:56 +0000";
layers = (
{
anchors = (
{
name = bottom;
pos = (289,0);
},
{
name = ogonek;
pos = (436,0);
},
{
name = top;
pos = (278,680);
}
);
background = {
anchors = (
{
name = bottom;
pos = (289,0);
},
{
name = ogonek;
pos = (436,0);
},
{
name = top;
pos = (278,680);
}
);
shapes = (
{
closed = 1;
nodes = (
(479,0,l),
(479,65,l),
(145,65,l),
(145,307,l),
(469,307,l),
(469,373,l),
(145,373,l),
(145,615,l),
(479,615,l),
(479,680,l),
(75,680,l),
(75,0,l)
);
}
);
};
hints = (
{
horizontal = 1;
origin = (0,11);
target = (0,2);
type = Stem;
},
{
horizontal = 1;
origin = (0,3);
target = (0,6);
type = Stem;
},
{
horizontal = 1;
origin = (0,10);
target = (0,7);
type = Stem;
},
{
origin = (0,11);
target = (0,2);
type = Stem;
}
);
layerId = m01;
shapes = (
{
closed = 1;
nodes = (
(479,0,l),
(479,65,l),
(145,65,l),
(145,307,l),
(469,307,l),
(469,373,l),
(145,373,l),
(145,615,l),
(479,615,l),
(479,680,l),
(75,680,l),
(75,0,l)
);
}
);
width = 554;
},
{
anchors = (
{
name = bottom;
pos = (273,0);
},
{
name = ogonek;
pos = (437,0);
},
{
name = top;
pos = (278,680);
}
);
background = {
anchors = (
{
name = bottom;
pos = (273,0);
},
{
name = ogonek;
pos = (437,0);
},
{
name = top;
pos = (278,680);
}
);
shapes = (
{
closed = 1;
nodes = (
(484,0,l),
(484,136,l),
(210,136,l),
(210,273,l),
(474,273,l),
(474,409,l),
(210,409,l),
(210,544,l),
(484,544,l),
(484,680,l),
(60,680,l),
(60,0,l)
);
}
);
};
hints = (
{
horizontal = 1;
origin = (0,11);
target = (0,2);
type = Stem;
},
{
horizontal = 1;
origin = (0,3);
target = (0,6);
type = Stem;
},
{
horizontal = 1;
origin = (0,10);
target = (0,7);
type = Stem;
},
{
origin = (0,11);
target = (0,2);
type = Stem;
}
);
layerId = "B86D9C3C-D3FC-40C7-BC9B-EF4509240B31";
shapes = (
{
closed = 1;
nodes = (
(484,0,l),
(484,136,l),
(210,136,l),
(210,273,l),
(474,273,l),
(474,409,l),
(210,409,l),
(210,544,l),
(484,544,l),
(484,680,l),
(60,680,l),
(60,0,l)
);
}
);
width = 534;
},
{
anchors = (
{
name = bottom;
pos = (268,0);
},
{
name = ogonek;
pos = (437,0);
},
{
name = top;
pos = (278,680);
}
);
background = {
anchors = (
{
name = bottom;
pos = (268,0);
},
{
name = ogonek;
pos = (437,0);
},
{
name = top;
pos = (278,680);
}
);
shapes = (
{
closed = 1;
nodes = (
(486,0,l),
(486,160,l),
(232,160,l),
(232,262,l),
(476,262,l),
(476,421,l),
(232,421,l),
(232,520,l),
(486,520,l),
(486,680,l),
(55,680,l),
(55,0,l)
);
}
);
};
hints = (
{
horizontal = 1;
origin = (0,11);
target = (0,2);
type = Stem;
},
{
horizontal = 1;
origin = (0,3);
target = (0,6);
type = Stem;
},
{
horizontal = 1;
origin = (0,10);
target = (0,7);
type = Stem;
},
{
origin = (0,11);
target = (0,2);
type = Stem;
}
);
layerId = "20FD933E-5CCA-4ADC-839D-1BAE82A4B007";
shapes = (
{
closed = 1;
nodes = (
(486,0,l),
(486,160,l),
(232,160,l),
(232,262,l),
(476,262,l),
(476,421,l),
(232,421,l),
(232,520,l),
(486,520,l),
(486,680,l),
(55,680,l),
(55,0,l)
);
}
);
width = 527;
}
);
note = E;
unicode = 69;
},
{
color = 10;
glyphname = Eacute;
lastChange = "2024-02-02 14:59:17 +0000";
layers = (
{
background = {
anchors = (
{
name = bottom;
pos = (289,0);
},
{
name = ogonek;
pos = (436,0);
},
{
name = top;
pos = (278,680);
}
);
hints = (
{
horizontal = 1;
origin = (0,11);
target = (0,2);
type = Stem;
},
{
horizontal = 1;
origin = (0,3);
target = (0,6);
type = Stem;
},
{
horizontal = 1;
origin = (0,10);
target = (0,7);
type = Stem;
},
{
origin = (0,11);
target = (0,2);
type = Stem;
},
{
horizontal = 1;
origin = (1,3);
target = (1,2);
type = Stem;
},
{
origin = (1,3);
target = (1,1);
type = Stem;
}
);
shapes = (
{
closed = 1;
nodes = (
(479,0,l),
(479,65,l),
(145,65,l),
(145,307,l),
(469,307,l),
(469,373,l),
(145,373,l),
(145,615,l),
(479,615,l),
(479,680,l),
(75,680,l),
(75,0,l)
);
},
{
closed = 1;
nodes = (
(303,726,l),
(403,860,l),
(327,860,l),
(247,726,l)
);
}
);
};
layerId = m01;
shapes = (
{
ref = E;
},
{
pos = (227,-24);
ref = acutecomb;
}
);
width = 554;
},
{
background = {
anchors = (
{
name = bottom;
pos = (273,0);
},
{
name = ogonek;
pos = (437,0);
},
{
name = top;
pos = (278,680);
}
);
hints = (
{
horizontal = 1;
origin = (0,11);
target = (0,2);
type = Stem;
},
{
horizontal = 1;
origin = (0,3);
target = (0,6);
type = Stem;
},
{
horizontal = 1;
origin = (0,10);
target = (0,7);
type = Stem;
},
{
origin = (0,11);
target = (0,2);
type = Stem;
},
{
horizontal = 1;
origin = (1,3);
target = (1,2);
type = Stem;
},
{
origin = (1,3);
target = (1,1);
type = Stem;
}
);
shapes = (
{
closed = 1;
nodes = (
(484,0,l),
(484,136,l),
(210,136,l),
(210,273,l),
(474,273,l),
(474,409,l),
(210,409,l),
(210,544,l),
(484,544,l),
(484,680,l),
(60,680,l),
(60,0,l)
);
},
{
closed = 1;
nodes = (
(335,723,l),
(469,902,l),
(341,902,l),
(223,723,l)
);
}
);
};
layerId = "B86D9C3C-D3FC-40C7-BC9B-EF4509240B31";
shapes = (
{
ref = E;
},
{
pos = (180,-27);
ref = acutecomb;
}
);
width = 534;
},
{
background = {
anchors = (
{
name = bottom;
pos = (268,0);
},
{
name = ogonek;
pos = (437,0);
},
{
name = top;
pos = (278,680);
}
);
hints = (
{
horizontal = 1;
origin = (0,11);
target = (0,2);
type = Stem;
},
{
horizontal = 1;
origin = (0,3);
target = (0,6);
type = Stem;
},
{
horizontal = 1;
origin = (0,10);
target = (0,7);
type = Stem;
},
{
origin = (0,11);
target = (0,2);
type = Stem;
},
{
horizontal = 1;
origin = (1,3);
target = (1,2);
type = Stem;
},
{
origin = (1,3);
target = (1,1);
type = Stem;
}
);
shapes = (
{
closed = 1;
nodes = (
(486,0,l),
(486,160,l),
(232,160,l),
(232,262,l),
(476,262,l),
(476,421,l),
(232,421,l),
(232,520,l),
(486,520,l),
(486,680,l),
(55,680,l),
(55,0,l)
);
},
{
closed = 1;
nodes = (
(345,722,l),
(491,916,l),
(345,916,l),
(215,722,l)
);
}
);
};
layerId = "20FD933E-5CCA-4ADC-839D-1BAE82A4B007";
shapes = (
{
ref = E;
},
{
pos = (164,-28);
ref = acutecomb;
}
);
width = 527;
}
);
note = Eacute;
unicode = 201;
},
{
color = 10;
glyphname = Ecaron;
lastChange = "2024-02-02 14:59:17 +0000";
layers = (
{
background = {
anchors = (
{
name = bottom;
pos = (289,0);
},
{
name = ogonek;
pos = (436,0);
},
{
name = top;
pos = (278,680);
}
);
hints = (
{
horizontal = 1;
origin = (0,11);
target = (0,2);
type = Stem;
},
{
horizontal = 1;
origin = (0,3);
target = (0,6);
type = Stem;
},
{
horizontal = 1;
origin = (0,10);
target = (0,7);
type = Stem;
},
{
origin = (0,11);
target = (0,2);
type = Stem;
},
{
horizontal = 1;
origin = (1,7);
target = (1,6);
type = Stem;
}
);
shapes = (
{
closed = 1;
nodes = (
(479,0,l),
(479,65,l),
(145,65,l),
(145,307,l),
(469,307,l),
(469,373,l),
(145,373,l),
(145,615,l),
(479,615,l),
(479,680,l),
(75,680,l),
(75,0,l)
);
},
{
closed = 1;
nodes = (
(308,729,l),
(418,862,l),
(347,862,l),
(266,753,l),
(284,753,l),
(203,862,l),
(132,862,l),
(242,729,l)
);
}
);
};
layerId = m01;
shapes = (
{
ref = E;
},
{
pos = (102,-22);
ref = caroncomb;
}
);
width = 554;
},
{
background = {
anchors = (
{
name = bottom;
pos = (273,0);
},
{
name = ogonek;
pos = (437,0);
},
{
name = top;
pos = (278,680);
}
);
hints = (
{
horizontal = 1;
origin = (0,11);
target = (0,2);
type = Stem;
},
{
horizontal = 1;
origin = (0,3);
target = (0,6);
type = Stem;
},
{
horizontal = 1;
origin = (0,10);
target = (0,7);
type = Stem;
},
{
origin = (0,11);
target = (0,2);
type = Stem;
},
{
horizontal = 1;
origin = (1,7);
target = (1,6);
type = Stem;
},
{
origin = (1,6);
target = (1,1);
type = Stem;
}
);
shapes = (
{
closed = 1;
nodes = (
(484,0,l),
(484,136,l),
(210,136,l),
(210,273,l),
(474,273,l),
(474,409,l),
(210,409,l),
(210,544,l),
(484,544,l),
(484,680,l),
(60,680,l),
(60,0,l)
);
},
{
closed = 1;
nodes = (
(333,725,l),
(461,904,l),
(349,904,l),
(251,743,l),
(297,743,l),
(199,904,l),
(87,904,l),
(215,725,l)
);
}
);
};
layerId = "B86D9C3C-D3FC-40C7-BC9B-EF4509240B31";
shapes = (
{
ref = E;
},
{
pos = (47,-26);
ref = caroncomb;
}
);
width = 534;
},
{
background = {
anchors = (
{
name = bottom;
pos = (268,0);
},
{
name = ogonek;
pos = (437,0);
},
{
name = top;
pos = (278,680);
}
);
hints = (
{
horizontal = 1;
origin = (0,11);
target = (0,2);
type = Stem;
},
{
horizontal = 1;
origin = (0,3);
target = (0,6);
type = Stem;
},
{
horizontal = 1;
origin = (0,10);
target = (0,7);
type = Stem;
},
{
origin = (0,11);
target = (0,2);
type = Stem;
},
{
horizontal = 1;
origin = (1,7);
target = (1,6);
type = Stem;
},
{
origin = (1,6);
target = (1,1);
type = Stem;
}
);
shapes = (
{
closed = 1;
nodes = (
(486,0,l),
(486,160,l),
(232,160,l),
(232,262,l),
(476,262,l),
(476,421,l),
(232,421,l),
(232,520,l),
(486,520,l),
(486,680,l),
(55,680,l),
(55,0,l)
);
},
{
closed = 1;
nodes = (
(342,724,l),
(476,918,l),
(350,918,l),
(246,740,l),
(302,740,l),
(198,918,l),
(72,918,l),
(206,724,l)
);
}
);
};
layerId = "20FD933E-5CCA-4ADC-839D-1BAE82A4B007";
shapes = (
{
ref = E;
},
{
pos = (29,-27);
ref = caroncomb;
}
);
width = 527;
}
);
unicode = 282;
},
{
color = 10;
glyphname = Ecircumflex;
lastChange = "2024-02-02 14:59:17 +0000";
layers = (
{
background = {
anchors = (
{
name = bottom;
pos = (289,0);
},
{
name = ogonek;
pos = (436,0);
},
{
name = top;
pos = (278,680);
}
);
hints = (
{
horizontal = 1;
origin = (0,11);
target = (0,2);
type = Stem;
},
{
horizontal = 1;
origin = (0,3);
target = (0,6);
type = Stem;
},
{
horizontal = 1;
origin = (0,10);
target = (0,7);
type = Stem;
},
{
origin = (0,11);
target = (0,2);
type = Stem;
},
{
horizontal = 1;
origin = (1,7);
target = (1,6);
type = Stem;
},
{
horizontal = 1;
place = (817,45);
type = Stem;
}
);
shapes = (
{
closed = 1;
nodes = (
(479,0,l),
(479,65,l),
(145,65,l),
(145,307,l),
(469,307,l),
(469,373,l),
(145,373,l),
(145,615,l),
(479,615,l),
(479,680,l),
(75,680,l),
(75,0,l)
);
},
{
closed = 1;
nodes = (
(206,729,l),
(287,828,l),
(269,828,l),
(350,729,l),
(421,729,l),
(311,862,l),
(245,862,l),
(135,729,l)
);
}
);
};
layerId = m01;
shapes = (
{
ref = E;
},
{
pos = (125,-21);
ref = circumflexcomb;
}
);
width = 554;
},
{
background = {
anchors = (
{
name = bottom;
pos = (273,0);
},
{
name = ogonek;
pos = (437,0);
},
{
name = top;
pos = (278,680);
}
);
hints = (
{
horizontal = 1;
origin = (0,11);
target = (0,2);
type = Stem;
},
{
horizontal = 1;
origin = (0,3);
target = (0,6);
type = Stem;
},
{
horizontal = 1;
origin = (0,10);
target = (0,7);
type = Stem;
},
{
origin = (0,11);
target = (0,2);
type = Stem;
},
{
horizontal = 1;
origin = (1,7);
target = (1,6);
type = Stem;
},
{
horizontal = 1;
place = (831,78);
type = Stem;
},
{
origin = (1,7);
target = (1,4);
type = Stem;
}
);
shapes = (
{
closed = 1;
nodes = (
(484,0,l),
(484,136,l),
(210,136,l),
(210,273,l),
(474,273,l),
(474,409,l),
(210,409,l),
(210,544,l),
(484,544,l),
(484,680,l),
(60,680,l),
(60,0,l)
);
},
{
closed = 1;
nodes = (
(203,720,l),
(298,861,l),
(258,861,l),
(353,720,l),
(465,720,l),
(337,909,l),
(219,909,l),
(91,720,l)
);
}
);
};
layerId = "B86D9C3C-D3FC-40C7-BC9B-EF4509240B31";
shapes = (
{
ref = E;
},
{
pos = (73,0);
ref = circumflexcomb;
}
);
width = 534;
},
{
background = {
anchors = (
{
name = bottom;
pos = (268,0);
},
{
name = ogonek;
pos = (437,0);
},
{
name = top;
pos = (278,680);
}
);
hints = (
{
horizontal = 1;
origin = (0,11);
target = (0,2);
type = Stem;
},
{
horizontal = 1;
origin = (0,3);
target = (0,6);
type = Stem;
},
{
horizontal = 1;
origin = (0,10);
target = (0,7);
type = Stem;
},
{
origin = (0,11);
target = (0,2);
type = Stem;
},
{
horizontal = 1;
origin = (1,7);
target = (1,6);
type = Stem;
},
{
horizontal = 1;
place = (835,90);
type = Stem;
},
{
origin = (1,7);
target = (1,4);
type = Stem;
}
);
shapes = (
{
closed = 1;
nodes = (
(486,0,l),
(486,160,l),
(232,160,l),
(232,262,l),
(476,262,l),
(476,421,l),
(232,421,l),
(232,520,l),
(486,520,l),
(486,680,l),
(55,680,l),
(55,0,l)
);
},
{
closed = 1;
nodes = (
(202,717,l),
(302,872,l),
(255,872,l),
(354,717,l),
(480,717,l),
(346,925,l),
(211,925,l),
(77,717,l)
);
}
);
};
layerId = "20FD933E-5CCA-4ADC-839D-1BAE82A4B007";
shapes = (
{
ref = E;
},
{
pos = (56,7);
ref = circumflexcomb;
}
);
width = 527;
}
);
note = Ecircumflex;
unicode = 202;
},
{
color = 10;
glyphname = Edieresis;
lastChange = "2024-02-02 14:59:17 +0000";
layers = (
{
background = {
anchors = (
{
name = bottom;
pos = (289,0);
},
{
name = ogonek;
pos = (436,0);
},
{
name = top;
pos = (278,680);
}
);
hints = (
{
horizontal = 1;
origin = (0,11);
target = (0,2);
type = Stem;
},
{
horizontal = 1;
origin = (0,3);
target = (0,6);
type = Stem;
},
{
horizontal = 1;
origin = (0,10);
target = (0,7);
type = Stem;
},
{
origin = (0,11);
target = (0,2);
type = Stem;
},
{
horizontal = 1;
origin = (2,11);
target = (2,5);
type = Stem;
},
{
origin = (2,8);
target = (2,2);
type = Stem;
},
{
origin = (1,8);
target = (1,2);
type = Stem;
}
);
shapes = (
{
closed = 1;
nodes = (
(479,0,l),
(479,65,l),
(145,65,l),
(145,307,l),
(469,307,l),
(469,373,l),
(145,373,l),
(145,615,l),
(479,615,l),
(479,680,l),
(75,680,l),
(75,0,l)
);
},
{
closed = 1;
nodes = (
(380,733,o),
(400,752,o),
(400,778,cs),
(400,803,o),
(380,822,o),
(355,822,cs),
(330,822,o),
(311,803,o),
(311,778,cs),
(311,752,o),
(330,733,o),
(355,733,cs)
);
},
{
closed = 1;
nodes = (
(218,733,o),
(238,752,o),
(238,778,cs),
(238,803,o),
(218,822,o),
(193,822,cs),
(168,822,o),
(149,803,o),
(149,778,cs),
(149,752,o),
(168,733,o),
(193,733,cs)
);
}
);
};
layerId = m01;
shapes = (
{
ref = E;
},
{
pos = (43,-17);
ref = dieresiscomb;
}
);
width = 554;
},
{
background = {
anchors = (
{
name = bottom;
pos = (273,0);
},
{
name = ogonek;
pos = (437,0);
},
{
name = top;
pos = (278,680);
}
);
hints = (
{
horizontal = 1;
origin = (0,11);
target = (0,2);
type = Stem;
},
{
horizontal = 1;
origin = (0,3);
target = (0,6);
type = Stem;
},
{
horizontal = 1;
origin = (0,10);
target = (0,7);
type = Stem;
},
{
origin = (0,11);
target = (0,2);
type = Stem;
},
{
horizontal = 1;
origin = (2,11);
target = (2,5);
type = Stem;
},
{
origin = (2,8);
target = (2,2);
type = Stem;
},
{
origin = (1,8);
target = (1,2);
type = Stem;
}
);
shapes = (
{
closed = 1;
nodes = (
(484,0,l),
(484,136,l),
(210,136,l),
(210,273,l),
(474,273,l),
(474,409,l),
(210,409,l),
(210,544,l),
(484,544,l),
(484,680,l),
(60,680,l),
(60,0,l)
);
},
{
closed = 1;
nodes = (
(433,734,o),
(469,770,o),
(469,813,cs),
(469,857,o),
(433,892,o),
(390,892,cs),
(346,892,o),
(311,857,o),
(311,813,cs),
(311,770,o),
(346,734,o),
(390,734,cs)
);
},
{
closed = 1;
nodes = (
(191,734,o),
(227,770,o),
(227,813,cs),
(227,857,o),
(191,892,o),
(148,892,cs),
(104,892,o),
(69,857,o),
(69,813,cs),
(69,770,o),
(104,734,o),
(148,734,cs)
);
}
);
};
layerId = "B86D9C3C-D3FC-40C7-BC9B-EF4509240B31";
shapes = (
{
ref = E;
},
{
pos = (-2,-35);
ref = dieresiscomb;
}
);
width = 534;
},
{
background = {
anchors = (
{
name = bottom;
pos = (268,0);
},
{
name = ogonek;
pos = (437,0);
},
{
name = top;
pos = (278,680);
}
);
hints = (
{
horizontal = 1;
origin = (0,11);
target = (0,2);
type = Stem;
},
{
horizontal = 1;
origin = (0,3);
target = (0,6);
type = Stem;
},
{
horizontal = 1;
origin = (0,10);
target = (0,7);
type = Stem;
},
{
origin = (0,11);
target = (0,2);
type = Stem;
},
{
horizontal = 1;
origin = (2,11);
target = (2,5);
type = Stem;
},
{
origin = (2,8);
target = (2,2);
type = Stem;
},
{
origin = (1,8);
target = (1,2);
type = Stem;
}
);
shapes = (
{
closed = 1;
nodes = (
(486,0,l),
(486,160,l),
(232,160,l),
(232,262,l),
(476,262,l),
(476,421,l),
(232,421,l),
(232,520,l),
(486,520,l),
(486,680,l),
(55,680,l),
(55,0,l)
);
},
{
closed = 1;
nodes = (
(451,734,o),
(492,776,o),
(492,825,cs),
(492,875,o),
(451,915,o),
(402,915,cs),
(351,915,o),
(311,875,o),
(311,825,cs),
(311,776,o),
(351,734,o),
(402,734,cs)
);
},
{
closed = 1;
nodes = (
(182,734,o),
(223,776,o),
(223,825,cs),
(223,875,o),
(182,915,o),
(133,915,cs),
(83,915,o),
(42,875,o),
(42,825,cs),
(42,776,o),
(83,734,o),
(133,734,cs)
);
}
);
};
layerId = "20FD933E-5CCA-4ADC-839D-1BAE82A4B007";
shapes = (
{
ref = E;
},
{
pos = (-17,-41);
ref = dieresiscomb;
}
);
width = 527;
}
);
note = Edieresis;
unicode = 203;
},
{
color = 10;
glyphname = Edotaccent;
lastChange = "2024-02-02 14:59:17 +0000";
layers = (
{
background = {
anchors = (
{
name = bottom;
pos = (289,0);
},
{
name = ogonek;
pos = (436,0);
},
{
name = top;
pos = (278,680);
}
);
hints = (
{
horizontal = 1;
origin = (0,11);
target = (0,2);
type = Stem;
},
{
horizontal = 1;
origin = (0,3);
target = (0,6);
type = Stem;
},
{
horizontal = 1;
origin = (0,10);
target = (0,7);
type = Stem;
},
{
origin = (0,11);
target = (0,2);
type = Stem;
},
{
horizontal = 1;
origin = (1,11);
target = (1,5);
type = Stem;
},
{
origin = (1,8);
target = (1,2);
type = Stem;
}
);
shapes = (
{
closed = 1;
nodes = (
(479,0,l),
(479,65,l),
(145,65,l),
(145,307,l),
(469,307,l),
(469,373,l),
(145,373,l),
(145,615,l),
(479,615,l),
(479,680,l),
(75,680,l),
(75,0,l)
);
},
{
closed = 1;
nodes = (
(303,741,o),
(323,761,o),
(323,786,cs),
(323,810,o),
(303,830,o),
(279,830,cs),
(254,830,o),
(234,810,o),
(234,786,cs),
(234,761,o),
(254,741,o),
(279,741,cs)
);
}
);
};
layerId = m01;
shapes = (
{
ref = E;
},
{
pos = (164,225);
ref = dotaccentcomb;
}
);
width = 554;
},
{
background = {
anchors = (
{
name = bottom;
pos = (273,0);
},
{
name = ogonek;
pos = (437,0);
},
{
name = top;
pos = (278,680);
}
);
hints = (
{
horizontal = 1;
origin = (0,11);
target = (0,2);
type = Stem;
},
{
horizontal = 1;
origin = (0,3);
target = (0,6);
type = Stem;
},
{
horizontal = 1;
origin = (0,10);
target = (0,7);
type = Stem;
},
{
origin = (0,11);
target = (0,2);
type = Stem;
},
{
horizontal = 1;
origin = (1,11);
target = (1,5);
type = Stem;
},
{
origin = (1,8);
target = (1,2);
type = Stem;
}
);
shapes = (
{
closed = 1;
nodes = (
(484,0,l),
(484,136,l),
(210,136,l),
(210,273,l),
(474,273,l),
(474,409,l),
(210,409,l),
(210,544,l),
(484,544,l),
(484,680,l),
(60,680,l),
(60,0,l)
);
},
{
closed = 1;
nodes = (
(321,743,o),
(357,779,o),
(357,822,cs),
(357,866,o),
(321,901,o),
(278,901,cs),
(234,901,o),
(199,866,o),
(199,822,cs),
(199,779,o),
(234,743,o),
(278,743,cs)
);
}
);
};
layerId = "B86D9C3C-D3FC-40C7-BC9B-EF4509240B31";
shapes = (
{
ref = E;
},
{
pos = (138,230);
ref = dotaccentcomb;
}
);
width = 534;
},
{
background = {
anchors = (
{
name = bottom;
pos = (268,0);
},
{
name = ogonek;
pos = (437,0);
},
{
name = top;
pos = (278,680);
}
);
hints = (
{
horizontal = 1;
origin = (0,11);
target = (0,2);
type = Stem;
},
{
horizontal = 1;
origin = (0,3);
target = (0,6);
type = Stem;
},
{
horizontal = 1;
origin = (0,10);
target = (0,7);
type = Stem;
},
{
origin = (0,11);
target = (0,2);
type = Stem;
},
{
horizontal = 1;
origin = (1,11);
target = (1,5);
type = Stem;
},
{
origin = (1,8);
target = (1,2);
type = Stem;
}
);
shapes = (
{
closed = 1;
nodes = (
(486,0,l),
(486,160,l),
(232,160,l),
(232,262,l),
(476,262,l),
(476,421,l),
(232,421,l),
(232,520,l),
(486,520,l),
(486,680,l),
(55,680,l),
(55,0,l)
);
},
{
closed = 1;
nodes = (
(327,744,o),
(368,785,o),
(368,835,cs),
(368,885,o),
(327,925,o),
(278,925,cs),
(227,925,o),
(187,885,o),
(187,835,cs),
(187,785,o),
(227,744,o),
(278,744,cs)
);
}
);
};
layerId = "20FD933E-5CCA-4ADC-839D-1BAE82A4B007";
shapes = (
{
ref = E;
},
{
pos = (129,232);
ref = dotaccentcomb;
}
);
width = 527;
}
);
unicode = 278;
},
{
color = 10;
glyphname = Egrave;
lastChange = "2024-02-02 14:59:17 +0000";
layers = (
{
background = {
anchors = (
{
name = bottom;
pos = (289,0);
},
{
name = ogonek;
pos = (436,0);
},
{
name = top;
pos = (278,680);
}
);
hints = (
{
horizontal = 1;
origin = (0,11);
target = (0,2);
type = Stem;
},
{
horizontal = 1;
origin = (0,3);
target = (0,6);
type = Stem;
},
{
horizontal = 1;
origin = (0,10);
target = (0,7);
type = Stem;
},
{
origin = (0,11);
target = (0,2);
type = Stem;
},
{
horizontal = 1;
origin = (1,3);
target = (1,2);
type = Stem;
},
{
origin = (1,2);
target = (1,0);
type = Stem;
}
);
shapes = (
{
closed = 1;
nodes = (
(479,0,l),
(479,65,l),
(145,65,l),
(145,307,l),
(469,307,l),
(469,373,l),
(145,373,l),
(145,615,l),
(479,615,l),
(479,680,l),
(75,680,l),
(75,0,l)
);
},
{
closed = 1;
nodes = (
(299,722,l),
(209,865,l),
(133,865,l),
(243,722,l)
);
}
);
};
layerId = m01;
shapes = (
{
ref = E;
},
{
pos = (133,-28);
ref = gravecomb;
}
);
width = 554;
},
{
background = {
anchors = (
{
name = bottom;
pos = (273,0);
},
{
name = ogonek;
pos = (437,0);
},
{
name = top;
pos = (278,680);
}
);
hints = (
{
horizontal = 1;
origin = (0,11);
target = (0,2);
type = Stem;
},
{
horizontal = 1;
origin = (0,3);
target = (0,6);
type = Stem;
},
{
horizontal = 1;
origin = (0,10);
target = (0,7);
type = Stem;
},
{
origin = (0,11);
target = (0,2);
type = Stem;
},
{
horizontal = 1;
origin = (1,3);
target = (1,2);
type = Stem;
},
{
origin = (1,2);
target = (1,0);
type = Stem;
}
);
shapes = (
{
closed = 1;
nodes = (
(484,0,l),
(484,136,l),
(210,136,l),
(210,273,l),
(474,273,l),
(474,409,l),
(210,409,l),
(210,544,l),
(484,544,l),
(484,680,l),
(60,680,l),
(60,0,l)
);
},
{
closed = 1;
nodes = (
(325,719,l),
(207,898,l),
(79,898,l),
(213,719,l)
);
}
);
};
layerId = "B86D9C3C-D3FC-40C7-BC9B-EF4509240B31";
shapes = (
{
ref = E;
},
{
pos = (36,-31);
ref = gravecomb;
}
);
width = 534;
},
{
background = {
anchors = (
{
name = bottom;
pos = (268,0);
},
{
name = ogonek;
pos = (437,0);
},
{
name = top;
pos = (278,680);
}
);
hints = (
{
horizontal = 1;
origin = (0,11);
target = (0,2);
type = Stem;
},
{
horizontal = 1;
origin = (0,3);
target = (0,6);
type = Stem;
},
{
horizontal = 1;
origin = (0,10);
target = (0,7);
type = Stem;
},
{
origin = (0,11);
target = (0,2);
type = Stem;
},
{
horizontal = 1;
origin = (1,3);
target = (1,2);
type = Stem;
},
{
origin = (1,2);
target = (1,0);
type = Stem;
}
);
shapes = (
{
closed = 1;
nodes = (
(486,0,l),
(486,160,l),
(232,160,l),
(232,262,l),
(476,262,l),
(476,421,l),
(232,421,l),
(232,520,l),
(486,520,l),
(486,680,l),
(55,680,l),
(55,0,l)
);
},
{
closed = 1;
nodes = (
(334,718,l),
(207,909,l),
(61,909,l),
(203,718,l)
);
}
);
};
layerId = "20FD933E-5CCA-4ADC-839D-1BAE82A4B007";
shapes = (
{
ref = E;
},
{
pos = (4,-32);
ref = gravecomb;
}
);
width = 527;
}
);
note = Egrave;
unicode = 200;
},
{
color = 10;
glyphname = Emacron;
lastChange = "2024-02-02 14:59:17 +0000";
layers = (
{
background = {
anchors = (
{
name = bottom;
pos = (289,0);
},
{
name = ogonek;
pos = (436,0);
},
{
name = top;
pos = (278,680);
}
);
hints = (
{
horizontal = 1;
origin = (0,11);
target = (0,2);
type = Stem;
},
{
horizontal = 1;
origin = (0,3);
target = (0,6);
type = Stem;
},
{
horizontal = 1;
origin = (0,10);
target = (0,7);
type = Stem;
},
{
origin = (0,11);
target = (0,2);
type = Stem;
},
{
horizontal = 1;
origin = (1,3);
target = (1,2);
type = Stem;
}
);
shapes = (
{
closed = 1;
nodes = (
(479,0,l),
(479,65,l),
(145,65,l),
(145,307,l),
(469,307,l),
(469,373,l),
(145,373,l),
(145,615,l),
(479,615,l),
(479,680,l),
(75,680,l),
(75,0,l)
);
},
{
closed = 1;
nodes = (
(469,758,l),
(469,815,l),
(86,815,l),
(86,758,l)
);
}
);
};
layerId = m01;
shapes = (
{
ref = E;
},
{
pos = (2,8);
ref = macroncomb;
}
);
width = 554;
},
{
background = {
anchors = (
{
name = bottom;
pos = (273,0);
},
{
name = ogonek;
pos = (437,0);
},
{
name = top;
pos = (278,680);
}
);
hints = (
{
horizontal = 1;
origin = (0,11);
target = (0,2);
type = Stem;
},
{
horizontal = 1;
origin = (0,3);
target = (0,6);
type = Stem;
},
{
horizontal = 1;
origin = (0,10);
target = (0,7);
type = Stem;
},
{
origin = (0,11);
target = (0,2);
type = Stem;
},
{
horizontal = 1;
origin = (1,3);
target = (1,2);
type = Stem;
},
{
origin = (1,3);
target = (1,0);
type = Stem;
}
);
shapes = (
{
closed = 1;
nodes = (
(484,0,l),
(484,136,l),
(210,136,l),
(210,273,l),
(474,273,l),
(474,409,l),
(210,409,l),
(210,544,l),
(484,544,l),
(484,680,l),
(60,680,l),
(60,0,l)
);
},
{
closed = 1;
nodes = (
(481,749,l),
(481,848,l),
(70,848,l),
(70,749,l)
);
}
);
};
layerId = "B86D9C3C-D3FC-40C7-BC9B-EF4509240B31";
shapes = (
{
ref = E;
},
{
pos = (3,-1);
ref = macroncomb;
}
);
width = 534;
},
{
background = {
anchors = (
{
name = bottom;
pos = (268,0);
},
{
name = ogonek;
pos = (437,0);
},
{
name = top;
pos = (278,680);
}
);
hints = (
{
horizontal = 1;
origin = (0,11);
target = (0,2);
type = Stem;
},
{
horizontal = 1;
origin = (0,3);
target = (0,6);
type = Stem;
},
{
horizontal = 1;
origin = (0,10);
target = (0,7);
type = Stem;
},
{
origin = (0,11);
target = (0,2);
type = Stem;
},
{
horizontal = 1;
origin = (1,3);
target = (1,2);
type = Stem;
},
{
origin = (1,3);
target = (1,0);
type = Stem;
}
);
shapes = (
{
closed = 1;
nodes = (
(486,0,l),
(486,160,l),
(232,160,l),
(232,262,l),
(476,262,l),
(476,421,l),
(232,421,l),
(232,520,l),
(486,520,l),
(486,680,l),
(55,680,l),
(55,0,l)
);
},
{
closed = 1;
nodes = (
(485,746,l),
(485,859,l),
(64,859,l),
(64,746,l)
);
}
);
};
layerId = "20FD933E-5CCA-4ADC-839D-1BAE82A4B007";
shapes = (
{
ref = E;
},
{
pos = (3,-4);
ref = macroncomb;
}
);
width = 527;
}
);
unicode = 274;
},
{
color = 10;
glyphname = Eogonek;
lastChange = "2024-02-02 14:59:17 +0000";
layers = (
{
background = {
anchors = (
{
name = bottom;
pos = (289,0);
},
{
name = ogonek;
pos = (436,0);
},
{
name = top;
pos = (278,680);
}
);
hints = (
{
horizontal = 1;
origin = (0,11);
target = (0,2);
type = Stem;
},
{
horizontal = 1;
origin = (0,3);
target = (0,6);
type = Stem;
},
{
horizontal = 1;
origin = (0,10);
target = (0,7);
type = Stem;
},
{
origin = (0,11);
target = (0,2);
type = Stem;
},
{
horizontal = 1;
origin = (1,19);
target = (1,13);
type = Stem;
},
{
horizontal = 1;
origin = (1,19);
target = (1,6);
type = Stem;
},
{
origin = (1,16);
target = (1,9);
type = Stem;
}
);
shapes = (
{
closed = 1;
nodes = (
(479,0,l),
(479,65,l),
(145,65,l),
(145,307,l),
(469,307,l),
(469,373,l),
(145,373,l),
(145,615,l),
(479,615,l),
(479,680,l),
(75,680,l),
(75,0,l)
);
},
{
closed = 1;
nodes = (
(431,-140,o),
(452,-135,o),
(465,-124,c),
(464,-69,l),
(452,-79,o),
(432,-87,o),
(424,-87,cs),
(414,-87,o),
(399,-82,o),
(399,-64,c),
(399,-46,o),
(418,-17,o),
(444,2,c),
(386,2,l),
(360,-18,o),
(342,-50,o),
(342,-82,cs),
(342,-113,o),
(374,-140,o),
(410,-140,c)
);
}
);
};
layerId = m01;
shapes = (
{
ref = E;
},
{
pos = (27,0);
ref = ogonekcomb;
}
);
width = 554;
},
{
background = {
anchors = (
{
name = bottom;
pos = (273,0);
},
{
name = ogonek;
pos = (437,0);
},
{
name = top;
pos = (278,680);
}
);
hints = (
{
horizontal = 1;
origin = (0,11);
target = (0,2);
type = Stem;
},
{
horizontal = 1;
origin = (0,3);
target = (0,6);
type = Stem;
},
{
horizontal = 1;
origin = (0,10);
target = (0,7);
type = Stem;
},
{
origin = (0,11);
target = (0,2);
type = Stem;
},
{
horizontal = 1;
origin = (1,19);
target = (1,6);
type = Stem;
},
{
horizontal = 1;
origin = (1,19);
target = (1,13);
type = Stem;
},
{
origin = (1,16);
target = (1,9);
type = Stem;
}
);
shapes = (
{
closed = 1;
nodes = (
(484,0,l),
(484,136,l),
(210,136,l),
(210,273,l),
(474,273,l),
(474,409,l),
(210,409,l),
(210,544,l),
(484,544,l),
(484,680,l),
(60,680,l),
(60,0,l)
);
},
{
closed = 1;
nodes = (
(427,-247,o),
(462,-235,o),
(487,-214,c),
(486,-102,l),
(460,-127,o),
(429,-137,o),
(408,-137,cs),
(391,-137,o),
(381,-125,o),
(381,-104,cs),
(381,-81,o),
(407,-34,o),
(448,4,c),
(348,4,l),
(305,-35,o),
(281,-93,o),
(281,-138,cs),
(281,-195,o),
(320,-247,o),
(389,-247,cs)
);
}
);
};
layerId = "B86D9C3C-D3FC-40C7-BC9B-EF4509240B31";
shapes = (
{
ref = E;
},
{
pos = (1,0);
ref = ogonekcomb;
}
);
width = 534;
},
{
background = {
anchors = (
{
name = bottom;
pos = (268,0);
},
{
name = ogonek;
pos = (437,0);
},
{
name = top;
pos = (278,680);
}
);
hints = (
{
horizontal = 1;
origin = (0,11);
target = (0,2);
type = Stem;
},
{
horizontal = 1;
origin = (0,3);
target = (0,6);
type = Stem;
},
{
horizontal = 1;
origin = (0,10);
target = (0,7);
type = Stem;
},
{
origin = (0,11);
target = (0,2);
type = Stem;
},
{
horizontal = 1;
origin = (1,19);
target = (1,6);
type = Stem;
},
{
horizontal = 1;
origin = (1,19);
target = (1,13);
type = Stem;
},
{
origin = (1,16);
target = (1,9);
type = Stem;
}
);
shapes = (
{
closed = 1;
nodes = (
(486,0,l),
(486,160,l),
(232,160,l),
(232,262,l),
(476,262,l),
(476,421,l),
(232,421,l),
(232,520,l),
(486,520,l),
(486,680,l),
(55,680,l),
(55,0,l)
);
},
{
closed = 1;
nodes = (
(425,-283,o),
(465,-268,o),
(494,-244,c),
(493,-113,l),
(462,-143,o),
(428,-154,o),
(402,-154,cs),
(383,-154,o),
(375,-139,o),
(375,-117,c),
(375,-93,o),
(403,-40,o),
(449,5,c),
(335,5,l),
(286,-41,o),
(260,-107,o),
(260,-157,cs),
(260,-222,o),
(302,-283,o),
(382,-283,c)
);
}
);
};
layerId = "20FD933E-5CCA-4ADC-839D-1BAE82A4B007";
shapes = (
{
ref = E;
},
{
pos = (-8,0);
ref = ogonekcomb;
}
);
width = 527;
}
);
unicode = 280;
},
{
color = 6;
glyphname = F;
lastChange = "2024-02-02 14:53:56 +0000";
layers = (
{
background = {
shapes = (
{
closed = 1;
nodes = (
(145,0,l),
(145,307,l),
(469,307,l),
(469,373,l),
(145,373,l),
(145,615,l),
(479,615,l),
(479,680,l),
(75,680,l),
(75,0,l)
);
}
);
};
hints = (
{
horizontal = 1;
origin = (0,9);
target = up;
type = BottomGhost;
},
{
horizontal = 1;
origin = (0,1);
target = (0,4);
type = Stem;
},
{
horizontal = 1;
origin = (0,8);
target = (0,5);
type = Stem;
},
{
origin = (0,9);
target = (0,0);
type = Stem;
}
);
layerId = m01;
shapes = (
{
closed = 1;
nodes = (
(145,0,l),
(145,307,l),
(469,307,l),
(469,373,l),
(145,373,l),
(145,615,l),
(479,615,l),
(479,680,l),
(75,680,l),
(75,0,l)
);
}
);
width = 499;
},
{
background = {
shapes = (
{
closed = 1;
nodes = (
(210,0,l),
(210,273,l),
(464,273,l),
(464,409,l),
(210,409,l),
(210,544,l),
(474,544,l),
(474,680,l),
(60,680,l),
(60,0,l)
);
}
);
};
hints = (
{
horizontal = 1;
origin = (0,9);
target = up;
type = BottomGhost;
},
{
horizontal = 1;
origin = (0,1);
target = (0,4);
type = Stem;
},
{
horizontal = 1;
origin = (0,8);
target = (0,5);
type = Stem;
},
{
origin = (0,9);
target = (0,0);
type = Stem;
}
);
layerId = "B86D9C3C-D3FC-40C7-BC9B-EF4509240B31";
shapes = (
{
closed = 1;
nodes = (
(210,0,l),
(210,273,l),
(464,273,l),
(464,409,l),
(210,409,l),
(210,544,l),
(474,544,l),
(474,680,l),
(60,680,l),
(60,0,l)
);
}
);
width = 514;
},
{
background = {
shapes = (
{
closed = 1;
nodes = (
(232,0,l),
(232,262,l),
(462,262,l),
(462,421,l),
(232,421,l),
(232,520,l),
(472,520,l),
(472,680,l),
(55,680,l),
(55,0,l)
);
}
);
};
hints = (
{
horizontal = 1;
origin = (0,9);
target = up;
type = BottomGhost;
},
{
horizontal = 1;
origin = (0,1);
target = (0,4);
type = Stem;
},
{
horizontal = 1;
origin = (0,8);
target = (0,5);
type = Stem;
},
{
origin = (0,9);
target = (0,0);
type = Stem;
}
);
layerId = "20FD933E-5CCA-4ADC-839D-1BAE82A4B007";
shapes = (
{
closed = 1;
nodes = (
(232,0,l),
(232,262,l),
(462,262,l),
(462,421,l),
(232,421,l),
(232,520,l),
(472,520,l),
(472,680,l),
(55,680,l),
(55,0,l)
);
}
);
width = 519;
}
);
note = F;
unicode = 70;
},
{
color = 6;
glyphname = G;
kernLeft = COG;
kernRight = DOC;
lastChange = "2024-02-02 14:53:56 +0000";
layers = (
{
anchors = (
{
name = bottom;
pos = (396,-9);
},
{
name = top;
pos = (388,689);
}
);
background = {
anchors = (
{
name = bottom;
pos = (396,-9);
},
{
name = top;
pos = (388,689);
}
);
shapes = (
{
closed = 1;
nodes = (
(557,-8,o),
(709,106,o),
(739,276,cs),
(746,318,l),
(392,318,l),
(392,257,l),
(668,257,l),
(628,139,o),
(519,62,o),
(395,62,cs),
(237,62,o),
(115,189,o),
(115,343,cs),
(115,499,o),
(239,623,o),
(395,623,cs),
(513,623,o),
(614,552,o),
(657,442,c),
(731,442,l),
(686,591,o),
(553,693,o),
(388,693,cs),
(196,693,o),
(45,527,o),
(45,342.5,cs),
(45,147,o),
(204,-8,o),
(395,-8,cs)
);
}
);
};
hints = (
{
horizontal = 1;
origin = (0,28);
target = (0,9);
type = Stem;
},
{
horizontal = 1;
origin = (0,5);
target = (0,4);
type = Stem;
},
{
horizontal = 1;
origin = (0,22);
target = (0,15);
type = Stem;
},
{
origin = (0,25);
target = (0,12);
type = Stem;
}
);
layerId = m01;
shapes = (
{
closed = 1;
nodes = (
(557,-8,o),
(709,106,o),
(739,276,cs),
(746,318,l),
(392,318,l),
(392,257,l),
(668,257,l),
(628,139,o),
(519,62,o),
(395,62,cs),
(237,62,o),
(115,189,o),
(115,343,cs),
(115,499,o),
(239,623,o),
(395,623,cs),
(513,623,o),
(614,552,o),
(657,442,c),
(731,442,l),
(686,591,o),
(553,693,o),
(388,693,cs),
(196,693,o),
(45,527,o),
(45,342.5,cs),
(45,147,o),
(204,-8,o),
(395,-8,cs)
);
}
);
width = 791;
},
{
anchors = (
{
name = bottom;
pos = (400,-10);
},
{
name = top;
pos = (400,674);
}
);
background = {
anchors = (
{
name = bottom;
pos = (400,-10);
},
{
name = top;
pos = (400,674);
}
);
shapes = (
{
closed = 1;
nodes = (
(594,-10,o),
(749,147,o),
(749,340,cs),
(749,363,l),
(414,363,l),
(414,250,l),
(587,250,l),
(550,147,o),
(466,126,o),
(400,126,cs),
(292,126,o),
(202,223,o),
(202,338,cs),
(202,453,o),
(292,550,o),
(400,550,cs),
(466,550,o),
(534,523,o),
(567,451,c),
(732,451,l),
(685,592,o),
(550,690,o),
(400,690,cs),
(208,690,o),
(50,532,o),
(50,340,cs),
(50,148,o),
(208,-10,o),
(400,-10,cs)
);
}
);
};
hints = (
{
horizontal = 1;
origin = (0,28);
target = (0,9);
type = Stem;
},
{
horizontal = 1;
origin = (0,5);
target = (0,4);
type = Stem;
},
{
horizontal = 1;
origin = (0,22);
target = (0,15);
type = Stem;
},
{
origin = (0,25);
target = (0,12);
type = Stem;
}
);
layerId = "B86D9C3C-D3FC-40C7-BC9B-EF4509240B31";
shapes = (
{
closed = 1;
nodes = (
(594,-10,o),
(749,147,o),
(749,340,cs),
(749,363,l),
(414,363,l),
(414,250,l),
(587,250,l),
(550,147,o),
(466,126,o),
(400,126,cs),
(292,126,o),
(202,223,o),
(202,338,cs),
(202,453,o),
(292,550,o),
(400,550,cs),
(466,550,o),
(534,523,o),
(567,451,c),
(732,451,l),
(685,592,o),
(550,690,o),
(400,690,cs),
(208,690,o),
(50,532,o),
(50,340,cs),
(50,148,o),
(208,-10,o),
(400,-10,cs)
);
}
);
width = 784;
},
{
anchors = (
{
name = bottom;
pos = (401,-10);
},
{
name = top;
pos = (404,669);
}
);
background = {
anchors = (
{
name = bottom;
pos = (401,-10);
},
{
name = top;
pos = (404,669);
}
);
shapes = (
{
closed = 1;
nodes = (
(606,-11,o),
(762,161,o),
(752,361,cs),
(750,378,l),
(421,378,l),
(421,248,l),
(560,248,l),
(524,150,o),
(448,147,o),
(402,147,cs),
(310,147,o),
(231,234,o),
(231,336,cs),
(231,438,o),
(310,526,o),
(402,526,cs),
(450,526,o),
(507,513,o),
(537,454,c),
(732,454,l),
(685,592,o),
(549,689,o),
(404,689,cs),
(212,689,o),
(52,534,o),
(52,339,cs),
(52,148,o),
(209,-11,o),
(402,-11,cs)
);
}
);
};
hints = (
{
horizontal = 1;
origin = (0,28);
target = (0,9);
type = Stem;
},
{
horizontal = 1;
origin = (0,5);
target = (0,4);
type = Stem;
},
{
horizontal = 1;
origin = (0,22);
target = (0,15);
type = Stem;
},
{
origin = (0,25);
target = (0,12);
type = Stem;
}
);
layerId = "20FD933E-5CCA-4ADC-839D-1BAE82A4B007";
shapes = (
{
closed = 1;
nodes = (
(606,-11,o),
(762,161,o),
(752,361,cs),
(750,378,l),
(421,378,l),
(421,248,l),
(560,248,l),
(524,150,o),
(448,147,o),
(402,147,cs),
(310,147,o),
(231,234,o),
(231,336,cs),
(231,438,o),
(310,526,o),
(402,526,cs),
(450,526,o),
(507,513,o),
(537,454,c),
(732,454,l),
(685,592,o),
(549,689,o),
(404,689,cs),
(212,689,o),
(52,534,o),
(52,339,cs),
(52,148,o),
(209,-11,o),
(402,-11,cs)
);
}
);
width = 782;
}
);
note = G;
unicode = 71;
},
{
color = 10;
glyphname = Gbreve;
lastChange = "2024-02-02 14:59:17 +0000";
layers = (
{
background = {
anchors = (
{
name = bottom;
pos = (396,-9);
},
{
name = top;
pos = (388,689);
}
);
hints = (
{
horizontal = 1;
origin = (0,28);
target = (0,9);
type = Stem;
},
{
horizontal = 1;
origin = (0,5);
target = (0,4);
type = Stem;
},
{
horizontal = 1;
origin = (0,22);
target = (0,15);
type = Stem;
},
{
origin = (0,25);
target = (0,12);
type = Stem;
},
{
horizontal = 1;
origin = (1,10);
target = (1,3);
type = Stem;
},
{
origin = (1,7);
target = (1,6);
type = Stem;
},
{
origin = (1,0);
target = (1,13);
type = Stem;
}
);
shapes = (
{
closed = 1;
nodes = (
(557,-8,o),
(709,106,o),
(739,276,cs),
(746,318,l),
(392,318,l),
(392,257,l),
(668,257,l),
(628,139,o),
(519,62,o),
(395,62,cs),
(237,62,o),
(115,189,o),
(115,343,cs),
(115,499,o),
(239,623,o),
(395,623,cs),
(513,623,o),
(614,552,o),
(657,442,c),
(731,442,l),
(686,591,o),
(553,693,o),
(388,693,cs),
(196,693,o),
(45,527,o),
(45,342.5,cs),
(45,147,o),
(204,-8,o),
(395,-8,cs)
);
},
{
closed = 1;
nodes = (
(456,869,l),
(456,833,o),
(426,799,o),
(389,799,cs),
(350,799,o),
(319,833,o),
(319,869,c),
(246,869,l),
(246,800,o),
(313,739,o),
(386,739,cs),
(464,739,o),
(526,803,o),
(526,869,c)
);
}
);
};
layerId = m01;
shapes = (
{
ref = G;
},
{
pos = (213,-13);
ref = brevecomb;
}
);
width = 791;
},
{
background = {
anchors = (
{
name = bottom;
pos = (400,-10);
},
{
name = top;
pos = (400,674);
}
);
hints = (
{
horizontal = 1;
origin = (0,28);
target = (0,9);
type = Stem;
},
{
horizontal = 1;
origin = (0,5);
target = (0,4);
type = Stem;
},
{
horizontal = 1;
origin = (0,22);
target = (0,15);
type = Stem;
},
{
origin = (0,25);
target = (0,12);
type = Stem;
},
{
horizontal = 1;
origin = (1,10);
target = (1,7);
type = Stem;
},
{
horizontal = 1;
origin = (1,10);
target = (1,3);
type = Stem;
},
{
origin = (1,7);
target = (1,6);
type = Stem;
},
{
origin = (1,0);
target = (1,13);
type = Stem;
}
);
shapes = (
{
closed = 1;
nodes = (
(594,-10,o),
(749,147,o),
(749,340,cs),
(749,363,l),
(414,363,l),
(414,250,l),
(587,250,l),
(550,147,o),
(466,126,o),
(400,126,cs),
(292,126,o),
(202,223,o),
(202,338,cs),
(202,453,o),
(292,550,o),
(400,550,cs),
(466,550,o),
(534,523,o),
(567,451,c),
(732,451,l),
(685,592,o),
(550,690,o),
(400,690,cs),
(208,690,o),
(50,532,o),
(50,340,cs),
(50,148,o),
(208,-10,o),
(400,-10,cs)
);
},
{
closed = 1;
nodes = (
(460,919,l),
(460,877,o),
(442,833,o),
(399,833,cs),
(356,833,o),
(337,877,o),
(337,919,c),
(240,919,l),
(240,803,o),
(310,741,o),
(399,741,cs),
(487,741,o),
(557,803,o),
(557,919,c)
);
}
);
};
layerId = "B86D9C3C-D3FC-40C7-BC9B-EF4509240B31";
shapes = (
{
ref = G;
},
{
pos = (174,-7);
ref = brevecomb;
}
);
width = 784;
},
{
background = {
anchors = (
{
name = bottom;
pos = (401,-10);
},
{
name = top;
pos = (404,669);
}
);
hints = (
{
horizontal = 1;
origin = (0,28);
target = (0,9);
type = Stem;
},
{
horizontal = 1;
origin = (0,5);
target = (0,4);
type = Stem;
},
{
horizontal = 1;
origin = (0,22);
target = (0,15);
type = Stem;
},
{
origin = (0,25);
target = (0,12);
type = Stem;
},
{
horizontal = 1;
origin = (1,10);
target = (1,7);
type = Stem;
},
{
horizontal = 1;
origin = (1,10);
target = (1,3);
type = Stem;
},
{
origin = (1,7);
target = (1,6);
type = Stem;
},
{
origin = (1,0);
target = (1,13);
type = Stem;
}
);
shapes = (
{
closed = 1;
nodes = (
(606,-11,o),
(762,161,o),
(752,361,cs),
(750,378,l),
(421,378,l),
(421,248,l),
(560,248,l),
(524,150,o),
(448,147,o),
(402,147,cs),
(310,147,o),
(231,234,o),
(231,336,cs),
(231,438,o),
(310,526,o),
(402,526,cs),
(450,526,o),
(507,513,o),
(537,454,c),
(732,454,l),
(685,592,o),
(549,689,o),
(404,689,cs),
(212,689,o),
(52,534,o),
(52,339,cs),
(52,148,o),
(209,-11,o),
(402,-11,cs)
);
},
{
closed = 1;
nodes = (
(461,936,l),
(461,892,o),
(447,844,o),
(402,844,cs),
(358,844,o),
(343,892,o),
(343,936,c),
(238,936,l),
(238,804,o),
(309,742,o),
(403,742,cs),
(495,742,o),
(567,803,o),
(567,936,c)
);
}
);
};
layerId = "20FD933E-5CCA-4ADC-839D-1BAE82A4B007";
shapes = (
{
ref = G;
},
{
pos = (161,-5);
ref = brevecomb;
}
);
width = 782;
}
);
unicode = 286;
},
{
color = 10;
glyphname = Gcommaaccent;
lastChange = "2024-02-02 14:59:17 +0000";
layers = (
{
background = {
anchors = (
{
name = bottom;
pos = (396,-9);
},
{
name = top;
pos = (388,689);
}
);
hints = (
{
horizontal = 1;
origin = (0,28);
target = (0,9);
type = Stem;
},
{
horizontal = 1;
origin = (0,5);
target = (0,4);
type = Stem;
},
{
horizontal = 1;
origin = (0,22);
target = (0,15);
type = Stem;
},
{
origin = (0,25);
target = (0,12);
type = Stem;
},
{
horizontal = 1;
origin = (1,3);
target = (1,2);
type = Stem;
},
{
origin = (1,3);
target = (1,1);
type = Stem;
}
);
shapes = (
{
closed = 1;
nodes = (
(557,-8,o),
(709,106,o),
(739,276,cs),
(746,318,l),
(392,318,l),
(392,257,l),
(668,257,l),
(628,139,o),
(519,62,o),
(395,62,cs),
(237,62,o),
(115,189,o),
(115,343,cs),
(115,499,o),
(239,623,o),
(395,623,cs),
(513,623,o),
(614,552,o),
(657,442,c),
(731,442,l),
(686,591,o),
(553,693,o),
(388,693,cs),
(196,693,o),
(45,527,o),
(45,342.5,cs),
(45,147,o),
(204,-8,o),
(395,-8,cs)
);
},
{
closed = 1;
nodes = (
(363,-189,l),
(463,-55,l),
(387,-55,l),
(307,-189,l)
);
}
);
};
layerId = m01;
shapes = (
{
ref = G;
},
{
pos = (264,-8);
ref = commaaccentcomb;
}
);
width = 791;
},
{
background = {
anchors = (
{
name = bottom;
pos = (400,-10);
},
{
name = top;
pos = (400,674);
}
);
hints = (
{
horizontal = 1;
origin = (0,28);
target = (0,9);
type = Stem;
},
{
horizontal = 1;
origin = (0,5);
target = (0,4);
type = Stem;
},
{
horizontal = 1;
origin = (0,22);
target = (0,15);
type = Stem;
},
{
origin = (0,25);
target = (0,12);
type = Stem;
},
{
horizontal = 1;
origin = (1,3);
target = (1,2);
type = Stem;
},
{
origin = (1,3);
target = (1,1);
type = Stem;
}
);
shapes = (
{
closed = 1;
nodes = (
(594,-10,o),
(749,147,o),
(749,340,cs),
(749,363,l),
(414,363,l),
(414,250,l),
(587,250,l),
(550,147,o),
(466,126,o),
(400,126,cs),
(292,126,o),
(202,223,o),
(202,338,cs),
(202,453,o),
(292,550,o),
(400,550,cs),
(466,550,o),
(534,523,o),
(567,451,c),
(732,451,l),
(685,592,o),
(550,690,o),
(400,690,cs),
(208,690,o),
(50,532,o),
(50,340,cs),
(50,148,o),
(208,-10,o),
(400,-10,cs)
);
},
{
closed = 1;
nodes = (
(376,-234,l),
(510,-55,l),
(382,-55,l),
(264,-234,l)
);
}
);
};
layerId = "B86D9C3C-D3FC-40C7-BC9B-EF4509240B31";
shapes = (
{
ref = G;
},
{
pos = (221,-21);
ref = commaaccentcomb;
}
);
width = 784;
},
{
background = {
anchors = (
{
name = bottom;
pos = (401,-10);
},
{
name = top;
pos = (404,669);
}
);
hints = (
{
horizontal = 1;
origin = (0,28);
target = (0,9);
type = Stem;
},
{
horizontal = 1;
origin = (0,5);
target = (0,4);
type = Stem;
},
{
horizontal = 1;
origin = (0,22);
target = (0,15);
type = Stem;
},
{
origin = (0,25);
target = (0,12);
type = Stem;
},
{
horizontal = 1;
origin = (1,3);
target = (1,2);
type = Stem;
},
{
origin = (1,3);
target = (1,1);
type = Stem;
}
);
shapes = (
{
closed = 1;
nodes = (
(606,-11,o),
(762,161,o),
(752,361,cs),
(750,378,l),
(421,378,l),
(421,248,l),
(560,248,l),
(524,150,o),
(448,147,o),
(402,147,cs),
(310,147,o),
(231,234,o),
(231,336,cs),
(231,438,o),
(310,526,o),
(402,526,cs),
(450,526,o),
(507,513,o),
(537,454,c),
(732,454,l),
(685,592,o),
(549,689,o),
(404,689,cs),
(212,689,o),
(52,534,o),
(52,339,cs),
(52,148,o),
(209,-11,o),
(402,-11,cs)
);
},
{
closed = 1;
nodes = (
(380,-249,l),
(526,-55,l),
(380,-55,l),
(250,-249,l)
);
}
);
};
layerId = "20FD933E-5CCA-4ADC-839D-1BAE82A4B007";
shapes = (
{
ref = G;
},
{
pos = (206,-25);
ref = commaaccentcomb;
}
);
width = 782;
}
);
unicode = 290;
},
{
color = 10;
glyphname = Gdotaccent;
lastChange = "2024-02-02 14:59:17 +0000";
layers = (
{
background = {
anchors = (
{
name = bottom;
pos = (396,-9);
},
{
name = top;
pos = (388,689);
}
);
hints = (
{
horizontal = 1;
origin = (0,28);
target = (0,9);
type = Stem;
},
{
horizontal = 1;
origin = (0,5);
target = (0,4);
type = Stem;
},
{
horizontal = 1;
origin = (0,22);
target = (0,15);
type = Stem;
},
{
origin = (0,25);
target = (0,12);
type = Stem;
},
{
horizontal = 1;
origin = (1,11);
target = (1,5);
type = Stem;
},
{
origin = (1,8);
target = (1,2);
type = Stem;
}
);
shapes = (
{
closed = 1;
nodes = (
(557,-8,o),
(709,106,o),
(739,276,cs),
(746,318,l),
(392,318,l),
(392,257,l),
(668,257,l),
(628,139,o),
(519,62,o),
(395,62,cs),
(237,62,o),
(115,189,o),
(115,343,cs),
(115,499,o),
(239,623,o),
(395,623,cs),
(513,623,o),
(614,552,o),
(657,442,c),
(731,442,l),
(686,591,o),
(553,693,o),
(388,693,cs),
(196,693,o),
(45,527,o),
(45,342.5,cs),
(45,147,o),
(204,-8,o),
(395,-8,cs)
);
},
{
closed = 1;
nodes = (
(413,750,o),
(433,770,o),
(433,795,cs),
(433,819,o),
(413,839,o),
(389,839,cs),
(364,839,o),
(344,819,o),
(344,795,cs),
(344,770,o),
(364,750,o),
(389,750,cs)
);
}
);
};
layerId = m01;
shapes = (
{
ref = G;
},
{
pos = (274,234);
ref = dotaccentcomb;
}
);
width = 791;
},
{
background = {
anchors = (
{
name = bottom;
pos = (400,-10);
},
{
name = top;
pos = (400,674);
}
);
hints = (
{
horizontal = 1;
origin = (0,28);
target = (0,9);
type = Stem;
},
{
horizontal = 1;
origin = (0,5);
target = (0,4);
type = Stem;
},
{
horizontal = 1;
origin = (0,22);
target = (0,15);
type = Stem;
},
{
origin = (0,25);
target = (0,12);
type = Stem;
},
{
horizontal = 1;
origin = (1,11);
target = (1,5);
type = Stem;
},
{
origin = (1,8);
target = (1,2);
type = Stem;
}
);
shapes = (
{
closed = 1;
nodes = (
(594,-10,o),
(749,147,o),
(749,340,cs),
(749,363,l),
(414,363,l),
(414,250,l),
(587,250,l),
(550,147,o),
(466,126,o),
(400,126,cs),
(292,126,o),
(202,223,o),
(202,338,cs),
(202,453,o),
(292,550,o),
(400,550,cs),
(466,550,o),
(534,523,o),
(567,451,c),
(732,451,l),
(685,592,o),
(550,690,o),
(400,690,cs),
(208,690,o),
(50,532,o),
(50,340,cs),
(50,148,o),
(208,-10,o),
(400,-10,cs)
);
},
{
closed = 1;
nodes = (
(443,737,o),
(479,773,o),
(479,816,cs),
(479,860,o),
(443,895,o),
(400,895,cs),
(356,895,o),
(321,860,o),
(321,816,cs),
(321,773,o),
(356,737,o),
(400,737,cs)
);
}
);
};
layerId = "B86D9C3C-D3FC-40C7-BC9B-EF4509240B31";
shapes = (
{
ref = G;
},
{
pos = (260,224);
ref = dotaccentcomb;
}
);
width = 784;
},
{
background = {
anchors = (
{
name = bottom;
pos = (401,-10);
},
{
name = top;
pos = (404,669);
}
);
hints = (
{
horizontal = 1;
origin = (0,28);
target = (0,9);
type = Stem;
},
{
horizontal = 1;
origin = (0,5);
target = (0,4);
type = Stem;
},
{
horizontal = 1;
origin = (0,22);
target = (0,15);
type = Stem;
},
{
origin = (0,25);
target = (0,12);
type = Stem;
},
{
horizontal = 1;
origin = (1,11);
target = (1,5);
type = Stem;
},
{
origin = (1,8);
target = (1,2);
type = Stem;
}
);
shapes = (
{
closed = 1;
nodes = (
(606,-11,o),
(762,161,o),
(752,361,cs),
(750,378,l),
(421,378,l),
(421,248,l),
(560,248,l),
(524,150,o),
(448,147,o),
(402,147,cs),
(310,147,o),
(231,234,o),
(231,336,cs),
(231,438,o),
(310,526,o),
(402,526,cs),
(450,526,o),
(507,513,o),
(537,454,c),
(732,454,l),
(685,592,o),
(549,689,o),
(404,689,cs),
(212,689,o),
(52,534,o),
(52,339,cs),
(52,148,o),
(209,-11,o),
(402,-11,cs)
);
},
{
closed = 1;
nodes = (
(453,733,o),
(494,774,o),
(494,824,cs),
(494,874,o),
(453,914,o),
(404,914,cs),
(353,914,o),
(313,874,o),
(313,824,cs),
(313,774,o),
(353,733,o),
(404,733,cs)
);
}
);
};
layerId = "20FD933E-5CCA-4ADC-839D-1BAE82A4B007";
shapes = (
{
ref = G;
},
{
pos = (255,221);
ref = dotaccentcomb;
}
);
width = 782;
}
);
unicode = 288;
},
{
color = 6;
glyphname = H;
lastChange = "2024-02-02 14:53:56 +0000";
layers = (
{
background = {
shapes = (
{
closed = 1;
nodes = (
(145,0,l),
(145,304,l),
(454,304,l),
(454,0,l),
(524,0,l),
(524,680,l),
(454,680,l),
(454,374,l),
(145,374,l),
(145,680,l),
(75,680,l),
(75,0,l)
);
}
);
};
hints = (
{
horizontal = 1;
origin = (0,11);
target = up;
type = BottomGhost;
},
{
horizontal = 1;
origin = (0,1);
target = (0,8);
type = Stem;
},
{
horizontal = 1;
origin = (0,10);
target = down;
type = TopGhost;
},
{
origin = (0,11);
target = (0,0);
type = Stem;
},
{
origin = (0,3);
target = (0,4);
type = Stem;
}
);
layerId = m01;
shapes = (
{
closed = 1;
nodes = (
(145,0,l),
(145,304,l),
(454,304,l),
(454,0,l),
(524,0,l),
(524,680,l),
(454,680,l),
(454,374,l),
(145,374,l),
(145,680,l),
(75,680,l),
(75,0,l)
);
}
);
width = 599;
},
{
background = {
shapes = (
{
closed = 1;
nodes = (
(210,0,l),
(210,273,l),
(454,273,l),
(454,0,l),
(604,0,l),
(604,680,l),
(454,680,l),
(454,409,l),
(210,409,l),
(210,680,l),
(60,680,l),
(60,0,l)
);
}
);
};
hints = (
{
horizontal = 1;
origin = (0,11);
target = up;
type = BottomGhost;
},
{
horizontal = 1;
origin = (0,1);
target = (0,8);
type = Stem;
},
{
horizontal = 1;
origin = (0,10);
target = down;
type = TopGhost;
},
{
origin = (0,11);
target = (0,0);
type = Stem;
},
{
origin = (0,3);
target = (0,4);
type = Stem;
}
);
layerId = "B86D9C3C-D3FC-40C7-BC9B-EF4509240B31";
shapes = (
{
closed = 1;
nodes = (
(210,0,l),
(210,273,l),
(454,273,l),
(454,0,l),
(604,0,l),
(604,680,l),
(454,680,l),
(454,409,l),
(210,409,l),
(210,680,l),
(60,680,l),
(60,0,l)
);
}
);
width = 664;
},
{
background = {
shapes = (
{
closed = 1;
nodes = (
(232,0,l),
(232,263,l),
(454,263,l),
(454,0,l),
(631,0,l),
(631,680,l),
(454,680,l),
(454,421,l),
(232,421,l),
(232,680,l),
(55,680,l),
(55,0,l)
);
}
);
};
hints = (
{
horizontal = 1;
origin = (0,11);
target = up;
type = BottomGhost;
},
{
horizontal = 1;
origin = (0,1);
target = (0,8);
type = Stem;
},
{
horizontal = 1;
origin = (0,10);
target = down;
type = TopGhost;
},
{
origin = (0,11);
target = (0,0);
type = Stem;
},
{
origin = (0,3);
target = (0,4);
type = Stem;
}
);
layerId = "20FD933E-5CCA-4ADC-839D-1BAE82A4B007";
shapes = (
{
closed = 1;
nodes = (
(232,0,l),
(232,263,l),
(454,263,l),
(454,0,l),
(631,0,l),
(631,680,l),
(454,680,l),
(454,421,l),
(232,421,l),
(232,680,l),
(55,680,l),
(55,0,l)
);
}
);
width = 686;
}
);
note = H;
unicode = 72;
},
{
color = 10;
glyphname = Hbar;
lastChange = "2024-02-02 14:54:18 +0000";
layers = (
{
background = {
hints = (
{
horizontal = 1;
origin = (0,11);
target = up;
type = BottomGhost;
},
{
horizontal = 1;
origin = (0,1);
target = (0,8);
type = Stem;
},
{
horizontal = 1;
origin = (0,10);
target = down;
type = TopGhost;
},
{
origin = (0,11);
target = (0,0);
type = Stem;
},
{
origin = (0,3);
target = (0,4);
type = Stem;
},
{
horizontal = 1;
origin = (1,3);
target = (1,2);
type = Stem;
}
);
shapes = (
{
closed = 1;
nodes = (
(145,0,l),
(145,304,l),
(454,304,l),
(454,0,l),
(524,0,l),
(524,680,l),
(454,680,l),
(454,374,l),
(145,374,l),
(145,680,l),
(75,680,l),
(75,0,l)
);
},
{
closed = 1;
nodes = (
(623,495,l),
(623,553,l),
(-21,553,l),
(-21,495,l)
);
}
);
};
layerId = m01;
shapes = (
{
ref = H;
},
{
pos = (-44,315);
ref = emdash;
}
);
width = 599;
},
{
background = {
hints = (
{
horizontal = 1;
origin = (0,11);
target = up;
type = BottomGhost;
},
{
horizontal = 1;
origin = (0,1);
target = (0,8);
type = Stem;
},
{
horizontal = 1;
origin = (0,10);
target = down;
type = TopGhost;
},
{
origin = (0,11);
target = (0,0);
type = Stem;
},
{
origin = (0,3);
target = (0,4);
type = Stem;
},
{
horizontal = 1;
origin = (1,3);
target = (1,2);
type = Stem;
}
);
shapes = (
{
closed = 1;
nodes = (
(210,0,l),
(210,273,l),
(454,273,l),
(454,0,l),
(604,0,l),
(604,680,l),
(454,680,l),
(454,409,l),
(210,409,l),
(210,680,l),
(60,680,l),
(60,0,l)
);
},
{
closed = 1;
nodes = (
(667,485,l),
(667,598,l),
(-2,598,l),
(-2,485,l)
);
}
);
};
layerId = "B86D9C3C-D3FC-40C7-BC9B-EF4509240B31";
shapes = (
{
ref = H;
},
{
pos = (-2,315);
ref = emdash;
}
);
width = 664;
},
{
background = {
hints = (
{
horizontal = 1;
origin = (0,11);
target = up;
type = BottomGhost;
},
{
horizontal = 1;
origin = (0,1);
target = (0,8);
type = Stem;
},
{
horizontal = 1;
origin = (0,10);
target = down;
type = TopGhost;
},
{
origin = (0,11);
target = (0,0);
type = Stem;
},
{
origin = (0,3);
target = (0,4);
type = Stem;
},
{
horizontal = 1;
origin = (1,3);
target = (1,2);
type = Stem;
}
);
shapes = (
{
closed = 1;
nodes = (
(232,0,l),
(232,263,l),
(454,263,l),
(454,0,l),
(631,0,l),
(631,680,l),
(454,680,l),
(454,421,l),
(232,421,l),
(232,680,l),
(55,680,l),
(55,0,l)
);
},
{
closed = 1;
nodes = (
(682,482,l),
(682,613,l),
(4,613,l),
(4,482,l)
);
}
);
};
layerId = "20FD933E-5CCA-4ADC-839D-1BAE82A4B007";
shapes = (
{
alignment = -1;
ref = H;
},
{
alignment = -1;
pos = (12,315);
ref = emdash;
}
);
width = 686;
}
);
unicode = 294;
},
{
color = 6;
glyphname = I;
lastChange = "2024-02-02 14:53:56 +0000";
layers = (
{
anchors = (
{
name = ogonek;
pos = (234,0);
},
{
name = top;
pos = (145,680);
}
);
background = {
anchors = (
{
name = ogonek;
pos = (234,0);
},
{
name = top;
pos = (145,680);
}
);
shapes = (
{
closed = 1;
nodes = (
(185,20,l),
(185,660,l),
(115,660,l),
(115,20,l)
);
},
{
closed = 1;
nodes = (
(260,0,l),
(260,65,l),
(40,65,l),
(40,0,l)
);
},
{
closed = 1;
nodes = (
(260,615,l),
(260,680,l),
(40,680,l),
(40,615,l)
);
}
);
};
hints = (
{
horizontal = 1;
origin = (1,3);
target = (1,2);
type = Stem;
},
{
horizontal = 1;
origin = (2,2);
target = (2,3);
type = Stem;
},
{
origin = (0,3);
target = (0,0);
type = Stem;
}
);
layerId = m01;
shapes = (
{
closed = 1;
nodes = (
(185,20,l),
(185,660,l),
(115,660,l),
(115,20,l)
);
},
{
closed = 1;
nodes = (
(260,0,l),
(260,65,l),
(40,65,l),
(40,0,l)
);
},
{
closed = 1;
nodes = (
(260,615,l),
(260,680,l),
(40,680,l),
(40,615,l)
);
}
);
width = 300;
},
{
anchors = (
{
name = ogonek;
pos = (316,0);
},
{
name = top;
pos = (207,680);
}
);
background = {
anchors = (
{
name = ogonek;
pos = (316,0);
},
{
name = top;
pos = (207,680);
}
);
shapes = (
{
closed = 1;
nodes = (
(280,20,l),
(281,660,l),
(131,660,l),
(130,20,l)
);
},
{
closed = 1;
nodes = (
(360,0,l),
(361,136,l),
(51,136,l),
(50,0,l)
);
},
{
closed = 1;
nodes = (
(360,544,l),
(360,680,l),
(50,680,l),
(50,544,l)
);
}
);
};
hints = (
{
horizontal = 1;
origin = (1,3);
target = (1,2);
type = Stem;
},
{
horizontal = 1;
origin = (2,2);
target = (2,3);
type = Stem;
},
{
place = (130.5,150);
type = Stem;
}
);
layerId = "B86D9C3C-D3FC-40C7-BC9B-EF4509240B31";
shapes = (
{
closed = 1;
nodes = (
(280,20,l),
(281,660,l),
(131,660,l),
(130,20,l)
);
},
{
closed = 1;
nodes = (
(360,0,l),
(361,136,l),
(51,136,l),
(50,0,l)
);
},
{
closed = 1;
nodes = (
(360,544,l),
(360,680,l),
(50,680,l),
(50,544,l)
);
}
);
width = 411;
},
{
anchors = (
{
name = ogonek;
pos = (343,0);
},
{
name = top;
pos = (228,680);
}
);
background = {
anchors = (
{
name = ogonek;
pos = (343,0);
},
{
name = top;
pos = (228,680);
}
);
shapes = (
{
closed = 1;
nodes = (
(312,20,l),
(313,660,l),
(136,660,l),
(135,20,l)
);
},
{
closed = 1;
nodes = (
(393,0,l),
(395,160,l),
(55,160,l),
(53,0,l)
);
},
{
closed = 1;
nodes = (
(393,520,l),
(393,680,l),
(53,680,l),
(53,520,l)
);
}
);
};
hints = (
{
horizontal = 1;
origin = (1,3);
target = (1,2);
type = Stem;
},
{
horizontal = 1;
origin = (2,2);
target = (2,3);
type = Stem;
},
{
place = (135.5,177);
type = Stem;
}
);
layerId = "20FD933E-5CCA-4ADC-839D-1BAE82A4B007";
shapes = (
{
closed = 1;
nodes = (
(312,20,l),
(313,660,l),
(136,660,l),
(135,20,l)
);
},
{
closed = 1;
nodes = (
(393,0,l),
(395,160,l),
(55,160,l),
(53,0,l)
);
},
{
closed = 1;
nodes = (
(393,520,l),
(393,680,l),
(53,680,l),
(53,520,l)
);
}
);
width = 448;
}
);
note = I;
unicode = 73;
},
{
color = 10;
glyphname = Iacute;
lastChange = "2024-02-02 14:59:17 +0000";
layers = (
{
background = {
anchors = (
{
name = ogonek;
pos = (234,0);
},
{
name = top;
pos = (145,680);
}
);
hints = (
{
horizontal = 1;
origin = (1,3);
target = (1,2);
type = Stem;
},
{
horizontal = 1;
origin = (2,2);
target = (2,3);
type = Stem;
},
{
origin = (0,3);
target = (0,0);
type = Stem;
},
{
horizontal = 1;
origin = (3,3);
target = (3,2);
type = Stem;
},
{
origin = (3,3);
target = (3,1);
type = Stem;
}
);
shapes = (
{
closed = 1;
nodes = (
(185,20,l),
(185,660,l),
(115,660,l),
(115,20,l)
);
},
{
closed = 1;
nodes = (
(260,0,l),
(260,65,l),
(40,65,l),
(40,0,l)
);
},
{
closed = 1;
nodes = (
(260,615,l),
(260,680,l),
(40,680,l),
(40,615,l)
);
},
{
closed = 1;
nodes = (
(170,726,l),
(270,860,l),
(194,860,l),
(114,726,l)
);
}
);
};
layerId = m01;
shapes = (
{
ref = I;
},
{
pos = (94,-24);
ref = acutecomb;
}
);
width = 300;
},
{
background = {
anchors = (
{
name = ogonek;
pos = (316,0);
},
{
name = top;
pos = (207,680);
}
);
hints = (
{
horizontal = 1;
origin = (1,3);
target = (1,2);
type = Stem;
},
{
horizontal = 1;
origin = (2,2);
target = (2,3);
type = Stem;
},
{
place = (130.5,150);
type = Stem;
},
{
horizontal = 1;
origin = (3,3);
target = (3,2);
type = Stem;
},
{
origin = (3,3);
target = (3,1);
type = Stem;
}
);
shapes = (
{
closed = 1;
nodes = (
(280,20,l),
(281,660,l),
(131,660,l),
(130,20,l)
);
},
{
closed = 1;
nodes = (
(360,0,l),
(361,136,l),
(51,136,l),
(50,0,l)
);
},
{
closed = 1;
nodes = (
(360,544,l),
(360,680,l),
(50,680,l),
(50,544,l)
);
},
{
closed = 1;
nodes = (
(264,723,l),
(398,902,l),
(270,902,l),
(152,723,l)
);
}
);
};
layerId = "B86D9C3C-D3FC-40C7-BC9B-EF4509240B31";
shapes = (
{
ref = I;
},
{
pos = (109,-27);
ref = acutecomb;
}
);
width = 411;
},
{
background = {
anchors = (
{
name = ogonek;
pos = (343,0);
},
{
name = top;
pos = (228,680);
}
);
hints = (
{
horizontal = 1;
origin = (1,3);
target = (1,2);
type = Stem;
},
{
horizontal = 1;
origin = (2,2);
target = (2,3);
type = Stem;
},
{
place = (135.5,177);
type = Stem;
},
{
horizontal = 1;
origin = (3,3);
target = (3,2);
type = Stem;
},
{
origin = (3,3);
target = (3,1);
type = Stem;
}
);
shapes = (
{
closed = 1;
nodes = (
(312,20,l),
(313,660,l),
(136,660,l),
(135,20,l)
);
},
{
closed = 1;
nodes = (
(393,0,l),
(395,160,l),
(55,160,l),
(53,0,l)
);
},
{
closed = 1;
nodes = (
(393,520,l),
(393,680,l),
(53,680,l),
(53,520,l)
);
},
{
closed = 1;
nodes = (
(295,722,l),
(441,916,l),
(295,916,l),
(165,722,l)
);
}
);
};
layerId = "20FD933E-5CCA-4ADC-839D-1BAE82A4B007";
shapes = (
{
ref = I;
},
{
pos = (114,-28);
ref = acutecomb;
}
);
width = 448;
}
);
note = Iacute;
unicode = 205;
},
{
color = 10;
glyphname = Icircumflex;
lastChange = "2024-02-02 14:59:17 +0000";
layers = (
{
background = {
anchors = (
{
name = ogonek;
pos = (234,0);
},
{
name = top;
pos = (145,680);
}
);
hints = (
{
horizontal = 1;
origin = (1,3);
target = (1,2);
type = Stem;
},
{
horizontal = 1;
origin = (2,2);
target = (2,3);
type = Stem;
},
{
origin = (0,3);
target = (0,0);
type = Stem;
},
{
horizontal = 1;
origin = (3,7);
target = (3,6);
type = Stem;
},
{
horizontal = 1;
place = (817,45);
type = Stem;
}
);
shapes = (
{
closed = 1;
nodes = (
(185,20,l),
(185,660,l),
(115,660,l),
(115,20,l)
);
},
{
closed = 1;
nodes = (
(260,0,l),
(260,65,l),
(40,65,l),
(40,0,l)
);
},
{
closed = 1;
nodes = (
(260,615,l),
(260,680,l),
(40,680,l),
(40,615,l)
);
},
{
closed = 1;
nodes = (
(73,729,l),
(154,828,l),
(136,828,l),
(217,729,l),
(288,729,l),
(178,862,l),
(112,862,l),
(2,729,l)
);
}
);
};
layerId = m01;
shapes = (
{
ref = I;
},
{
pos = (-8,-21);
ref = circumflexcomb;
}
);
width = 300;
},
{
background = {
anchors = (
{
name = ogonek;
pos = (316,0);
},
{
name = top;
pos = (207,680);
}
);
hints = (
{
horizontal = 1;
origin = (1,3);
target = (1,2);
type = Stem;
},
{
horizontal = 1;
origin = (2,2);
target = (2,3);
type = Stem;
},
{
place = (130.5,150);
type = Stem;
},
{
horizontal = 1;
origin = (3,7);
target = (3,6);
type = Stem;
},
{
horizontal = 1;
place = (831,78);
type = Stem;
},
{
origin = (3,7);
target = (3,4);
type = Stem;
}
);
shapes = (
{
closed = 1;
nodes = (
(280,20,l),
(281,660,l),
(131,660,l),
(130,20,l)
);
},
{
closed = 1;
nodes = (
(360,0,l),
(361,136,l),
(51,136,l),
(50,0,l)
);
},
{
closed = 1;
nodes = (
(360,544,l),
(360,680,l),
(50,680,l),
(50,544,l)
);
},
{
closed = 1;
nodes = (
(132,720,l),
(227,861,l),
(187,861,l),
(282,720,l),
(394,720,l),
(266,909,l),
(148,909,l),
(20,720,l)
);
}
);
};
layerId = "B86D9C3C-D3FC-40C7-BC9B-EF4509240B31";
shapes = (
{
ref = I;
},
{
pos = (2,0);
ref = circumflexcomb;
}
);
width = 411;
},
{
background = {
anchors = (
{
name = ogonek;
pos = (343,0);
},
{
name = top;
pos = (228,680);
}
);
hints = (
{
horizontal = 1;
origin = (1,3);
target = (1,2);
type = Stem;
},
{
horizontal = 1;
origin = (2,2);
target = (2,3);
type = Stem;
},
{
place = (135.5,177);
type = Stem;
},
{
horizontal = 1;
origin = (3,7);
target = (3,6);
type = Stem;
},
{
horizontal = 1;
place = (835,90);
type = Stem;
},
{
origin = (3,7);
target = (3,4);
type = Stem;
}
);
shapes = (
{
closed = 1;
nodes = (
(312,20,l),
(313,660,l),
(136,660,l),
(135,20,l)
);
},
{
closed = 1;
nodes = (
(393,0,l),
(395,160,l),
(55,160,l),
(53,0,l)
);
},
{
closed = 1;
nodes = (
(393,520,l),
(393,680,l),
(53,680,l),
(53,520,l)
);
},
{
closed = 1;
nodes = (
(151,717,l),
(251,872,l),
(204,872,l),
(303,717,l),
(429,717,l),
(295,925,l),
(160,925,l),
(26,717,l)
);
}
);
};
layerId = "20FD933E-5CCA-4ADC-839D-1BAE82A4B007";
shapes = (
{
ref = I;
},
{
pos = (6,7);
ref = circumflexcomb;
}
);
width = 448;
}
);
note = Icircumflex;
unicode = 206;
},
{
color = 10;
glyphname = Idieresis;
lastChange = "2024-02-02 14:59:17 +0000";
layers = (
{
background = {
anchors = (
{
name = ogonek;
pos = (234,0);
},
{
name = top;
pos = (145,680);
}
);
hints = (
{
horizontal = 1;
origin = (1,3);
target = (1,2);
type = Stem;
},
{
horizontal = 1;
origin = (2,2);
target = (2,3);
type = Stem;
},
{
origin = (0,3);
target = (0,0);
type = Stem;
},
{
horizontal = 1;
origin = (4,11);
target = (4,5);
type = Stem;
},
{
origin = (4,8);
target = (4,2);
type = Stem;
},
{
origin = (3,8);
target = (3,2);
type = Stem;
}
);
shapes = (
{
closed = 1;
nodes = (
(185,20,l),
(185,660,l),
(115,660,l),
(115,20,l)
);
},
{
closed = 1;
nodes = (
(260,0,l),
(260,65,l),
(40,65,l),
(40,0,l)
);
},
{
closed = 1;
nodes = (
(260,615,l),
(260,680,l),
(40,680,l),
(40,615,l)
);
},
{
closed = 1;
nodes = (
(247,733,o),
(267,752,o),
(267,778,cs),
(267,803,o),
(247,822,o),
(222,822,cs),
(197,822,o),
(178,803,o),
(178,778,cs),
(178,752,o),
(197,733,o),
(222,733,cs)
);
},
{
closed = 1;
nodes = (
(85,733,o),
(105,752,o),
(105,778,cs),
(105,803,o),
(85,822,o),
(60,822,cs),
(35,822,o),
(16,803,o),
(16,778,cs),
(16,752,o),
(35,733,o),
(60,733,cs)
);
}
);
};
layerId = m01;
shapes = (
{
ref = I;
},
{
pos = (-90,-17);
ref = dieresiscomb;
}
);
width = 300;
},
{
background = {
anchors = (
{
name = ogonek;
pos = (316,0);
},
{
name = top;
pos = (207,680);
}
);
hints = (
{
horizontal = 1;
origin = (1,3);
target = (1,2);
type = Stem;
},
{
horizontal = 1;
origin = (2,2);
target = (2,3);
type = Stem;
},
{
place = (130.5,150);
type = Stem;
},
{
horizontal = 1;
origin = (4,11);
target = (4,5);
type = Stem;
},
{
origin = (4,8);
target = (4,2);
type = Stem;
},
{
origin = (3,8);
target = (3,2);
type = Stem;
}
);
shapes = (
{
closed = 1;
nodes = (
(280,20,l),
(281,660,l),
(131,660,l),
(130,20,l)
);
},
{
closed = 1;
nodes = (
(360,0,l),
(361,136,l),
(51,136,l),
(50,0,l)
);
},
{
closed = 1;
nodes = (
(360,544,l),
(360,680,l),
(50,680,l),
(50,544,l)
);
},
{
closed = 1;
nodes = (
(362,734,o),
(398,770,o),
(398,813,cs),
(398,857,o),
(362,892,o),
(319,892,cs),
(275,892,o),
(240,857,o),
(240,813,cs),
(240,770,o),
(275,734,o),
(319,734,cs)
);
},
{
closed = 1;
nodes = (
(120,734,o),
(156,770,o),
(156,813,cs),
(156,857,o),
(120,892,o),
(77,892,cs),
(33,892,o),
(-2,857,o),
(-2,813,cs),
(-2,770,o),
(33,734,o),
(77,734,cs)
);
}
);
};
layerId = "B86D9C3C-D3FC-40C7-BC9B-EF4509240B31";
shapes = (
{
ref = I;
},
{
pos = (-73,-35);
ref = dieresiscomb;
}
);
width = 411;
},
{
background = {
anchors = (
{
name = ogonek;
pos = (343,0);
},
{
name = top;
pos = (228,680);
}
);
hints = (
{
horizontal = 1;
origin = (1,3);
target = (1,2);
type = Stem;
},
{
horizontal = 1;
origin = (2,2);
target = (2,3);
type = Stem;
},
{
place = (135.5,177);
type = Stem;
},
{
horizontal = 1;
origin = (4,11);
target = (4,5);
type = Stem;
},
{
origin = (4,8);
target = (4,2);
type = Stem;
},
{
origin = (3,8);
target = (3,2);
type = Stem;
}
);
shapes = (
{
closed = 1;
nodes = (
(312,20,l),
(313,660,l),
(136,660,l),
(135,20,l)
);
},
{
closed = 1;
nodes = (
(393,0,l),
(395,160,l),
(55,160,l),
(53,0,l)
);
},
{
closed = 1;
nodes = (
(393,520,l),
(393,680,l),
(53,680,l),
(53,520,l)
);
},
{
closed = 1;
nodes = (
(401,734,o),
(442,776,o),
(442,825,cs),
(442,875,o),
(401,915,o),
(352,915,cs),
(301,915,o),
(261,875,o),
(261,825,cs),
(261,776,o),
(301,734,o),
(352,734,cs)
);
},
{
closed = 1;
nodes = (
(132,734,o),
(173,776,o),
(173,825,cs),
(173,875,o),
(132,915,o),
(83,915,cs),
(33,915,o),
(-8,875,o),
(-8,825,cs),
(-8,776,o),
(33,734,o),
(83,734,cs)
);
}
);
};
layerId = "20FD933E-5CCA-4ADC-839D-1BAE82A4B007";
shapes = (
{
ref = I;
},
{
pos = (-67,-41);
ref = dieresiscomb;
}
);
width = 448;
}
);
note = Idieresis;
unicode = 207;
},
{
color = 10;
glyphname = Idotaccent;
lastChange = "2024-02-02 14:59:17 +0000";
layers = (
{
background = {
anchors = (
{
name = ogonek;
pos = (234,0);
},
{
name = top;
pos = (145,680);
}
);
hints = (
{
horizontal = 1;
origin = (1,3);
target = (1,2);
type = Stem;
},
{
horizontal = 1;
origin = (2,2);
target = (2,3);
type = Stem;
},
{
origin = (0,3);
target = (0,0);
type = Stem;
},
{
horizontal = 1;
origin = (3,11);
target = (3,5);
type = Stem;
},
{
origin = (3,8);
target = (3,2);
type = Stem;
}
);
shapes = (
{
closed = 1;
nodes = (
(185,20,l),
(185,660,l),
(115,660,l),
(115,20,l)
);
},
{
closed = 1;
nodes = (
(260,0,l),
(260,65,l),
(40,65,l),
(40,0,l)
);
},
{
closed = 1;
nodes = (
(260,615,l),
(260,680,l),
(40,680,l),
(40,615,l)
);
},
{
closed = 1;
nodes = (
(170,741,o),
(190,761,o),
(190,786,cs),
(190,810,o),
(170,830,o),
(146,830,cs),
(121,830,o),
(101,810,o),
(101,786,cs),
(101,761,o),
(121,741,o),
(146,741,cs)
);
}
);
};
layerId = m01;
shapes = (
{
ref = I;
},
{
pos = (31,225);
ref = dotaccentcomb;
}
);
width = 300;
},
{
background = {
anchors = (
{
name = ogonek;
pos = (316,0);
},
{
name = top;
pos = (207,680);
}
);
hints = (
{
horizontal = 1;
origin = (1,3);
target = (1,2);
type = Stem;
},
{
horizontal = 1;
origin = (2,2);
target = (2,3);
type = Stem;
},
{
place = (130.5,150);
type = Stem;
},
{
horizontal = 1;
origin = (3,11);
target = (3,5);
type = Stem;
},
{
origin = (3,8);
target = (3,2);
type = Stem;
}
);
shapes = (
{
closed = 1;
nodes = (
(280,20,l),
(281,660,l),
(131,660,l),
(130,20,l)
);
},
{
closed = 1;
nodes = (
(360,0,l),
(361,136,l),
(51,136,l),
(50,0,l)
);
},
{
closed = 1;
nodes = (
(360,544,l),
(360,680,l),
(50,680,l),
(50,544,l)
);
},
{
closed = 1;
nodes = (
(250,743,o),
(286,779,o),
(286,822,cs),
(286,866,o),
(250,901,o),
(207,901,cs),
(163,901,o),
(128,866,o),
(128,822,cs),
(128,779,o),
(163,743,o),
(207,743,cs)
);
}
);
};
layerId = "B86D9C3C-D3FC-40C7-BC9B-EF4509240B31";
shapes = (
{
ref = I;
},
{
pos = (67,230);
ref = dotaccentcomb;
}
);
width = 411;
},
{
background = {
anchors = (
{
name = ogonek;
pos = (343,0);
},
{
name = top;
pos = (228,680);
}
);
hints = (
{
horizontal = 1;
origin = (1,3);
target = (1,2);
type = Stem;
},
{
horizontal = 1;
origin = (2,2);
target = (2,3);
type = Stem;
},
{
place = (135.5,177);
type = Stem;
},
{
horizontal = 1;
origin = (3,11);
target = (3,5);
type = Stem;
},
{
origin = (3,8);
target = (3,2);
type = Stem;
}
);
shapes = (
{
closed = 1;
nodes = (
(312,20,l),
(313,660,l),
(136,660,l),
(135,20,l)
);
},
{
closed = 1;
nodes = (
(393,0,l),
(395,160,l),
(55,160,l),
(53,0,l)
);
},
{
closed = 1;
nodes = (
(393,520,l),
(393,680,l),
(53,680,l),
(53,520,l)
);
},
{
closed = 1;
nodes = (
(277,744,o),
(318,785,o),
(318,835,cs),
(318,885,o),
(277,925,o),
(228,925,cs),
(177,925,o),
(137,885,o),
(137,835,cs),
(137,785,o),
(177,744,o),
(228,744,cs)
);
}
);
};
layerId = "20FD933E-5CCA-4ADC-839D-1BAE82A4B007";
shapes = (
{
ref = I;
},
{
pos = (79,232);
ref = dotaccentcomb;
}
);
width = 448;
}
);
unicode = 304;
},
{
color = 10;
glyphname = Igrave;
lastChange = "2024-02-02 14:59:17 +0000";
layers = (
{
background = {
anchors = (
{
name = ogonek;
pos = (234,0);
},
{
name = top;
pos = (145,680);
}
);
hints = (
{
horizontal = 1;
origin = (1,3);
target = (1,2);
type = Stem;
},
{
horizontal = 1;
origin = (2,2);
target = (2,3);
type = Stem;
},
{
origin = (0,3);
target = (0,0);
type = Stem;
},
{
horizontal = 1;
origin = (3,3);
target = (3,2);
type = Stem;
},
{
origin = (3,2);
target = (3,0);
type = Stem;
}
);
shapes = (
{
closed = 1;
nodes = (
(185,20,l),
(185,660,l),
(115,660,l),
(115,20,l)
);
},
{
closed = 1;
nodes = (
(260,0,l),
(260,65,l),
(40,65,l),
(40,0,l)
);
},
{
closed = 1;
nodes = (
(260,615,l),
(260,680,l),
(40,680,l),
(40,615,l)
);
},
{
closed = 1;
nodes = (
(166,722,l),
(76,865,l),
(0,865,l),
(110,722,l)
);
}
);
};
layerId = m01;
shapes = (
{
ref = I;
},
{
pos = (0,-28);
ref = gravecomb;
}
);
width = 300;
},
{
background = {
anchors = (
{
name = ogonek;
pos = (316,0);
},
{
name = top;
pos = (207,680);
}
);
hints = (
{
horizontal = 1;
origin = (1,3);
target = (1,2);
type = Stem;
},
{
horizontal = 1;
origin = (2,2);
target = (2,3);
type = Stem;
},
{
place = (130.5,150);
type = Stem;
},
{
horizontal = 1;
origin = (3,3);
target = (3,2);
type = Stem;
},
{
origin = (3,2);
target = (3,0);
type = Stem;
}
);
shapes = (
{
closed = 1;
nodes = (
(280,20,l),
(281,660,l),
(131,660,l),
(130,20,l)
);
},
{
closed = 1;
nodes = (
(360,0,l),
(361,136,l),
(51,136,l),
(50,0,l)
);
},
{
closed = 1;
nodes = (
(360,544,l),
(360,680,l),
(50,680,l),
(50,544,l)
);
},
{
closed = 1;
nodes = (
(254,719,l),
(136,898,l),
(8,898,l),
(142,719,l)
);
}
);
};
layerId = "B86D9C3C-D3FC-40C7-BC9B-EF4509240B31";
shapes = (
{
ref = I;
},
{
pos = (-35,-31);
ref = gravecomb;
}
);
width = 411;
},
{
background = {
anchors = (
{
name = ogonek;
pos = (343,0);
},
{
name = top;
pos = (228,680);
}
);
hints = (
{
horizontal = 1;
origin = (1,3);
target = (1,2);
type = Stem;
},
{
horizontal = 1;
origin = (2,2);
target = (2,3);
type = Stem;
},
{
place = (135.5,177);
type = Stem;
},
{
horizontal = 1;
origin = (3,3);
target = (3,2);
type = Stem;
},
{
origin = (3,2);
target = (3,0);
type = Stem;
}
);
shapes = (
{
closed = 1;
nodes = (
(312,20,l),
(313,660,l),
(136,660,l),
(135,20,l)
);
},
{
closed = 1;
nodes = (
(393,0,l),
(395,160,l),
(55,160,l),
(53,0,l)
);
},
{
closed = 1;
nodes = (
(393,520,l),
(393,680,l),
(53,680,l),
(53,520,l)
);
},
{
closed = 1;
nodes = (
(283,718,l),
(156,909,l),
(10,909,l),
(152,718,l)
);
}
);
};
layerId = "20FD933E-5CCA-4ADC-839D-1BAE82A4B007";
shapes = (
{
ref = I;
},
{
pos = (-46,-32);
ref = gravecomb;
}
);
width = 448;
}
);
note = Igrave;
unicode = 204;
},
{
color = 10;
glyphname = Imacron;
lastChange = "2024-02-02 14:59:17 +0000";
layers = (
{
background = {
anchors = (
{
name = ogonek;
pos = (234,0);
},
{
name = top;
pos = (145,680);
}
);
hints = (
{
horizontal = 1;
origin = (1,3);
target = (1,2);
type = Stem;
},
{
horizontal = 1;
origin = (2,2);
target = (2,3);
type = Stem;
},
{
origin = (0,3);
target = (0,0);
type = Stem;
},
{
horizontal = 1;
origin = (3,3);
target = (3,2);
type = Stem;
}
);
shapes = (
{
closed = 1;
nodes = (
(185,20,l),
(185,660,l),
(115,660,l),
(115,20,l)
);
},
{
closed = 1;
nodes = (
(260,0,l),
(260,65,l),
(40,65,l),
(40,0,l)
);
},
{
closed = 1;
nodes = (
(260,615,l),
(260,680,l),
(40,680,l),
(40,615,l)
);
},
{
closed = 1;
nodes = (
(265,758,l),
(265,815,l),
(24,815,l),
(24,758,l)
);
}
);
};
layerId = m01;
shapes = (
{
ref = I;
},
{
pos = (-131,8);
ref = macroncomb;
}
);
width = 300;
},
{
background = {
anchors = (
{
name = ogonek;
pos = (316,0);
},
{
name = top;
pos = (207,680);
}
);
hints = (
{
horizontal = 1;
origin = (1,3);
target = (1,2);
type = Stem;
},
{
horizontal = 1;
origin = (2,2);
target = (2,3);
type = Stem;
},
{
place = (130.5,150);
type = Stem;
},
{
horizontal = 1;
origin = (3,3);
target = (3,2);
type = Stem;
},
{
origin = (3,3);
target = (3,0);
type = Stem;
}
);
shapes = (
{
closed = 1;
nodes = (
(280,20,l),
(281,660,l),
(131,660,l),
(130,20,l)
);
},
{
closed = 1;
nodes = (
(360,0,l),
(361,136,l),
(51,136,l),
(50,0,l)
);
},
{
closed = 1;
nodes = (
(360,544,l),
(360,680,l),
(50,680,l),
(50,544,l)
);
},
{
closed = 1;
nodes = (
(363,749,l),
(363,848,l),
(47,848,l),
(47,749,l)
);
}
);
};
layerId = "B86D9C3C-D3FC-40C7-BC9B-EF4509240B31";
shapes = (
{
ref = I;
},
{
pos = (-68,-1);
ref = macroncomb;
}
);
width = 411;
},
{
background = {
anchors = (
{
name = ogonek;
pos = (343,0);
},
{
name = top;
pos = (228,680);
}
);
hints = (
{
horizontal = 1;
origin = (1,3);
target = (1,2);
type = Stem;
},
{
horizontal = 1;
origin = (2,2);
target = (2,3);
type = Stem;
},
{
place = (135.5,177);
type = Stem;
},
{
horizontal = 1;
origin = (3,3);
target = (3,2);
type = Stem;
},
{
origin = (3,3);
target = (3,0);
type = Stem;
}
);
shapes = (
{
closed = 1;
nodes = (
(312,20,l),
(313,660,l),
(136,660,l),
(135,20,l)
);
},
{
closed = 1;
nodes = (
(393,0,l),
(395,160,l),
(55,160,l),
(53,0,l)
);
},
{
closed = 1;
nodes = (
(393,520,l),
(393,680,l),
(53,680,l),
(53,520,l)
);
},
{
closed = 1;
nodes = (
(397,746,l),
(397,859,l),
(54,859,l),
(54,746,l)
);
}
);
};
layerId = "20FD933E-5CCA-4ADC-839D-1BAE82A4B007";
shapes = (
{
ref = I;
},
{
pos = (-47,-4);
ref = macroncomb;
}
);
width = 448;
}
);
unicode = 298;
},
{
color = 10;
glyphname = Iogonek;
lastChange = "2024-02-02 14:59:17 +0000";
layers = (
{
background = {
anchors = (
{
name = ogonek;
pos = (234,0);
},
{
name = top;
pos = (145,680);
}
);
hints = (
{
horizontal = 1;
origin = (1,3);
target = (1,2);
type = Stem;
},
{
horizontal = 1;
origin = (2,2);
target = (2,3);
type = Stem;
},
{
origin = (0,3);
target = (0,0);
type = Stem;
},
{
horizontal = 1;
origin = (3,19);
target = (3,13);
type = Stem;
},
{
horizontal = 1;
origin = (3,19);
target = (3,6);
type = Stem;
},
{
origin = (3,16);
target = (3,9);
type = Stem;
}
);
shapes = (
{
closed = 1;
nodes = (
(185,20,l),
(185,660,l),
(115,660,l),
(115,20,l)
);
},
{
closed = 1;
nodes = (
(260,0,l),
(260,65,l),
(40,65,l),
(40,0,l)
);
},
{
closed = 1;
nodes = (
(260,615,l),
(260,680,l),
(40,680,l),
(40,615,l)
);
},
{
closed = 1;
nodes = (
(229,-140,o),
(250,-135,o),
(263,-124,c),
(262,-69,l),
(250,-79,o),
(230,-87,o),
(222,-87,cs),
(212,-87,o),
(197,-82,o),
(197,-64,c),
(197,-46,o),
(216,-17,o),
(242,2,c),
(184,2,l),
(158,-18,o),
(140,-50,o),
(140,-82,cs),
(140,-113,o),
(172,-140,o),
(208,-140,c)
);
}
);
};
layerId = m01;
shapes = (
{
ref = I;
},
{
pos = (-175,0);
ref = ogonekcomb;
}
);
width = 300;
},
{
background = {
anchors = (
{
name = ogonek;
pos = (316,0);
},
{
name = top;
pos = (207,680);
}
);
hints = (
{
horizontal = 1;
origin = (1,3);
target = (1,2);
type = Stem;
},
{
horizontal = 1;
origin = (2,2);
target = (2,3);
type = Stem;
},
{
place = (130.5,150);
type = Stem;
},
{
horizontal = 1;
origin = (3,19);
target = (3,6);
type = Stem;
},
{
horizontal = 1;
origin = (3,19);
target = (3,13);
type = Stem;
},
{
origin = (3,16);
target = (3,9);
type = Stem;
}
);
shapes = (
{
closed = 1;
nodes = (
(280,20,l),
(281,660,l),
(131,660,l),
(130,20,l)
);
},
{
closed = 1;
nodes = (
(360,0,l),
(361,136,l),
(51,136,l),
(50,0,l)
);
},
{
closed = 1;
nodes = (
(360,544,l),
(360,680,l),
(50,680,l),
(50,544,l)
);
},
{
closed = 1;
nodes = (
(306,-247,o),
(341,-235,o),
(366,-214,c),
(365,-102,l),
(339,-127,o),
(308,-137,o),
(287,-137,cs),
(270,-137,o),
(260,-125,o),
(260,-104,cs),
(260,-81,o),
(286,-34,o),
(327,4,c),
(227,4,l),
(184,-35,o),
(160,-93,o),
(160,-138,cs),
(160,-195,o),
(199,-247,o),
(268,-247,cs)
);
}
);
};
layerId = "B86D9C3C-D3FC-40C7-BC9B-EF4509240B31";
shapes = (
{
ref = I;
},
{
pos = (-120,0);
ref = ogonekcomb;
}
);
width = 411;
},
{
background = {
anchors = (
{
name = ogonek;
pos = (343,0);
},
{
name = top;
pos = (228,680);
}
);
hints = (
{
horizontal = 1;
origin = (1,3);
target = (1,2);
type = Stem;
},
{
horizontal = 1;
origin = (2,2);
target = (2,3);
type = Stem;
},
{
place = (135.5,177);
type = Stem;
},
{
horizontal = 1;
origin = (3,19);
target = (3,6);
type = Stem;
},
{
horizontal = 1;
origin = (3,19);
target = (3,13);
type = Stem;
},
{
origin = (3,16);
target = (3,9);
type = Stem;
}
);
shapes = (
{
closed = 1;
nodes = (
(312,20,l),
(313,660,l),
(136,660,l),
(135,20,l)
);
},
{
closed = 1;
nodes = (
(393,0,l),
(395,160,l),
(55,160,l),
(53,0,l)
);
},
{
closed = 1;
nodes = (
(393,520,l),
(393,680,l),
(53,680,l),
(53,520,l)
);
},
{
closed = 1;
nodes = (
(331,-283,o),
(371,-268,o),
(400,-244,c),
(399,-113,l),
(368,-143,o),
(334,-154,o),
(308,-154,cs),
(289,-154,o),
(281,-139,o),
(281,-117,c),
(281,-93,o),
(309,-40,o),
(355,5,c),
(241,5,l),
(192,-41,o),
(166,-107,o),
(166,-157,cs),
(166,-222,o),
(208,-283,o),
(288,-283,c)
);
}
);
};
layerId = "20FD933E-5CCA-4ADC-839D-1BAE82A4B007";
shapes = (
{
ref = I;
},
{
pos = (-102,0);
ref = ogonekcomb;
}
);
width = 448;
}
);
unicode = 302;
},
{
color = 6;
glyphname = J;
lastChange = "2024-02-02 14:53:56 +0000";
layers = (
{
background = {
shapes = (
{
closed = 1;
nodes = (
(245,-8,o),
(321,47,o),
(321,170,cs),
(321,680,l),
(251,680,l),
(251,170,ls),
(251,95,o),
(217,61,o),
(159,61,cs),
(129,61,o),
(88,96,o),
(71,119,c),
(30,61,l),
(61,26,o),
(106,-8,o),
(158,-8,cs)
);
}
);
};
hints = (
{
horizontal = 1;
origin = (0,15);
target = (0,12);
type = Stem;
},
{
horizontal = 1;
origin = (0,4);
target = down;
type = TopGhost;
},
{
origin = (0,5);
target = (0,2);
type = Stem;
}
);
layerId = m01;
shapes = (
{
closed = 1;
nodes = (
(245,-8,o),
(321,47,o),
(321,170,cs),
(321,680,l),
(251,680,l),
(251,170,ls),
(251,95,o),
(217,61,o),
(159,61,cs),
(129,61,o),
(88,96,o),
(71,119,c),
(30,61,l),
(61,26,o),
(106,-8,o),
(158,-8,cs)
);
}
);
width = 381;
},
{
background = {
shapes = (
{
closed = 1;
nodes = (
(381,-10,o),
(484,61,o),
(484,255,cs),
(484,680,l),
(334,680,l),
(334,267,ls),
(334,196,o),
(330,134,o),
(233,134,cs),
(193,134,o),
(150,180,o),
(121,240,c),
(33,111,l),
(49,71,o),
(128,-10,o),
(233,-10,cs)
);
}
);
};
hints = (
{
horizontal = 1;
origin = (0,15);
target = (0,8);
type = Stem;
},
{
horizontal = 1;
origin = (0,4);
target = down;
type = TopGhost;
},
{
origin = (0,5);
target = (0,2);
type = Stem;
}
);
layerId = "B86D9C3C-D3FC-40C7-BC9B-EF4509240B31";
shapes = (
{
closed = 1;
nodes = (
(381,-10,o),
(484,61,o),
(484,255,cs),
(484,680,l),
(334,680,l),
(334,267,ls),
(334,196,o),
(330,134,o),
(233,134,cs),
(193,134,o),
(150,180,o),
(121,240,c),
(33,111,l),
(49,71,o),
(128,-10,o),
(233,-10,cs)
);
}
);
width = 534;
},
{
background = {
shapes = (
{
closed = 1;
nodes = (
(426,-11,o),
(538,66,o),
(538,283,cs),
(538,680,l),
(362,680,l),
(362,299,ls),
(362,230,o),
(368,158,o),
(258,158,cs),
(214,158,o),
(171,208,o),
(138,280,c),
(34,128,l),
(45,86,o),
(135,-11,o),
(258,-11,cs)
);
}
);
};
hints = (
{
horizontal = 1;
origin = (0,15);
target = (0,8);
type = Stem;
},
{
horizontal = 1;
origin = (0,4);
target = down;
type = TopGhost;
},
{
origin = (0,5);
target = (0,2);
type = Stem;
}
);
layerId = "20FD933E-5CCA-4ADC-839D-1BAE82A4B007";
shapes = (
{
closed = 1;
nodes = (
(426,-11,o),
(538,66,o),
(538,283,cs),
(538,680,l),
(362,680,l),
(362,299,ls),
(362,230,o),
(368,158,o),
(258,158,cs),
(214,158,o),
(171,208,o),
(138,280,c),
(34,128,l),
(45,86,o),
(135,-11,o),
(258,-11,cs)
);
}
);
width = 585;
}
);
note = J;
unicode = 74;
},
{
color = 6;
glyphname = K;
lastChange = "2024-02-02 14:53:56 +0000";
layers = (
{
anchors = (
{
name = bottom;
pos = (248,5);
}
);
background = {
anchors = (
{
name = bottom;
pos = (248,5);
}
);
shapes = (
{
closed = 1;
nodes = (
(145,0,l),
(145,319.1,l),
(374,0,l),
(464,0,l),
(214,340,l),
(464,680,l),
(374,680,l),
(145,360.9,l),
(145,680,l),
(75,680,l),
(75,0,l)
);
}
);
};
hints = (
{
horizontal = 1;
origin = (0,10);
target = up;
type = BottomGhost;
},
{
horizontal = 1;
origin = (0,9);
target = down;
type = TopGhost;
},
{
origin = (0,10);
target = (0,0);
type = Stem;
}
);
layerId = m01;
shapes = (
{
closed = 1;
nodes = (
(145,0,l),
(145,319.1,l),
(374,0,l),
(464,0,l),
(214,340,l),
(464,680,l),
(374,680,l),
(145,360.9,l),
(145,680,l),
(75,680,l),
(75,0,l)
);
}
);
width = 474;
},
{
anchors = (
{
name = bottom;
pos = (289,5);
}
);
background = {
anchors = (
{
name = bottom;
pos = (289,5);
}
);
shapes = (
{
closed = 1;
nodes = (
(210,0,l),
(210,304,l),
(425,0,l),
(627,0,l),
(356,340,l),
(617,680,l),
(425,680,l),
(210,376,l),
(210,680,l),
(60,680,l),
(60,0,l)
);
}
);
};
hints = (
{
horizontal = 1;
origin = (0,10);
target = up;
type = BottomGhost;
},
{
horizontal = 1;
origin = (0,9);
target = down;
type = TopGhost;
},
{
origin = (0,10);
target = (0,0);
type = Stem;
}
);
layerId = "B86D9C3C-D3FC-40C7-BC9B-EF4509240B31";
shapes = (
{
closed = 1;
nodes = (
(210,0,l),
(210,304,l),
(425,0,l),
(627,0,l),
(356,340,l),
(617,680,l),
(425,680,l),
(210,376,l),
(210,680,l),
(60,680,l),
(60,0,l)
);
}
);
width = 632;
},
{
anchors = (
{
name = bottom;
pos = (303,5);
}
);
background = {
anchors = (
{
name = bottom;
pos = (303,5);
}
);
shapes = (
{
closed = 1;
nodes = (
(232,0,l),
(232,299,l),
(442,0,l),
(681,0,l),
(403,340,l),
(668,680,l),
(442,680,l),
(232,381,l),
(232,680,l),
(55,680,l),
(55,0,l)
);
}
);
};
hints = (
{
horizontal = 1;
origin = (0,10);
target = up;
type = BottomGhost;
},
{
horizontal = 1;
origin = (0,9);
target = down;
type = TopGhost;
},
{
origin = (0,10);
target = (0,0);
type = Stem;
}
);
layerId = "20FD933E-5CCA-4ADC-839D-1BAE82A4B007";
shapes = (
{
closed = 1;
nodes = (
(232,0,l),
(232,299,l),
(442,0,l),
(681,0,l),
(403,340,l),
(668,680,l),
(442,680,l),
(232,381,l),
(232,680,l),
(55,680,l),
(55,0,l)
);
}
);
width = 685;
}
);
note = K;
unicode = 75;
},
{
color = 10;
glyphname = Kcommaaccent;
lastChange = "2024-02-02 14:59:17 +0000";
layers = (
{
background = {
anchors = (
{
name = bottom;
pos = (248,5);
}
);
hints = (
{
horizontal = 1;
origin = (0,10);
target = up;
type = BottomGhost;
},
{
horizontal = 1;
origin = (0,9);
target = down;
type = TopGhost;
},
{
origin = (0,10);
target = (0,0);
type = Stem;
},
{
horizontal = 1;
origin = (1,3);
target = (1,2);
type = Stem;
},
{
origin = (1,3);
target = (1,1);
type = Stem;
}
);
shapes = (
{
closed = 1;
nodes = (
(145,0,l),
(145,319.1,l),
(374,0,l),
(464,0,l),
(214,340,l),
(464,680,l),
(374,680,l),
(145,360.9,l),
(145,680,l),
(75,680,l),
(75,0,l)
);
},
{
closed = 1;
nodes = (
(215,-175,l),
(315,-41,l),
(239,-41,l),
(159,-175,l)
);
}
);
};
layerId = m01;
shapes = (
{
ref = K;
},
{
pos = (116,6);
ref = commaaccentcomb;
}
);
width = 474;
},
{
background = {
anchors = (
{
name = bottom;
pos = (289,5);
}
);
hints = (
{
horizontal = 1;
origin = (0,10);
target = up;
type = BottomGhost;
},
{
horizontal = 1;
origin = (0,9);
target = down;
type = TopGhost;
},
{
origin = (0,10);
target = (0,0);
type = Stem;
},
{
horizontal = 1;
origin = (1,3);
target = (1,2);
type = Stem;
},
{
origin = (1,3);
target = (1,1);
type = Stem;
}
);
shapes = (
{
closed = 1;
nodes = (
(210,0,l),
(210,304,l),
(425,0,l),
(627,0,l),
(356,340,l),
(617,680,l),
(425,680,l),
(210,376,l),
(210,680,l),
(60,680,l),
(60,0,l)
);
},
{
closed = 1;
nodes = (
(265,-219,l),
(399,-40,l),
(271,-40,l),
(153,-219,l)
);
}
);
};
layerId = "B86D9C3C-D3FC-40C7-BC9B-EF4509240B31";
shapes = (
{
ref = K;
},
{
pos = (110,-6);
ref = commaaccentcomb;
}
);
width = 632;
},
{
background = {
anchors = (
{
name = bottom;
pos = (303,5);
}
);
hints = (
{
horizontal = 1;
origin = (0,10);
target = up;
type = BottomGhost;
},
{
horizontal = 1;
origin = (0,9);
target = down;
type = TopGhost;
},
{
origin = (0,10);
target = (0,0);
type = Stem;
},
{
horizontal = 1;
origin = (1,3);
target = (1,2);
type = Stem;
},
{
origin = (1,3);
target = (1,1);
type = Stem;
}
);
shapes = (
{
closed = 1;
nodes = (
(232,0,l),
(232,299,l),
(442,0,l),
(681,0,l),
(403,340,l),
(668,680,l),
(442,680,l),
(232,381,l),
(232,680,l),
(55,680,l),
(55,0,l)
);
},
{
closed = 1;
nodes = (
(281,-234,l),
(427,-40,l),
(281,-40,l),
(151,-234,l)
);
}
);
};
layerId = "20FD933E-5CCA-4ADC-839D-1BAE82A4B007";
shapes = (
{
ref = K;
},
{
pos = (108,-10);
ref = commaaccentcomb;
}
);
width = 685;
}
);
unicode = 310;
},
{
color = 6;
glyphname = L;
lastChange = "2024-02-02 15:07:32 +0000";
layers = (
{
anchors = (
{
name = bottom;
pos = (234,0);
},
{
name = center;
pos = (234,340);
},
{
name = top;
pos = (107,680);
},
{
name = topright;
pos = (199,680);
}
);
background = {
anchors = (
{
name = bottom;
pos = (220,0);
},
{
name = top;
pos = (107,681);
}
);
shapes = (
{
closed = 1;
nodes = (
(428,0,l),
(428,70,l),
(145,70,l),
(145,680,l),
(75,680,l),
(75,0,l)
);
}
);
};
hints = (
{
horizontal = 1;
origin = (0,5);
target = (0,2);
type = Stem;
},
{
horizontal = 1;
origin = (0,4);
target = down;
type = TopGhost;
},
{
origin = (0,5);
target = (0,2);
type = Stem;
}
);
layerId = m01;
shapes = (
{
closed = 1;
nodes = (
(428,0,l),
(428,70,l),
(145,70,l),
(145,680,l),
(75,680,l),
(75,0,l)
);
}
);
width = 468;
},
{
anchors = (
{
name = bottom;
pos = (272,0);
},
{
name = center;
pos = (272,340);
},
{
name = top;
pos = (132,680);
},
{
name = topright;
pos = (266,680);
}
);
background = {
anchors = (
{
name = bottom;
pos = (255,0);
},
{
name = top;
pos = (131,679);
}
);
shapes = (
{
closed = 1;
nodes = (
(504,0,l),
(504,136,l),
(210,136,l),
(210,680,l),
(60,680,l),
(60,0,l)
);
}
);
};
hints = (
{
horizontal = 1;
origin = (0,5);
target = (0,2);
type = Stem;
},
{
horizontal = 1;
origin = (0,4);
target = down;
type = TopGhost;
},
{
origin = (0,5);
target = (0,2);
type = Stem;
}
);
layerId = "B86D9C3C-D3FC-40C7-BC9B-EF4509240B31";
shapes = (
{
closed = 1;
nodes = (
(504,0,l),
(504,136,l),
(210,136,l),
(210,680,l),
(60,680,l),
(60,0,l)
);
}
);
width = 544;
},
{
anchors = (
{
name = bottom;
pos = (285,0);
},
{
name = center;
pos = (285,340);
},
{
name = top;
pos = (140,680);
},
{
name = topright;
pos = (288,680);
}
);
background = {
anchors = (
{
name = bottom;
pos = (267,0);
},
{
name = top;
pos = (139,678);
}
);
shapes = (
{
closed = 1;
nodes = (
(529,0,l),
(529,158,l),
(232,158,l),
(232,680,l),
(55,680,l),
(55,0,l)
);
}
);
};
hints = (
{
horizontal = 1;
origin = (0,5);
target = (0,2);
type = Stem;
},
{
horizontal = 1;
origin = (0,4);
target = down;
type = TopGhost;
},
{
origin = (0,5);
target = (0,2);
type = Stem;
}
);
layerId = "20FD933E-5CCA-4ADC-839D-1BAE82A4B007";
shapes = (
{
closed = 1;
nodes = (
(529,0,l),
(529,158,l),
(232,158,l),
(232,680,l),
(55,680,l),
(55,0,l)
);
}
);
width = 569;
}
);
note = L;
unicode = 76;
},
{
color = 10;
glyphname = Lacute;
lastChange = "2024-02-02 15:07:32 +0000";
layers = (
{
background = {
anchors = (
{
name = bottom;
pos = (220,0);
},
{
name = top;
pos = (107,681);
}
);
hints = (
{
horizontal = 1;
origin = (0,5);
target = (0,2);
type = Stem;
},
{
horizontal = 1;
origin = (0,4);
target = down;
type = TopGhost;
},
{
origin = (0,5);
target = (0,2);
type = Stem;
},
{
horizontal = 1;
origin = (1,3);
target = (1,2);
type = Stem;
},
{
origin = (1,3);
target = (1,1);
type = Stem;
}
);
shapes = (
{
closed = 1;
nodes = (
(428,0,l),
(428,70,l),
(145,70,l),
(145,680,l),
(75,680,l),
(75,0,l)
);
},
{
closed = 1;
nodes = (
(132,727,l),
(232,861,l),
(156,861,l),
(76,727,l)
);
}
);
};
layerId = m01;
shapes = (
{
ref = L;
},
{
pos = (56,-24);
ref = acutecomb;
}
);
width = 468;
},
{
background = {
anchors = (
{
name = bottom;
pos = (255,0);
},
{
name = top;
pos = (131,679);
}
);
hints = (
{
horizontal = 1;
origin = (0,5);
target = (0,2);
type = Stem;
},
{
horizontal = 1;
origin = (0,4);
target = down;
type = TopGhost;
},
{
origin = (0,5);
target = (0,2);
type = Stem;
},
{
horizontal = 1;
origin = (1,3);
target = (1,2);
type = Stem;
},
{
origin = (1,3);
target = (1,1);
type = Stem;
}
);
shapes = (
{
closed = 1;
nodes = (
(504,0,l),
(504,136,l),
(210,136,l),
(210,680,l),
(60,680,l),
(60,0,l)
);
},
{
closed = 1;
nodes = (
(188,722,l),
(322,901,l),
(194,901,l),
(76,722,l)
);
}
);
};
layerId = "B86D9C3C-D3FC-40C7-BC9B-EF4509240B31";
shapes = (
{
ref = L;
},
{
pos = (34,-27);
ref = acutecomb;
}
);
width = 544;
},
{
background = {
anchors = (
{
name = bottom;
pos = (267,0);
},
{
name = top;
pos = (139,678);
}
);
hints = (
{
horizontal = 1;
origin = (0,5);
target = (0,2);
type = Stem;
},
{
horizontal = 1;
origin = (0,4);
target = down;
type = TopGhost;
},
{
origin = (0,5);
target = (0,2);
type = Stem;
},
{
horizontal = 1;
origin = (1,3);
target = (1,2);
type = Stem;
},
{
origin = (1,3);
target = (1,1);
type = Stem;
}
);
shapes = (
{
closed = 1;
nodes = (
(529,0,l),
(529,158,l),
(232,158,l),
(232,680,l),
(55,680,l),
(55,0,l)
);
},
{
closed = 1;
nodes = (
(206,720,l),
(352,914,l),
(206,914,l),
(76,720,l)
);
}
);
};
layerId = "20FD933E-5CCA-4ADC-839D-1BAE82A4B007";
shapes = (
{
ref = L;
},
{
pos = (26,-28);
ref = acutecomb;
}
);
width = 569;
}
);
unicode = 313;
},
{
color = 10;
glyphname = Lcaron;
lastChange = "2024-02-02 15:07:15 +0000";
layers = (
{
background = {
anchors = (
{
name = bottom;
pos = (220,0);
},
{
name = top;
pos = (107,681);
}
);
hints = (
{
horizontal = 1;
origin = (0,5);
target = (0,2);
type = Stem;
},
{
horizontal = 1;
origin = (0,4);
target = down;
type = TopGhost;
},
{
origin = (0,5);
target = (0,2);
type = Stem;
},
{
horizontal = 1;
origin = (1,2);
target = (1,3);
type = Stem;
},
{
origin = (1,3);
target = (1,1);
type = Stem;
}
);
shapes = (
{
closed = 1;
nodes = (
(428,0,l),
(428,70,l),
(145,70,l),
(145,680,l),
(75,680,l),
(75,0,l)
);
},
{
closed = 1;
nodes = (
(248,490,l),
(291,680,l),
(222,680,l),
(199,490,l)
);
}
);
};
layerId = m01;
shapes = (
{
ref = L;
},
{
pos = (123,-70);
ref = caroncomb.alt;
}
);
width = 468;
},
{
background = {
anchors = (
{
name = bottom;
pos = (255,0);
},
{
name = top;
pos = (131,679);
}
);
hints = (
{
horizontal = 1;
origin = (0,5);
target = (0,2);
type = Stem;
},
{
horizontal = 1;
origin = (0,4);
target = down;
type = TopGhost;
},
{
origin = (0,5);
target = (0,2);
type = Stem;
},
{
horizontal = 1;
origin = (1,2);
target = (1,3);
type = Stem;
},
{
origin = (1,3);
target = (1,1);
type = Stem;
}
);
shapes = (
{
closed = 1;
nodes = (
(504,0,l),
(504,136,l),
(210,136,l),
(210,680,l),
(60,680,l),
(60,0,l)
);
},
{
closed = 1;
nodes = (
(392,446,l),
(439,680,l),
(321,680,l),
(290,446,l)
);
}
);
};
layerId = "B86D9C3C-D3FC-40C7-BC9B-EF4509240B31";
shapes = (
{
ref = L;
},
{
pos = (220,-70);
ref = caroncomb.alt;
}
);
width = 544;
},
{
background = {
anchors = (
{
name = bottom;
pos = (267,0);
},
{
name = top;
pos = (139,678);
}
);
hints = (
{
horizontal = 1;
origin = (0,5);
target = (0,2);
type = Stem;
},
{
horizontal = 1;
origin = (0,4);
target = down;
type = TopGhost;
},
{
origin = (0,5);
target = (0,2);
type = Stem;
},
{
horizontal = 1;
origin = (1,2);
target = (1,3);
type = Stem;
},
{
origin = (1,3);
target = (1,1);
type = Stem;
}
);
shapes = (
{
closed = 1;
nodes = (
(529,0,l),
(529,158,l),
(232,158,l),
(232,680,l),
(55,680,l),
(55,0,l)
);
},
{
closed = 1;
nodes = (
(432,431,l),
(480,680,l),
(346,680,l),
(312,431,l)
);
}
);
};
layerId = "20FD933E-5CCA-4ADC-839D-1BAE82A4B007";
shapes = (
{
ref = L;
},
{
pos = (252,-70);
ref = caroncomb.alt;
}
);
width = 569;
}
);
unicode = 317;
},
{
color = 10;
glyphname = Lcommaaccent;
lastChange = "2024-02-02 15:07:01 +0000";
layers = (
{
background = {
anchors = (
{
name = bottom;
pos = (220,0);
},
{
name = top;
pos = (107,681);
}
);
hints = (
{
horizontal = 1;
origin = (0,5);
target = (0,2);
type = Stem;
},
{
horizontal = 1;
origin = (0,4);
target = down;
type = TopGhost;
},
{
origin = (0,5);
target = (0,2);
type = Stem;
},
{
horizontal = 1;
origin = (1,3);
target = (1,2);
type = Stem;
},
{
origin = (1,3);
target = (1,1);
type = Stem;
}
);
shapes = (
{
closed = 1;
nodes = (
(428,0,l),
(428,70,l),
(145,70,l),
(145,680,l),
(75,680,l),
(75,0,l)
);
},
{
closed = 1;
nodes = (
(187,-180,l),
(287,-46,l),
(211,-46,l),
(131,-180,l)
);
}
);
};
layerId = m01;
shapes = (
{
ref = L;
},
{
pos = (102,1);
ref = commaaccentcomb;
}
);
width = 468;
},
{
background = {
anchors = (
{
name = bottom;
pos = (255,0);
},
{
name = top;
pos = (131,679);
}
);
hints = (
{
horizontal = 1;
origin = (0,5);
target = (0,2);
type = Stem;
},
{
horizontal = 1;
origin = (0,4);
target = down;
type = TopGhost;
},
{
origin = (0,5);
target = (0,2);
type = Stem;
},
{
horizontal = 1;
origin = (1,3);
target = (1,2);
type = Stem;
},
{
origin = (1,3);
target = (1,1);
type = Stem;
}
);
shapes = (
{
closed = 1;
nodes = (
(504,0,l),
(504,136,l),
(210,136,l),
(210,680,l),
(60,680,l),
(60,0,l)
);
},
{
closed = 1;
nodes = (
(231,-224,l),
(365,-45,l),
(237,-45,l),
(119,-224,l)
);
}
);
};
layerId = "B86D9C3C-D3FC-40C7-BC9B-EF4509240B31";
shapes = (
{
ref = L;
},
{
pos = (93,-11);
ref = commaaccentcomb;
}
);
width = 544;
},
{
background = {
anchors = (
{
name = bottom;
pos = (267,0);
},
{
name = top;
pos = (139,678);
}
);
hints = (
{
horizontal = 1;
origin = (0,5);
target = (0,2);
type = Stem;
},
{
horizontal = 1;
origin = (0,4);
target = down;
type = TopGhost;
},
{
origin = (0,5);
target = (0,2);
type = Stem;
},
{
horizontal = 1;
origin = (1,3);
target = (1,2);
type = Stem;
},
{
origin = (1,3);
target = (1,1);
type = Stem;
}
);
shapes = (
{
closed = 1;
nodes = (
(529,0,l),
(529,158,l),
(232,158,l),
(232,680,l),
(55,680,l),
(55,0,l)
);
},
{
closed = 1;
nodes = (
(245,-239,l),
(391,-45,l),
(245,-45,l),
(115,-239,l)
);
}
);
};
layerId = "20FD933E-5CCA-4ADC-839D-1BAE82A4B007";
shapes = (
{
ref = L;
},
{
pos = (90,-15);
ref = commaaccentcomb;
}
);
width = 569;
}
);
unicode = 315;
},
{
color = 10;
glyphname = Lslash;
lastChange = "2024-02-02 14:54:18 +0000";
layers = (
{
background = {
anchors = (
{
name = bottom;
pos = (220,0);
},
{
name = top;
pos = (107,681);
}
);
hints = (
{
horizontal = 1;
origin = (0,5);
target = (0,2);
type = Stem;
},
{
horizontal = 1;
origin = (0,4);
target = down;
type = TopGhost;
},
{
origin = (0,5);
target = (0,2);
type = Stem;
},
{
horizontal = 1;
origin = (1,3);
target = (1,2);
type = Stem;
}
);
shapes = (
{
closed = 1;
nodes = (
(428,0,l),
(428,70,l),
(145,70,l),
(145,680,l),
(75,680,l),
(75,0,l)
);
},
{
closed = 1;
nodes = (
(257,377,l),
(257,435,l),
(-31,269,l),
(-31,211,l)
);
}
);
};
layerId = m01;
shapes = (
{
ref = L;
},
{
pos = (-64,-2);
ref = hyphen;
scale = (0.8611,1);
slant = (0,30);
}
);
width = 468;
},
{
background = {
anchors = (
{
name = bottom;
pos = (255,0);
},
{
name = top;
pos = (131,679);
}
);
hints = (
{
horizontal = 1;
origin = (0,5);
target = (0,2);
type = Stem;
},
{
horizontal = 1;
origin = (0,4);
target = down;
type = TopGhost;
},
{
origin = (0,5);
target = (0,2);
type = Stem;
},
{
horizontal = 1;
origin = (1,3);
target = (1,2);
type = Stem;
},
{
origin = (1,3);
target = (1,0);
type = Stem;
}
);
shapes = (
{
closed = 1;
nodes = (
(504,0,l),
(504,136,l),
(210,136,l),
(210,680,l),
(60,680,l),
(60,0,l)
);
},
{
closed = 1;
nodes = (
(306,408,l),
(306,521,l),
(-30,327,l),
(-30,214,l)
);
}
);
};
layerId = "B86D9C3C-D3FC-40C7-BC9B-EF4509240B31";
shapes = (
{
ref = L;
},
{
pos = (-46,25);
ref = hyphen;
scale = (1.0822,1);
slant = (0,30);
}
);
width = 544;
},
{
background = {
anchors = (
{
name = bottom;
pos = (267,0);
},
{
name = top;
pos = (139,678);
}
);
hints = (
{
horizontal = 1;
origin = (0,5);
target = (0,2);
type = Stem;
},
{
horizontal = 1;
origin = (0,4);
target = down;
type = TopGhost;
},
{
origin = (0,5);
target = (0,2);
type = Stem;
},
{
horizontal = 1;
origin = (1,3);
target = (1,2);
type = Stem;
},
{
origin = (1,3);
target = (1,0);
type = Stem;
}
);
shapes = (
{
closed = 1;
nodes = (
(529,0,l),
(529,158,l),
(232,158,l),
(232,680,l),
(55,680,l),
(55,0,l)
);
},
{
closed = 1;
nodes = (
(317,415,l),
(317,547,l),
(-32,346,l),
(-32,214,l)
);
}
);
};
layerId = "20FD933E-5CCA-4ADC-839D-1BAE82A4B007";
shapes = (
{
alignment = -1;
ref = L;
},
{
alignment = -1;
pos = (-40,34);
ref = hyphen;
scale = (1.1559,1);
slant = (0,30);
}
);
width = 569;
}
);
unicode = 321;
},
{
color = 6;
glyphname = M;
lastChange = "2024-02-02 14:53:56 +0000";
layers = (
{
background = {
shapes = (
{
closed = 1;
nodes = (
(82,0,l),
(187,484,l),
(375,4,l),
(409,4,l),
(596,484,l),
(702,0,l),
(773,0,l),
(624,682,l),
(598,682,l),
(392,143,l),
(186,682,l),
(159,682,l),
(10,0,l)
);
}
);
};
hints = (
{
horizontal = 1;
origin = (0,12);
target = up;
type = BottomGhost;
},
{
horizontal = 1;
origin = (0,11);
target = down;
type = TopGhost;
}
);
layerId = m01;
shapes = (
{
closed = 1;
nodes = (
(82,0,l),
(187,484,l),
(375,4,l),
(409,4,l),
(596,484,l),
(702,0,l),
(773,0,l),
(624,682,l),
(598,682,l),
(392,143,l),
(186,682,l),
(159,682,l),
(10,0,l)
);
}
);
width = 783;
},
{
background = {
shapes = (
{
closed = 1;
nodes = (
(180,0,l),
(260,469,l),
(393,0,l),
(540,0,l),
(673,469,l),
(753,0,l),
(918,0,l),
(786,680,l),
(608,680,l),
(467,203,l),
(325,680,l),
(147,680,l),
(15,0,l)
);
}
);
};
hints = (
{
horizontal = 1;
origin = (0,12);
target = up;
type = BottomGhost;
},
{
horizontal = 1;
origin = (0,11);
target = down;
type = TopGhost;
}
);
layerId = "B86D9C3C-D3FC-40C7-BC9B-EF4509240B31";
shapes = (
{
closed = 1;
nodes = (
(180,0,l),
(260,469,l),
(393,0,l),
(540,0,l),
(673,469,l),
(753,0,l),
(918,0,l),
(786,680,l),
(608,680,l),
(467,203,l),
(325,680,l),
(147,680,l),
(15,0,l)
);
}
);
width = 933;
},
{
background = {
shapes = (
{
closed = 1;
nodes = (
(213,0,l),
(284,464,l),
(399,-1,l),
(584,-1,l),
(699,464,l),
(770,0,l),
(966,0,l),
(840,679,l),
(611,679,l),
(492,223,l),
(371,679,l),
(143,679,l),
(17,0,l)
);
}
);
};
hints = (
{
horizontal = 1;
origin = (0,12);
target = up;
type = BottomGhost;
},
{
horizontal = 1;
origin = (0,11);
target = down;
type = TopGhost;
},
{
horizontal = 1;
origin = (0,2);
target = up;
type = BottomGhost;
}
);
layerId = "20FD933E-5CCA-4ADC-839D-1BAE82A4B007";
shapes = (
{
closed = 1;
nodes = (
(213,0,l),
(284,464,l),
(399,-1,l),
(584,-1,l),
(699,464,l),
(770,0,l),
(966,0,l),
(840,679,l),
(611,679,l),
(492,223,l),
(371,679,l),
(143,679,l),
(17,0,l)
);
}
);
width = 983;
}
);
note = M;
unicode = 77;
},
{
color = 6;
glyphname = N;
lastChange = "2024-02-02 14:53:56 +0000";
layers = (
{
anchors = (
{
name = bottom;
pos = (319,0);
},
{
name = top;
pos = (282,673);
}
);
background = {
anchors = (
{
name = bottom;
pos = (319,0);
},
{
name = top;
pos = (282,673);
}
);
shapes = (
{
closed = 1;
nodes = (
(145,0,l),
(145,501,l),
(497,1,l),
(527,1,l),
(527,680,l),
(457,680,l),
(457,180,l),
(105,680,l),
(75,680,l),
(75,0,l)
);
}
);
};
hints = (
{
horizontal = 1;
origin = (0,9);
target = up;
type = BottomGhost;
},
{
horizontal = 1;
origin = (0,8);
target = down;
type = TopGhost;
},
{
horizontal = 1;
origin = (0,2);
target = up;
type = BottomGhost;
},
{
origin = (0,9);
target = (0,0);
type = Stem;
},
{
origin = (0,6);
target = (0,3);
type = Stem;
}
);
layerId = m01;
shapes = (
{
closed = 1;
nodes = (
(145,0,l),
(145,501,l),
(497,1,l),
(527,1,l),
(527,680,l),
(457,680,l),
(457,180,l),
(105,680,l),
(75,680,l),
(75,0,l)
);
}
);
width = 602;
},
{
anchors = (
{
name = bottom;
pos = (318,0);
},
{
name = top;
pos = (328,677);
}
);
background = {
anchors = (
{
name = bottom;
pos = (318,0);
},
{
name = top;
pos = (328,677);
}
);
shapes = (
{
closed = 1;
nodes = (
(210,0,l),
(210,424,l),
(444,0,l),
(594,0,l),
(594,680,l),
(444,680,l),
(444,256,l),
(210,680,l),
(60,680,l),
(60,0,l)
);
}
);
};
hints = (
{
horizontal = 1;
origin = (0,9);
target = up;
type = BottomGhost;
},
{
horizontal = 1;
origin = (0,8);
target = down;
type = TopGhost;
},
{
origin = (0,9);
target = (0,0);
type = Stem;
},
{
origin = (0,2);
target = (0,3);
type = Stem;
}
);
layerId = "B86D9C3C-D3FC-40C7-BC9B-EF4509240B31";
shapes = (
{
closed = 1;
nodes = (
(210,0,l),
(210,424,l),
(444,0,l),
(594,0,l),
(594,680,l),
(444,680,l),
(444,256,l),
(210,680,l),
(60,680,l),
(60,0,l)
);
}
);
width = 654;
},
{
anchors = (
{
name = bottom;
pos = (318,0);
},
{
name = top;
pos = (343,678);
}
);
background = {
anchors = (
{
name = bottom;
pos = (318,0);
},
{
name = top;
pos = (343,678);
}
);
shapes = (
{
closed = 1;
nodes = (
(232,0,l),
(232,398,l),
(426,0,l),
(616,0,l),
(616,680,l),
(440,680,l),
(440,281,l),
(245,680,l),
(55,680,l),
(55,0,l)
);
}
);
};
hints = (
{
horizontal = 1;
origin = (0,9);
target = up;
type = BottomGhost;
},
{
horizontal = 1;
origin = (0,8);
target = down;
type = TopGhost;
},
{
origin = (0,9);
target = (0,0);
type = Stem;
},
{
origin = (0,6);
target = (0,3);
type = Stem;
}
);
layerId = "20FD933E-5CCA-4ADC-839D-1BAE82A4B007";
shapes = (
{
closed = 1;
nodes = (
(232,0,l),
(232,398,l),
(426,0,l),
(616,0,l),
(616,680,l),
(440,680,l),
(440,281,l),
(245,680,l),
(55,680,l),
(55,0,l)
);
}
);
width = 671;
}
);
note = N;
unicode = 78;
},
{
color = 10;
glyphname = Nacute;
lastChange = "2024-02-02 14:59:17 +0000";
layers = (
{
background = {
anchors = (
{
name = bottom;
pos = (319,0);
},
{
name = top;
pos = (282,673);
}
);
hints = (
{
horizontal = 1;
origin = (0,9);
target = up;
type = BottomGhost;
},
{
horizontal = 1;
origin = (0,8);
target = down;
type = TopGhost;
},
{
horizontal = 1;
origin = (0,2);
target = up;
type = BottomGhost;
},
{
origin = (0,9);
target = (0,0);
type = Stem;
},
{
origin = (0,6);
target = (0,3);
type = Stem;
},
{
horizontal = 1;
origin = (1,3);
target = (1,2);
type = Stem;
},
{
origin = (1,3);
target = (1,1);
type = Stem;
}
);
shapes = (
{
closed = 1;
nodes = (
(145,0,l),
(145,501,l),
(497,1,l),
(527,1,l),
(527,680,l),
(457,680,l),
(457,180,l),
(105,680,l),
(75,680,l),
(75,0,l)
);
},
{
closed = 1;
nodes = (
(307,719,l),
(407,853,l),
(331,853,l),
(251,719,l)
);
}
);
};
layerId = m01;
shapes = (
{
ref = N;
},
{
pos = (231,-31);
ref = acutecomb;
}
);
width = 602;
},
{
background = {
anchors = (
{
name = bottom;
pos = (318,0);
},
{
name = top;
pos = (328,677);
}
);
hints = (
{
horizontal = 1;
origin = (0,9);
target = up;
type = BottomGhost;
},
{
horizontal = 1;
origin = (0,8);
target = down;
type = TopGhost;
},
{
origin = (0,9);
target = (0,0);
type = Stem;
},
{
origin = (0,2);
target = (0,3);
type = Stem;
},
{
horizontal = 1;
origin = (1,3);
target = (1,2);
type = Stem;
},
{
origin = (1,3);
target = (1,1);
type = Stem;
}
);
shapes = (
{
closed = 1;
nodes = (
(210,0,l),
(210,424,l),
(444,0,l),
(594,0,l),
(594,680,l),
(444,680,l),
(444,256,l),
(210,680,l),
(60,680,l),
(60,0,l)
);
},
{
closed = 1;
nodes = (
(385,720,l),
(519,899,l),
(391,899,l),
(273,720,l)
);
}
);
};
layerId = "B86D9C3C-D3FC-40C7-BC9B-EF4509240B31";
shapes = (
{
ref = N;
},
{
pos = (230,-30);
ref = acutecomb;
}
);
width = 654;
},
{
background = {
anchors = (
{
name = bottom;
pos = (318,0);
},
{
name = top;
pos = (343,678);
}
);
hints = (
{
horizontal = 1;
origin = (0,9);
target = up;
type = BottomGhost;
},
{
horizontal = 1;
origin = (0,8);
target = down;
type = TopGhost;
},
{
origin = (0,9);
target = (0,0);
type = Stem;
},
{
origin = (0,6);
target = (0,3);
type = Stem;
},
{
horizontal = 1;
origin = (1,3);
target = (1,2);
type = Stem;
},
{
origin = (1,3);
target = (1,1);
type = Stem;
}
);
shapes = (
{
closed = 1;
nodes = (
(232,0,l),
(232,398,l),
(426,0,l),
(616,0,l),
(616,680,l),
(440,680,l),
(440,281,l),
(245,680,l),
(55,680,l),
(55,0,l)
);
},
{
closed = 1;
nodes = (
(411,720,l),
(557,914,l),
(411,914,l),
(281,720,l)
);
}
);
};
layerId = "20FD933E-5CCA-4ADC-839D-1BAE82A4B007";
shapes = (
{
ref = N;
},
{
pos = (229,-30);
ref = acutecomb;
}
);
width = 671;
}
);
unicode = 323;
},
{
color = 10;
glyphname = Ncaron;
lastChange = "2024-02-02 14:59:17 +0000";
layers = (
{
background = {
anchors = (
{
name = bottom;
pos = (319,0);
},
{
name = top;
pos = (282,673);
}
);
hints = (
{
horizontal = 1;
origin = (0,9);
target = up;
type = BottomGhost;
},
{
horizontal = 1;
origin = (0,8);
target = down;
type = TopGhost;
},
{
horizontal = 1;
origin = (0,2);
target = up;
type = BottomGhost;
},
{
origin = (0,9);
target = (0,0);
type = Stem;
},
{
origin = (0,6);
target = (0,3);
type = Stem;
},
{
horizontal = 1;
origin = (1,7);
target = (1,6);
type = Stem;
}
);
shapes = (
{
closed = 1;
nodes = (
(145,0,l),
(145,501,l),
(497,1,l),
(527,1,l),
(527,680,l),
(457,680,l),
(457,180,l),
(105,680,l),
(75,680,l),
(75,0,l)
);
},
{
closed = 1;
nodes = (
(312,722,l),
(422,855,l),
(351,855,l),
(270,746,l),
(288,746,l),
(207,855,l),
(136,855,l),
(246,722,l)
);
}
);
};
layerId = m01;
shapes = (
{
ref = N;
},
{
pos = (106,-29);
ref = caroncomb;
}
);
width = 602;
},
{
background = {
anchors = (
{
name = bottom;
pos = (318,0);
},
{
name = top;
pos = (328,677);
}
);
hints = (
{
horizontal = 1;
origin = (0,9);
target = up;
type = BottomGhost;
},
{
horizontal = 1;
origin = (0,8);
target = down;
type = TopGhost;
},
{
origin = (0,9);
target = (0,0);
type = Stem;
},
{
origin = (0,2);
target = (0,3);
type = Stem;
},
{
horizontal = 1;
origin = (1,7);
target = (1,6);
type = Stem;
},
{
origin = (1,6);
target = (1,1);
type = Stem;
}
);
shapes = (
{
closed = 1;
nodes = (
(210,0,l),
(210,424,l),
(444,0,l),
(594,0,l),
(594,680,l),
(444,680,l),
(444,256,l),
(210,680,l),
(60,680,l),
(60,0,l)
);
},
{
closed = 1;
nodes = (
(383,722,l),
(511,901,l),
(399,901,l),
(301,740,l),
(347,740,l),
(249,901,l),
(137,901,l),
(265,722,l)
);
}
);
};
layerId = "B86D9C3C-D3FC-40C7-BC9B-EF4509240B31";
shapes = (
{
ref = N;
},
{
pos = (97,-29);
ref = caroncomb;
}
);
width = 654;
},
{
background = {
anchors = (
{
name = bottom;
pos = (318,0);
},
{
name = top;
pos = (343,678);
}
);
hints = (
{
horizontal = 1;
origin = (0,9);
target = up;
type = BottomGhost;
},
{
horizontal = 1;
origin = (0,8);
target = down;
type = TopGhost;
},
{
origin = (0,9);
target = (0,0);
type = Stem;
},
{
origin = (0,6);
target = (0,3);
type = Stem;
},
{
horizontal = 1;
origin = (1,7);
target = (1,6);
type = Stem;
},
{
origin = (1,6);
target = (1,1);
type = Stem;
}
);
shapes = (
{
closed = 1;
nodes = (
(232,0,l),
(232,398,l),
(426,0,l),
(616,0,l),
(616,680,l),
(440,680,l),
(440,281,l),
(245,680,l),
(55,680,l),
(55,0,l)
);
},
{
closed = 1;
nodes = (
(407,722,l),
(541,916,l),
(415,916,l),
(311,738,l),
(367,738,l),
(263,916,l),
(137,916,l),
(271,722,l)
);
}
);
};
layerId = "20FD933E-5CCA-4ADC-839D-1BAE82A4B007";
shapes = (
{
ref = N;
},
{
pos = (94,-29);
ref = caroncomb;
}
);
width = 671;
}
);
unicode = 327;
},
{
color = 10;
glyphname = Ncommaaccent;
lastChange = "2024-02-02 14:59:17 +0000";
layers = (
{
background = {
anchors = (
{
name = bottom;
pos = (319,0);
},
{
name = top;
pos = (282,673);
}
);
hints = (
{
horizontal = 1;
origin = (0,9);
target = up;
type = BottomGhost;
},
{
horizontal = 1;
origin = (0,8);
target = down;
type = TopGhost;
},
{
horizontal = 1;
origin = (0,2);
target = up;
type = BottomGhost;
},
{
origin = (0,9);
target = (0,0);
type = Stem;
},
{
origin = (0,6);
target = (0,3);
type = Stem;
},
{
horizontal = 1;
origin = (1,3);
target = (1,2);
type = Stem;
},
{
origin = (1,3);
target = (1,1);
type = Stem;
}
);
shapes = (
{
closed = 1;
nodes = (
(145,0,l),
(145,501,l),
(497,1,l),
(527,1,l),
(527,680,l),
(457,680,l),
(457,180,l),
(105,680,l),
(75,680,l),
(75,0,l)
);
},
{
closed = 1;
nodes = (
(286,-180,l),
(386,-46,l),
(310,-46,l),
(230,-180,l)
);
}
);
};
layerId = m01;
shapes = (
{
ref = N;
},
{
pos = (187,1);
ref = commaaccentcomb;
}
);
width = 602;
},
{
background = {
anchors = (
{
name = bottom;
pos = (318,0);
},
{
name = top;
pos = (328,677);
}
);
hints = (
{
horizontal = 1;
origin = (0,9);
target = up;
type = BottomGhost;
},
{
horizontal = 1;
origin = (0,8);
target = down;
type = TopGhost;
},
{
origin = (0,9);
target = (0,0);
type = Stem;
},
{
origin = (0,2);
target = (0,3);
type = Stem;
},
{
horizontal = 1;
origin = (1,3);
target = (1,2);
type = Stem;
},
{
origin = (1,3);
target = (1,1);
type = Stem;
}
);
shapes = (
{
closed = 1;
nodes = (
(210,0,l),
(210,424,l),
(444,0,l),
(594,0,l),
(594,680,l),
(444,680,l),
(444,256,l),
(210,680,l),
(60,680,l),
(60,0,l)
);
},
{
closed = 1;
nodes = (
(294,-224,l),
(428,-45,l),
(300,-45,l),
(182,-224,l)
);
}
);
};
layerId = "B86D9C3C-D3FC-40C7-BC9B-EF4509240B31";
shapes = (
{
ref = N;
},
{
pos = (139,-11);
ref = commaaccentcomb;
}
);
width = 654;
},
{
background = {
anchors = (
{
name = bottom;
pos = (318,0);
},
{
name = top;
pos = (343,678);
}
);
hints = (
{
horizontal = 1;
origin = (0,9);
target = up;
type = BottomGhost;
},
{
horizontal = 1;
origin = (0,8);
target = down;
type = TopGhost;
},
{
origin = (0,9);
target = (0,0);
type = Stem;
},
{
origin = (0,6);
target = (0,3);
type = Stem;
},
{
horizontal = 1;
origin = (1,3);
target = (1,2);
type = Stem;
},
{
origin = (1,3);
target = (1,1);
type = Stem;
}
);
shapes = (
{
closed = 1;
nodes = (
(232,0,l),
(232,398,l),
(426,0,l),
(616,0,l),
(616,680,l),
(440,680,l),
(440,281,l),
(245,680,l),
(55,680,l),
(55,0,l)
);
},
{
closed = 1;
nodes = (
(296,-239,l),
(442,-45,l),
(296,-45,l),
(166,-239,l)
);
}
);
};
layerId = "20FD933E-5CCA-4ADC-839D-1BAE82A4B007";
shapes = (
{
ref = N;
},
{
pos = (123,-15);
ref = commaaccentcomb;
}
);
width = 671;
}
);
unicode = 325;
},
{
color = 10;
glyphname = Ntilde;
lastChange = "2024-02-02 14:59:17 +0000";
layers = (
{
background = {
anchors = (
{
name = bottom;
pos = (319,0);
},
{
name = top;
pos = (282,673);
}
);
hints = (
{
horizontal = 1;
origin = (0,9);
target = up;
type = BottomGhost;
},
{
horizontal = 1;
origin = (0,8);
target = down;
type = TopGhost;
},
{
horizontal = 1;
origin = (0,2);
target = up;
type = BottomGhost;
},
{
origin = (0,9);
target = (0,0);
type = Stem;
},
{
origin = (0,6);
target = (0,3);
type = Stem;
},
{
horizontal = 1;
origin = (1,19);
target = (1,6);
type = Stem;
},
{
horizontal = 1;
origin = (1,16);
target = (1,9);
type = Stem;
},
{
origin = (1,12);
target = (1,13);
type = Stem;
},
{
origin = (1,3);
target = (1,2);
type = Stem;
}
);
shapes = (
{
closed = 1;
nodes = (
(145,0,l),
(145,501,l),
(497,1,l),
(527,1,l),
(527,680,l),
(457,680,l),
(457,180,l),
(105,680,l),
(75,680,l),
(75,0,l)
);
},
{
closed = 1;
nodes = (
(421,712,o),
(448,773,o),
(441,837,c),
(392,837,l),
(392,792,o),
(386,768,o),
(351,768,cs),
(326,768,o),
(276,848,o),
(208,848,cs),
(144,848,o),
(111,795,o),
(113,724,c),
(162,724,l),
(159,752,o),
(169,793,o),
(201,793,cs),
(234,793,o),
(285,712,o),
(349,712,cs)
);
}
);
};
layerId = m01;
shapes = (
{
ref = N;
},
{
pos = (48,-6);
ref = tildecomb;
}
);
width = 602;
},
{
background = {
anchors = (
{
name = bottom;
pos = (318,0);
},
{
name = top;
pos = (328,677);
}
);
hints = (
{
horizontal = 1;
origin = (0,9);
target = up;
type = BottomGhost;
},
{
horizontal = 1;
origin = (0,8);
target = down;
type = TopGhost;
},
{
origin = (0,9);
target = (0,0);
type = Stem;
},
{
origin = (0,2);
target = (0,3);
type = Stem;
},
{
horizontal = 1;
origin = (1,19);
target = (1,6);
type = Stem;
},
{
horizontal = 1;
origin = (1,19);
target = (1,3);
type = Stem;
},
{
horizontal = 1;
origin = (1,16);
target = (1,9);
type = Stem;
},
{
horizontal = 1;
origin = (1,12);
target = (1,9);
type = Stem;
},
{
origin = (1,12);
target = (1,13);
type = Stem;
},
{
origin = (1,3);
target = (1,2);
type = Stem;
}
);
shapes = (
{
closed = 1;
nodes = (
(210,0,l),
(210,424,l),
(444,0,l),
(594,0,l),
(594,680,l),
(444,680,l),
(444,256,l),
(210,680,l),
(60,680,l),
(60,0,l)
);
},
{
closed = 1;
nodes = (
(474,720,o),
(518,778,o),
(518,863,c),
(428,863,l),
(428,822,o),
(403,820,o),
(387,820,cs),
(353,820,o),
(318,870,o),
(251,870,cs),
(171,870,o),
(130,794,o),
(130,726,c),
(215,726,l),
(215,742,o),
(226,774,o),
(257,774,cs),
(312,774,o),
(329,720,o),
(398,720,cs)
);
}
);
};
layerId = "B86D9C3C-D3FC-40C7-BC9B-EF4509240B31";
shapes = (
{
ref = N;
},
{
pos = (110,102);
ref = tildecomb;
}
);
width = 654;
},
{
background = {
anchors = (
{
name = bottom;
pos = (318,0);
},
{
name = top;
pos = (343,678);
}
);
hints = (
{
horizontal = 1;
origin = (0,9);
target = up;
type = BottomGhost;
},
{
horizontal = 1;
origin = (0,8);
target = down;
type = TopGhost;
},
{
origin = (0,9);
target = (0,0);
type = Stem;
},
{
origin = (0,6);
target = (0,3);
type = Stem;
},
{
horizontal = 1;
origin = (1,19);
target = (1,3);
type = Stem;
},
{
horizontal = 1;
origin = (1,19);
target = (1,6);
type = Stem;
},
{
horizontal = 1;
origin = (1,16);
target = (1,9);
type = Stem;
},
{
horizontal = 1;
origin = (1,12);
target = (1,9);
type = Stem;
},
{
origin = (1,3);
target = (1,2);
type = Stem;
}
);
shapes = (
{
closed = 1;
nodes = (
(232,0,l),
(232,398,l),
(426,0,l),
(616,0,l),
(616,680,l),
(440,680,l),
(440,281,l),
(245,680,l),
(55,680,l),
(55,0,l)
);
},
{
closed = 1;
nodes = (
(492,723,o),
(542,780,o),
(544,872,c),
(440,872,l),
(440,832,o),
(409,837,o),
(399,837,cs),
(362,837,o),
(332,877,o),
(266,877,cs),
(180,877,o),
(137,794,o),
(136,727,c),
(233,727,l),
(234,739,o),
(245,768,o),
(276,768,cs),
(338,768,o),
(344,723,o),
(415,723,cs)
);
}
);
};
layerId = "20FD933E-5CCA-4ADC-839D-1BAE82A4B007";
shapes = (
{
ref = N;
},
{
pos = (130,138);
ref = tildecomb;
}
);
width = 671;
}
);
note = Ntilde;
unicode = 209;
},
{
color = 3;
glyphname = Eng;
lastChange = "2024-02-02 14:54:18 +0000";
layers = (
{
background = {
anchors = (
{
name = bottom;
pos = (319,0);
},
{
name = top;
pos = (282,673);
}
);
hints = (
{
horizontal = 1;
origin = (0,9);
target = up;
type = BottomGhost;
},
{
horizontal = 1;
origin = (0,8);
target = down;
type = TopGhost;
},
{
horizontal = 1;
origin = (0,2);
target = up;
type = BottomGhost;
},
{
origin = (0,9);
target = (0,0);
type = Stem;
},
{
origin = (0,6);
target = (0,3);
type = Stem;
}
);
shapes = (
{
closed = 1;
nodes = (
(145,0,l),
(145,501,l),
(497,1,l),
(527,1,l),
(527,680,l),
(457,680,l),
(457,180,l),
(105,680,l),
(75,680,l),
(75,0,l)
);
},
{
closed = 1;
nodes = (
(469,-175,o),
(527,-101,o),
(527,-16,cs),
(527,135,l),
(457,135,l),
(457,-17,ls),
(457,-71,o),
(426,-107,o),
(375,-107,c),
(375,-175,l),
(387,-175,l)
);
}
);
};
hints = (
{
horizontal = 1;
origin = (1,9);
target = (1,8);
type = Stem;
},
{
origin = (1,5);
target = (1,2);
type = Stem;
}
);
layerId = m01;
shapes = (
{
ref = N;
},
{
closed = 1;
nodes = (
(469,-175,o),
(527,-101,o),
(527,-16,cs),
(527,135,l),
(457,135,l),
(457,-17,ls),
(457,-71,o),
(426,-107,o),
(375,-107,c),
(375,-175,l),
(387,-175,l)
);
}
);
width = 602;
},
{
background = {
anchors = (
{
name = bottom;
pos = (318,0);
},
{
name = top;
pos = (328,677);
}
);
hints = (
{
horizontal = 1;
origin = (0,9);
target = up;
type = BottomGhost;
},
{
horizontal = 1;
origin = (0,8);
target = down;
type = TopGhost;
},
{
origin = (0,9);
target = (0,0);
type = Stem;
},
{
origin = (0,2);
target = (0,3);
type = Stem;
}
);
shapes = (
{
closed = 1;
nodes = (
(210,0,l),
(210,424,l),
(444,0,l),
(594,0,l),
(594,680,l),
(444,680,l),
(444,256,l),
(210,680,l),
(60,680,l),
(60,0,l)
);
},
{
closed = 1;
nodes = (
(544,-230,o),
(593,-132,o),
(593,-23,cs),
(593,114,l),
(443,114,l),
(443,-19,ls),
(443,-56,o),
(429,-90,o),
(384,-90,c),
(384,-230,l),
(401,-230,l)
);
}
);
};
hints = (
{
horizontal = 1;
origin = (1,9);
target = (1,8);
type = Stem;
},
{
origin = (1,5);
target = (1,2);
type = Stem;
}
);
layerId = "B86D9C3C-D3FC-40C7-BC9B-EF4509240B31";
shapes = (
{
ref = N;
},
{
closed = 1;
nodes = (
(544,-230,o),
(593,-132,o),
(593,-23,cs),
(593,114,l),
(443,114,l),
(443,-19,ls),
(443,-56,o),
(429,-90,o),
(384,-90,c),
(384,-230,l),
(401,-230,l)
);
}
);
width = 654;
},
{
background = {
anchors = (
{
name = bottom;
pos = (318,0);
},
{
name = top;
pos = (343,678);
}
);
hints = (
{
horizontal = 1;
origin = (0,9);
target = up;
type = BottomGhost;
},
{
horizontal = 1;
origin = (0,8);
target = down;
type = TopGhost;
},
{
origin = (0,9);
target = (0,0);
type = Stem;
},
{
origin = (0,6);
target = (0,3);
type = Stem;
}
);
shapes = (
{
closed = 1;
nodes = (
(232,0,l),
(232,398,l),
(426,0,l),
(616,0,l),
(616,680,l),
(440,680,l),
(440,281,l),
(245,680,l),
(55,680,l),
(55,0,l)
);
},
{
closed = 1;
nodes = (
(569,-248,o),
(615,-142,o),
(615,-25,cs),
(615,107,l),
(438,107,l),
(438,-20,ls),
(438,-51,o),
(430,-84,o),
(387,-84,c),
(387,-248,l),
(406,-248,l)
);
}
);
};
hints = (
{
horizontal = 1;
origin = (1,9);
target = (1,8);
type = Stem;
},
{
origin = (1,5);
target = (1,2);
type = Stem;
}
);
layerId = "20FD933E-5CCA-4ADC-839D-1BAE82A4B007";
shapes = (
{
alignment = -1;
ref = N;
},
{
closed = 1;
nodes = (
(569,-248,o),
(615,-142,o),
(615,-25,cs),
(615,107,l),
(438,107,l),
(438,-20,ls),
(438,-51,o),
(430,-84,o),
(387,-84,c),
(387,-248,l),
(406,-248,l)
);
}
);
width = 671;
}
);
unicode = 330;
},
{
color = 6;
glyphname = O;
kernLeft = COG;
kernRight = DOC;
lastChange = "2024-02-02 14:53:56 +0000";
layers = (
{
anchors = (
{
name = top;
pos = (396,692);
}
);
background = {
anchors = (
{
name = top;
pos = (396,692);
}
);
shapes = (
{
closed = 1;
nodes = (
(581,-8,o),
(744,143,o),
(744,342,cs),
(744,536,o),
(588,691,o),
(394,691,cs),
(202,691,o),
(45,534,o),
(45,342,cs),
(45,151,o),
(203,-8,o),
(394,-8,cs)
);
},
{
closed = 1;
nodes = (
(239,62,o),
(115,187,o),
(115,342,cs),
(115,497,o),
(239,621,o),
(394,621,cs),
(549,621,o),
(674,497,o),
(674,342,cs),
(674,186,o),
(550,62,o),
(394,62,cs)
);
}
);
};
hints = (
{
horizontal = 1;
origin = (0,11);
target = (1,11);
type = Stem;
},
{
horizontal = 1;
origin = (0,5);
target = (1,5);
type = Stem;
},
{
origin = (0,8);
target = (1,2);
type = Stem;
},
{
origin = (1,8);
target = (0,2);
type = Stem;
}
);
layerId = m01;
shapes = (
{
closed = 1;
nodes = (
(581,-8,o),
(744,143,o),
(744,342,cs),
(744,536,o),
(588,691,o),
(394,691,cs),
(202,691,o),
(45,534,o),
(45,342,cs),
(45,151,o),
(203,-8,o),
(394,-8,cs)
);
},
{
closed = 1;
nodes = (
(239,62,o),
(115,187,o),
(115,342,cs),
(115,497,o),
(239,621,o),
(394,621,cs),
(549,621,o),
(674,497,o),
(674,342,cs),
(674,186,o),
(550,62,o),
(394,62,cs)
);
}
);
width = 789;
},
{
anchors = (
{
name = top;
pos = (384,689);
}
);
background = {
anchors = (
{
name = top;
pos = (384,689);
}
);
shapes = (
{
closed = 1;
nodes = (
(573,-10,o),
(735,152,o),
(735,340,cs),
(735,528,o),
(573,690,o),
(385,690,cs),
(197,690,o),
(35,528,o),
(35,340,cs),
(35,152,o),
(197,-10,o),
(385,-10,cs)
);
},
{
closed = 1;
nodes = (
(280,140,o),
(185,236,o),
(185,341,cs),
(185,446,o),
(280,541,o),
(385,541,cs),
(490,541,o),
(585,446,o),
(585,341,cs),
(585,236,o),
(490,140,o),
(385,140,cs)
);
}
);
};
hints = (
{
horizontal = 1;
origin = (0,11);
target = (1,11);
type = Stem;
},
{
horizontal = 1;
origin = (0,5);
target = (1,5);
type = Stem;
},
{
origin = (0,8);
target = (1,2);
type = Stem;
},
{
origin = (1,8);
target = (0,2);
type = Stem;
}
);
layerId = "B86D9C3C-D3FC-40C7-BC9B-EF4509240B31";
shapes = (
{
closed = 1;
nodes = (
(573,-10,o),
(735,152,o),
(735,340,cs),
(735,528,o),
(573,690,o),
(385,690,cs),
(197,690,o),
(35,528,o),
(35,340,cs),
(35,152,o),
(197,-10,o),
(385,-10,cs)
);
},
{
closed = 1;
nodes = (
(280,140,o),
(185,236,o),
(185,341,cs),
(185,446,o),
(280,541,o),
(385,541,cs),
(490,541,o),
(585,446,o),
(585,341,cs),
(585,236,o),
(490,140,o),
(385,140,cs)
);
}
);
width = 770;
},
{
anchors = (
{
name = top;
pos = (380,688);
}
);
background = {
anchors = (
{
name = top;
pos = (380,688);
}
);
shapes = (
{
closed = 1;
nodes = (
(570,-11,o),
(732,155,o),
(732,339,cs),
(732,525,o),
(568,690,o),
(382,690,cs),
(195,690,o),
(32,526,o),
(32,339,cs),
(32,152,o),
(195,-11,o),
(382,-11,cs)
);
},
{
closed = 1;
nodes = (
(294,166,o),
(208,252,o),
(208,341,cs),
(208,429,o),
(294,514,o),
(382,514,cs),
(470,514,o),
(555,429,o),
(555,341,cs),
(555,253,o),
(470,166,o),
(382,166,cs)
);
}
);
};
hints = (
{
horizontal = 1;
origin = (0,11);
target = (1,11);
type = Stem;
},
{
horizontal = 1;
origin = (1,5);
target = (0,5);
type = Stem;
},
{
origin = (0,8);
target = (1,2);
type = Stem;
},
{
origin = (1,8);
target = (0,2);
type = Stem;
}
);
layerId = "20FD933E-5CCA-4ADC-839D-1BAE82A4B007";
shapes = (
{
closed = 1;
nodes = (
(570,-11,o),
(732,155,o),
(732,339,cs),
(732,525,o),
(568,690,o),
(382,690,cs),
(195,690,o),
(32,526,o),
(32,339,cs),
(32,152,o),
(195,-11,o),
(382,-11,cs)
);
},
{
closed = 1;
nodes = (
(294,166,o),
(208,252,o),
(208,341,cs),
(208,429,o),
(294,514,o),
(382,514,cs),
(470,514,o),
(555,429,o),
(555,341,cs),
(555,253,o),
(470,166,o),
(382,166,cs)
);
}
);
width = 764;
}
);
note = O;
unicode = 79;
},
{
color = 10;
glyphname = Oacute;
kernLeft = COG;
kernRight = DOC;
lastChange = "2024-02-02 14:59:17 +0000";
layers = (
{
background = {
anchors = (
{
name = top;
pos = (396,692);
}
);
hints = (
{
horizontal = 1;
origin = (0,11);
target = (1,11);
type = Stem;
},
{
horizontal = 1;
origin = (0,5);
target = (1,5);
type = Stem;
},
{
origin = (0,8);
target = (1,2);
type = Stem;
},
{
origin = (1,8);
target = (0,2);
type = Stem;
},
{
horizontal = 1;
origin = (2,3);
target = (2,2);
type = Stem;
},
{
origin = (2,3);
target = (2,1);
type = Stem;
}
);
shapes = (
{
closed = 1;
nodes = (
(581,-8,o),
(744,143,o),
(744,342,cs),
(744,536,o),
(588,691,o),
(394,691,cs),
(202,691,o),
(45,534,o),
(45,342,cs),
(45,151,o),
(203,-8,o),
(394,-8,cs)
);
},
{
closed = 1;
nodes = (
(239,62,o),
(115,187,o),
(115,342,cs),
(115,497,o),
(239,621,o),
(394,621,cs),
(549,621,o),
(674,497,o),
(674,342,cs),
(674,186,o),
(550,62,o),
(394,62,cs)
);
},
{
closed = 1;
nodes = (
(421,738,l),
(521,872,l),
(445,872,l),
(365,738,l)
);
}
);
};
layerId = m01;
shapes = (
{
ref = O;
},
{
pos = (345,-12);
ref = acutecomb;
}
);
width = 789;
},
{
background = {
anchors = (
{
name = top;
pos = (384,689);
}
);
hints = (
{
horizontal = 1;
origin = (0,11);
target = (1,11);
type = Stem;
},
{
horizontal = 1;
origin = (0,5);
target = (1,5);
type = Stem;
},
{
origin = (0,8);
target = (1,2);
type = Stem;
},
{
origin = (1,8);
target = (0,2);
type = Stem;
},
{
horizontal = 1;
origin = (2,3);
target = (2,2);
type = Stem;
},
{
origin = (2,3);
target = (2,1);
type = Stem;
}
);
shapes = (
{
closed = 1;
nodes = (
(573,-10,o),
(735,152,o),
(735,340,cs),
(735,528,o),
(573,690,o),
(385,690,cs),
(197,690,o),
(35,528,o),
(35,340,cs),
(35,152,o),
(197,-10,o),
(385,-10,cs)
);
},
{
closed = 1;
nodes = (
(280,140,o),
(185,236,o),
(185,341,cs),
(185,446,o),
(280,541,o),
(385,541,cs),
(490,541,o),
(585,446,o),
(585,341,cs),
(585,236,o),
(490,140,o),
(385,140,cs)
);
},
{
closed = 1;
nodes = (
(441,732,l),
(575,911,l),
(447,911,l),
(329,732,l)
);
}
);
};
layerId = "B86D9C3C-D3FC-40C7-BC9B-EF4509240B31";
shapes = (
{
ref = O;
},
{
pos = (286,-18);
ref = acutecomb;
}
);
width = 770;
},
{
background = {
anchors = (
{
name = top;
pos = (380,688);
}
);
hints = (
{
horizontal = 1;
origin = (0,11);
target = (1,11);
type = Stem;
},
{
horizontal = 1;
origin = (1,5);
target = (0,5);
type = Stem;
},
{
origin = (0,8);
target = (1,2);
type = Stem;
},
{
origin = (1,8);
target = (0,2);
type = Stem;
},
{
horizontal = 1;
origin = (2,3);
target = (2,2);
type = Stem;
},
{
origin = (2,3);
target = (2,1);
type = Stem;
}
);
shapes = (
{
closed = 1;
nodes = (
(570,-11,o),
(732,155,o),
(732,339,cs),
(732,525,o),
(568,690,o),
(382,690,cs),
(195,690,o),
(32,526,o),
(32,339,cs),
(32,152,o),
(195,-11,o),
(382,-11,cs)
);
},
{
closed = 1;
nodes = (
(294,166,o),
(208,252,o),
(208,341,cs),
(208,429,o),
(294,514,o),
(382,514,cs),
(470,514,o),
(555,429,o),
(555,341,cs),
(555,253,o),
(470,166,o),
(382,166,cs)
);
},
{
closed = 1;
nodes = (
(447,730,l),
(593,924,l),
(447,924,l),
(317,730,l)
);
}
);
};
layerId = "20FD933E-5CCA-4ADC-839D-1BAE82A4B007";
shapes = (
{
ref = O;
},
{
pos = (266,-20);
ref = acutecomb;
}
);
width = 764;
}
);
note = Oacute;
unicode = 211;
},
{
color = 10;
glyphname = Ocircumflex;
kernLeft = COG;
kernRight = DOC;
lastChange = "2024-02-02 14:59:17 +0000";
layers = (
{
background = {
anchors = (
{
name = top;
pos = (396,692);
}
);
hints = (
{
horizontal = 1;
origin = (0,11);
target = (1,11);
type = Stem;
},
{
horizontal = 1;
origin = (0,5);
target = (1,5);
type = Stem;
},
{
origin = (0,8);
target = (1,2);
type = Stem;
},
{
origin = (1,8);
target = (0,2);
type = Stem;
},
{
horizontal = 1;
origin = (2,7);
target = (2,6);
type = Stem;
},
{
horizontal = 1;
place = (829,45);
type = Stem;
}
);
shapes = (
{
closed = 1;
nodes = (
(581,-8,o),
(744,143,o),
(744,342,cs),
(744,536,o),
(588,691,o),
(394,691,cs),
(202,691,o),
(45,534,o),
(45,342,cs),
(45,151,o),
(203,-8,o),
(394,-8,cs)
);
},
{
closed = 1;
nodes = (
(239,62,o),
(115,187,o),
(115,342,cs),
(115,497,o),
(239,621,o),
(394,621,cs),
(549,621,o),
(674,497,o),
(674,342,cs),
(674,186,o),
(550,62,o),
(394,62,cs)
);
},
{
closed = 1;
nodes = (
(324,741,l),
(405,840,l),
(387,840,l),
(468,741,l),
(539,741,l),
(429,874,l),
(363,874,l),
(253,741,l)
);
}
);
};
layerId = m01;
shapes = (
{
ref = O;
},
{
pos = (243,-9);
ref = circumflexcomb;
}
);
width = 789;
},
{
background = {
anchors = (
{
name = top;
pos = (384,689);
}
);
hints = (
{
horizontal = 1;
origin = (0,11);
target = (1,11);
type = Stem;
},
{
horizontal = 1;
origin = (0,5);
target = (1,5);
type = Stem;
},
{
origin = (0,8);
target = (1,2);
type = Stem;
},
{
origin = (1,8);
target = (0,2);
type = Stem;
},
{
horizontal = 1;
origin = (2,7);
target = (2,6);
type = Stem;
},
{
horizontal = 1;
place = (840,78);
type = Stem;
},
{
origin = (2,7);
target = (2,4);
type = Stem;
}
);
shapes = (
{
closed = 1;
nodes = (
(573,-10,o),
(735,152,o),
(735,340,cs),
(735,528,o),
(573,690,o),
(385,690,cs),
(197,690,o),
(35,528,o),
(35,340,cs),
(35,152,o),
(197,-10,o),
(385,-10,cs)
);
},
{
closed = 1;
nodes = (
(280,140,o),
(185,236,o),
(185,341,cs),
(185,446,o),
(280,541,o),
(385,541,cs),
(490,541,o),
(585,446,o),
(585,341,cs),
(585,236,o),
(490,140,o),
(385,140,cs)
);
},
{
closed = 1;
nodes = (
(309,729,l),
(404,870,l),
(364,870,l),
(459,729,l),
(571,729,l),
(443,918,l),
(325,918,l),
(197,729,l)
);
}
);
};
layerId = "B86D9C3C-D3FC-40C7-BC9B-EF4509240B31";
shapes = (
{
ref = O;
},
{
pos = (179,9);
ref = circumflexcomb;
}
);
width = 770;
},
{
background = {
anchors = (
{
name = top;
pos = (380,688);
}
);
hints = (
{
horizontal = 1;
origin = (0,11);
target = (1,11);
type = Stem;
},
{
horizontal = 1;
origin = (1,5);
target = (0,5);
type = Stem;
},
{
origin = (0,8);
target = (1,2);
type = Stem;
},
{
origin = (1,8);
target = (0,2);
type = Stem;
},
{
horizontal = 1;
origin = (2,7);
target = (2,6);
type = Stem;
},
{
horizontal = 1;
place = (843,90);
type = Stem;
},
{
origin = (2,7);
target = (2,4);
type = Stem;
}
);
shapes = (
{
closed = 1;
nodes = (
(570,-11,o),
(732,155,o),
(732,339,cs),
(732,525,o),
(568,690,o),
(382,690,cs),
(195,690,o),
(32,526,o),
(32,339,cs),
(32,152,o),
(195,-11,o),
(382,-11,cs)
);
},
{
closed = 1;
nodes = (
(294,166,o),
(208,252,o),
(208,341,cs),
(208,429,o),
(294,514,o),
(382,514,cs),
(470,514,o),
(555,429,o),
(555,341,cs),
(555,253,o),
(470,166,o),
(382,166,cs)
);
},
{
closed = 1;
nodes = (
(304,725,l),
(404,880,l),
(357,880,l),
(456,725,l),
(582,725,l),
(448,933,l),
(313,933,l),
(179,725,l)
);
}
);
};
layerId = "20FD933E-5CCA-4ADC-839D-1BAE82A4B007";
shapes = (
{
ref = O;
},
{
pos = (158,15);
ref = circumflexcomb;
}
);
width = 764;
}
);
note = Ocircumflex;
unicode = 212;
},
